<svg width="195" height="38" viewBox="0 0 195 38" fill="none" xmlns="http://www.w3.org/2000/svg">
<path d="M2.89916 37.3835C2.08098 37.3835 1.41621 37.196 0.904842 36.821C0.427569 36.446 0.137797 35.9517 0.0355242 35.3381C-0.0667485 34.6903 0.0525696 33.9744 0.393478 33.1903L13.8935 3.27564C14.3367 2.28701 14.8651 1.58814 15.4787 1.17905C16.1264 0.735873 16.8594 0.514282 17.6776 0.514282C18.4617 0.514282 19.1605 0.735873 19.7742 1.17905C20.4219 1.58814 20.9673 2.28701 21.4105 3.27564L34.9616 33.1903C35.3366 33.9744 35.473 34.6903 35.3707 35.3381C35.2685 35.9858 34.9787 36.4971 34.5014 36.8721C34.0241 37.2131 33.3935 37.3835 32.6094 37.3835C31.6548 37.3835 30.9048 37.1619 30.3594 36.7187C29.848 36.2415 29.3878 35.5256 28.9787 34.571L25.6548 26.8494L28.4162 28.6392H6.83666L9.59802 26.8494L6.32529 34.571C5.88211 35.5596 5.42189 36.2756 4.94461 36.7187C4.46734 37.1619 3.78552 37.3835 2.89916 37.3835ZM17.5753 8.03131L10.4162 25.0597L9.08666 23.4233H26.1662L24.8878 25.0597L17.6776 8.03131H17.5753Z" fill="#6F9200"/>
<path d="M43.2529 37.3835C42.2302 37.3835 41.4461 37.1108 40.9006 36.5653C40.3552 35.9858 40.0825 35.1676 40.0825 34.1108V14.7813C40.0825 13.7245 40.3552 12.9233 40.9006 12.3779C41.4461 11.8324 42.2131 11.5597 43.2018 11.5597C44.1904 11.5597 44.9575 11.8324 45.5029 12.3779C46.0484 12.9233 46.3211 13.7245 46.3211 14.7813V18.5142L45.7586 16.9801C46.4404 15.2756 47.4972 13.929 48.9291 12.9404C50.3609 11.9518 52.0654 11.4574 54.0427 11.4574C56.054 11.4574 57.7075 11.9347 59.0029 12.8893C60.2984 13.8438 61.2018 15.3097 61.7131 17.287H60.9972C61.679 15.4802 62.804 14.0654 64.3722 13.0427C65.9404 11.9858 67.7472 11.4574 69.7927 11.4574C71.7018 11.4574 73.2699 11.8324 74.4972 12.5824C75.7586 13.3324 76.6961 14.4745 77.3097 16.0086C77.9234 17.5086 78.2302 19.4176 78.2302 21.7358V34.1108C78.2302 35.1676 77.9404 35.9858 77.3609 36.5653C76.8154 37.1108 76.0313 37.3835 75.0086 37.3835C73.9859 37.3835 73.2018 37.1108 72.6563 36.5653C72.1109 35.9858 71.8381 35.1676 71.8381 34.1108V21.9915C71.8381 20.0824 71.5143 18.6847 70.8665 17.7983C70.2529 16.912 69.1961 16.4688 67.6961 16.4688C66.0256 16.4688 64.7131 17.0654 63.7586 18.2586C62.804 19.4176 62.3268 21.037 62.3268 23.1165V34.1108C62.3268 35.1676 62.054 35.9858 61.5086 36.5653C60.9631 37.1108 60.179 37.3835 59.1563 37.3835C58.1336 37.3835 57.3325 37.1108 56.7529 36.5653C56.2075 35.9858 55.9347 35.1676 55.9347 34.1108V21.9915C55.9347 20.0824 55.6109 18.6847 54.9631 17.7983C54.3495 16.912 53.3097 16.4688 51.8438 16.4688C50.1734 16.4688 48.8609 17.0654 47.9063 18.2586C46.9518 19.4176 46.4745 21.037 46.4745 23.1165V34.1108C46.4745 36.2926 45.4006 37.3835 43.2529 37.3835Z" fill="#6F9200"/>
<path d="M96.6455 37.4858C94.5319 37.4858 92.674 36.9574 91.0717 35.9006C89.5035 34.8437 88.4637 33.429 87.9524 31.6562L88.5149 30.3778V34.1108C88.5149 35.1676 88.2421 35.9858 87.6967 36.5653C87.1512 37.1108 86.3842 37.3835 85.3956 37.3835C84.3728 37.3835 83.5887 37.1108 83.0433 36.5653C82.4978 35.9858 82.2251 35.1676 82.2251 34.1108V3.73587C82.2251 2.67905 82.4978 1.87792 83.0433 1.33246C83.5887 0.787009 84.3728 0.514282 85.3956 0.514282C86.4183 0.514282 87.2024 0.787009 87.7478 1.33246C88.3274 1.87792 88.6171 2.67905 88.6171 3.73587V17.0313H88.0035C88.549 15.3608 89.6058 14.0142 91.174 12.9915C92.7421 11.9688 94.566 11.4574 96.6455 11.4574C98.8615 11.4574 100.788 11.9858 102.424 13.0427C104.06 14.0995 105.339 15.5995 106.259 17.5426C107.18 19.4517 107.64 21.7529 107.64 24.446C107.64 27.1051 107.18 29.4233 106.259 31.4006C105.339 33.3437 104.043 34.8437 102.373 35.9006C100.736 36.9574 98.8274 37.4858 96.6455 37.4858ZM94.8558 32.6278C96.1171 32.6278 97.2251 32.321 98.1796 31.7074C99.1342 31.0937 99.8671 30.1903 100.378 28.9972C100.924 27.7699 101.197 26.2529 101.197 24.446C101.197 21.7188 100.617 19.6904 99.458 18.3608C98.299 16.9972 96.7649 16.3154 94.8558 16.3154C93.5944 16.3154 92.4865 16.6222 91.5319 17.2358C90.5774 17.8154 89.8274 18.7188 89.2819 19.9461C88.7705 21.1392 88.5149 22.6392 88.5149 24.446C88.5149 27.1392 89.0944 29.1847 90.2535 30.5824C91.4126 31.946 92.9467 32.6278 94.8558 32.6278Z" fill="#6F9200"/>
<path d="M116.057 37.3324C115.035 37.3324 114.251 37.0256 113.705 36.4119C113.16 35.7983 112.887 34.946 112.887 33.8551V15.0881C112.887 13.9631 113.16 13.1108 113.705 12.5313C114.251 11.9177 115.035 11.6108 116.057 11.6108C117.08 11.6108 117.864 11.9177 118.41 12.5313C118.989 13.1108 119.279 13.9631 119.279 15.0881V33.8551C119.279 34.946 119.006 35.7983 118.461 36.4119C117.915 37.0256 117.114 37.3324 116.057 37.3324Z" fill="#6F9200"/>
<path d="M137.375 37.4858C135.159 37.4858 133.301 37.1108 131.801 36.3608C130.335 35.6108 129.245 34.5199 128.529 33.0881C127.813 31.6222 127.455 29.8153 127.455 27.6676V16.7756H124.796C123.978 16.7756 123.347 16.5711 122.904 16.162C122.46 15.7188 122.239 15.1222 122.239 14.3722C122.239 13.5881 122.46 12.9915 122.904 12.5824C123.347 12.1733 123.978 11.9688 124.796 11.9688H127.455V7.3154C127.455 6.25859 127.728 5.45745 128.273 4.912C128.853 4.36655 129.654 4.09382 130.676 4.09382C131.699 4.09382 132.483 4.36655 133.029 4.912C133.574 5.45745 133.847 6.25859 133.847 7.3154V11.9688H139.267C140.085 11.9688 140.716 12.1733 141.159 12.5824C141.603 12.9915 141.824 13.5881 141.824 14.3722C141.824 15.1222 141.603 15.7188 141.159 16.162C140.716 16.5711 140.085 16.7756 139.267 16.7756H133.847V27.3097C133.847 28.946 134.205 30.1733 134.921 30.9915C135.637 31.8097 136.796 32.2187 138.398 32.2187C138.978 32.2187 139.489 32.1676 139.932 32.0653C140.375 31.9631 140.767 31.8949 141.108 31.8608C141.517 31.8267 141.858 31.9631 142.131 32.2699C142.404 32.5426 142.54 33.1221 142.54 34.0085C142.54 34.6903 142.421 35.304 142.182 35.8494C141.978 36.3608 141.585 36.7187 141.006 36.9233C140.563 37.0596 139.983 37.179 139.267 37.2812C138.551 37.4176 137.921 37.4858 137.375 37.4858Z" fill="#6F9200"/>
<path d="M154.597 37.4858C152.518 37.4858 150.796 37.1108 149.433 36.3608C148.069 35.5767 147.046 34.4176 146.364 32.8835C145.717 31.3494 145.393 29.4403 145.393 27.1563V14.7813C145.393 13.6904 145.666 12.8892 146.211 12.3779C146.756 11.8324 147.541 11.5597 148.563 11.5597C149.586 11.5597 150.37 11.8324 150.916 12.3779C151.495 12.8892 151.785 13.6904 151.785 14.7813V27.2585C151.785 29.0313 152.143 30.3438 152.859 31.196C153.575 32.0483 154.717 32.4744 156.285 32.4744C157.989 32.4744 159.387 31.8949 160.478 30.7358C161.569 29.5426 162.114 27.9744 162.114 26.0313V14.7813C162.114 13.6904 162.387 12.8892 162.933 12.3779C163.478 11.8324 164.262 11.5597 165.285 11.5597C166.308 11.5597 167.092 11.8324 167.637 12.3779C168.217 12.8892 168.506 13.6904 168.506 14.7813V34.1108C168.506 36.2926 167.467 37.3835 165.387 37.3835C164.399 37.3835 163.631 37.1108 163.086 36.5653C162.541 35.9858 162.268 35.1676 162.268 34.1108V30.2244L162.984 31.7585C162.268 33.5994 161.177 35.0142 159.711 36.0028C158.279 36.9915 156.575 37.4858 154.597 37.4858Z" fill="#6F9200"/>
<path d="M184.313 37.4858C182.847 37.4858 181.296 37.3324 179.659 37.0255C178.023 36.7187 176.557 36.1903 175.262 35.4403C174.716 35.0994 174.324 34.7074 174.086 34.2642C173.881 33.7869 173.796 33.3267 173.83 32.8835C173.898 32.4062 174.068 31.9972 174.341 31.6562C174.648 31.3153 175.023 31.0937 175.466 30.9915C175.943 30.8892 176.455 30.9744 177 31.2472C178.364 31.8949 179.642 32.3551 180.836 32.6278C182.029 32.8665 183.205 32.9858 184.364 32.9858C186 32.9858 187.211 32.7131 187.995 32.1676C188.813 31.5881 189.222 30.8381 189.222 29.9176C189.222 29.1335 188.949 28.5369 188.404 28.1278C187.892 27.6847 187.108 27.3608 186.051 27.1563L180.938 26.1847C178.824 25.7756 177.205 25.0085 176.08 23.8835C174.989 22.7245 174.443 21.2415 174.443 19.4347C174.443 17.7983 174.887 16.3836 175.773 15.1904C176.693 13.9972 177.955 13.0767 179.557 12.429C181.159 11.7813 183 11.4574 185.08 11.4574C186.58 11.4574 187.978 11.6279 189.273 11.9688C190.603 12.2756 191.881 12.7699 193.108 13.4517C193.62 13.7245 193.961 14.0824 194.131 14.5256C194.336 14.9688 194.387 15.429 194.284 15.9063C194.182 16.3495 193.978 16.7586 193.671 17.1336C193.364 17.4745 192.972 17.6961 192.495 17.7983C192.051 17.8665 191.54 17.7642 190.961 17.4915C189.904 16.9461 188.881 16.554 187.892 16.3154C186.938 16.0767 186.017 15.9574 185.131 15.9574C183.461 15.9574 182.216 16.2472 181.398 16.8267C180.614 17.4063 180.222 18.1733 180.222 19.1279C180.222 19.8438 180.461 20.4404 180.938 20.9176C181.415 21.3949 182.148 21.7188 183.137 21.8892L188.25 22.8608C190.466 23.2699 192.137 24.0199 193.262 25.1108C194.421 26.2017 195 27.6676 195 29.5085C195 31.9972 194.029 33.9574 192.086 35.3892C190.142 36.7869 187.551 37.4858 184.313 37.4858Z" fill="#6F9200"/>
<path d="M112.887 6.71386L119.279 2.04025C119.279 2.04025 116.057 0.443564 114.302 2.58545C112.546 4.72733 112.887 6.71386 112.887 6.71386Z" fill="#6F9200"/>
<path d="M119.279 2.04025L112.887 6.71386C112.887 6.71386 114.865 6.64375 117.308 6.11768C119.75 5.5916 119.279 2.04025 119.279 2.04025Z" fill="#6F9200"/>
</svg>
