<svg width="283" height="196" viewBox="0 0 283 196" fill="none" xmlns="http://www.w3.org/2000/svg">
<path d="M7.55837 92.766C5.51037 92.766 3.84637 92.2967 2.56637 91.358C1.37171 90.4194 0.646373 89.182 0.390373 87.646C0.134373 86.0247 0.43304 84.2327 1.28637 82.27L35.0784 7.39003C36.1877 4.91536 37.5104 3.16603 39.0464 2.14203C40.6677 1.03269 42.5024 0.478027 44.5504 0.478027C46.513 0.478027 48.2624 1.03269 49.7984 2.14203C51.4197 3.16603 52.785 4.91536 53.8944 7.39003L87.8144 82.27C88.753 84.2327 89.0944 86.0247 88.8384 87.646C88.5824 89.2674 87.857 90.5474 86.6624 91.486C85.4677 92.3394 83.889 92.766 81.9264 92.766C79.537 92.766 77.6597 92.2114 76.2944 91.102C75.0144 89.9074 73.8624 88.1154 72.8384 85.726L64.5184 66.398L71.4304 70.878H17.4144L24.3264 66.398L16.1344 85.726C15.025 88.2007 13.873 89.9927 12.6784 91.102C11.4837 92.2114 9.77704 92.766 7.55837 92.766ZM44.2944 19.294L26.3744 61.918L23.0464 57.822H65.7984L62.5984 61.918L44.5504 19.294H44.2944Z" fill="#6F9200"/>
<path d="M108.568 92.766C106.008 92.766 104.046 92.0834 102.68 90.718C101.315 89.2674 100.632 87.2194 100.632 84.574V36.19C100.632 33.5447 101.315 31.5394 102.68 30.174C104.046 28.8087 105.966 28.126 108.44 28.126C110.915 28.126 112.835 28.8087 114.2 30.174C115.566 31.5394 116.248 33.5447 116.248 36.19V45.534L114.84 41.694C116.547 37.4274 119.192 34.0567 122.776 31.582C126.36 29.1074 130.627 27.87 135.576 27.87C140.611 27.87 144.75 29.0647 147.992 31.454C151.235 33.8434 153.496 37.5127 154.776 42.462H152.984C154.691 37.9394 157.507 34.398 161.432 31.838C165.358 29.1927 169.88 27.87 175 27.87C179.779 27.87 183.704 28.8087 186.776 30.686C189.934 32.5634 192.28 35.422 193.816 39.262C195.352 43.0167 196.12 47.7954 196.12 53.598V84.574C196.12 87.2194 195.395 89.2674 193.944 90.718C192.579 92.0834 190.616 92.766 188.056 92.766C185.496 92.766 183.534 92.0834 182.168 90.718C180.803 89.2674 180.12 87.2194 180.12 84.574V54.238C180.12 49.4594 179.31 45.9607 177.688 43.742C176.152 41.5234 173.507 40.414 169.752 40.414C165.571 40.414 162.286 41.9074 159.896 44.894C157.507 47.7954 156.312 51.8487 156.312 57.054V84.574C156.312 87.2194 155.63 89.2674 154.264 90.718C152.899 92.0834 150.936 92.766 148.376 92.766C145.816 92.766 143.811 92.0834 142.36 90.718C140.995 89.2674 140.312 87.2194 140.312 84.574V54.238C140.312 49.4594 139.502 45.9607 137.88 43.742C136.344 41.5234 133.742 40.414 130.072 40.414C125.891 40.414 122.606 41.9074 120.216 44.894C117.827 47.7954 116.632 51.8487 116.632 57.054V84.574C116.632 90.0354 113.944 92.766 108.568 92.766Z" fill="#6F9200"/>
<path d="M36.096 195.522C30.8053 195.522 26.1547 194.199 22.144 191.554C18.2187 188.909 15.616 185.367 14.336 180.93L15.744 177.73V187.074C15.744 189.719 15.0613 191.767 13.696 193.218C12.3307 194.583 10.4107 195.266 7.936 195.266C5.376 195.266 3.41333 194.583 2.048 193.218C0.682666 191.767 0 189.719 0 187.074V111.042C0 108.397 0.682666 106.391 2.048 105.026C3.41333 103.661 5.376 102.978 7.936 102.978C10.496 102.978 12.4587 103.661 13.824 105.026C15.2747 106.391 16 108.397 16 111.042V144.322H14.464C15.8293 140.141 18.4747 136.77 22.4 134.21C26.3253 131.65 30.8907 130.37 36.096 130.37C41.6427 130.37 46.464 131.693 50.56 134.338C54.656 136.983 57.856 140.738 60.16 145.602C62.464 150.381 63.616 156.141 63.616 162.882C63.616 169.538 62.464 175.341 60.16 180.29C57.856 185.154 54.6133 188.909 50.432 191.554C46.336 194.199 41.5573 195.522 36.096 195.522ZM31.616 183.362C34.7733 183.362 37.5467 182.594 39.936 181.058C42.3253 179.522 44.16 177.261 45.44 174.274C46.8053 171.202 47.488 167.405 47.488 162.882C47.488 156.055 46.0373 150.978 43.136 147.65C40.2347 144.237 36.3947 142.53 31.616 142.53C28.4587 142.53 25.6853 143.298 23.296 144.834C20.9067 146.285 19.0293 148.546 17.664 151.618C16.384 154.605 15.744 158.359 15.744 162.882C15.744 169.623 17.1947 174.743 20.096 178.242C22.9973 181.655 26.8373 183.362 31.616 183.362Z" fill="#6F9200"/>
<path d="M84.686 195.138C82.126 195.138 80.1633 194.37 78.798 192.834C77.4327 191.298 76.75 189.165 76.75 186.434V139.458C76.75 136.642 77.4327 134.509 78.798 133.058C80.1633 131.522 82.126 130.754 84.686 130.754C87.246 130.754 89.2087 131.522 90.574 133.058C92.0247 134.509 92.75 136.642 92.75 139.458V186.434C92.75 189.165 92.0673 191.298 90.702 192.834C89.3367 194.37 87.3313 195.138 84.686 195.138Z" fill="#6F9200"/>
<path d="M138.047 195.522C132.5 195.522 127.85 194.583 124.095 192.706C120.426 190.829 117.695 188.098 115.903 184.514C114.111 180.845 113.215 176.322 113.215 170.946V143.682H106.559C104.511 143.682 102.932 143.17 101.823 142.146C100.714 141.037 100.159 139.543 100.159 137.666C100.159 135.703 100.714 134.21 101.823 133.186C102.932 132.162 104.511 131.65 106.559 131.65H113.215V120.002C113.215 117.357 113.898 115.351 115.263 113.986C116.714 112.621 118.719 111.938 121.279 111.938C123.839 111.938 125.802 112.621 127.167 113.986C128.532 115.351 129.215 117.357 129.215 120.002V131.65H142.783C144.831 131.65 146.41 132.162 147.519 133.186C148.628 134.21 149.183 135.703 149.183 137.666C149.183 139.543 148.628 141.037 147.519 142.146C146.41 143.17 144.831 143.682 142.783 143.682H129.215V170.05C129.215 174.146 130.111 177.218 131.903 179.266C133.695 181.314 136.596 182.338 140.607 182.338C142.058 182.338 143.338 182.21 144.447 181.954C145.556 181.698 146.538 181.527 147.391 181.442C148.415 181.357 149.268 181.698 149.951 182.466C150.634 183.149 150.975 184.599 150.975 186.818C150.975 188.525 150.676 190.061 150.079 191.426C149.567 192.706 148.586 193.602 147.135 194.114C146.026 194.455 144.575 194.754 142.783 195.01C140.991 195.351 139.412 195.522 138.047 195.522Z" fill="#6F9200"/>
<path d="M181.156 195.522C175.951 195.522 171.641 194.583 168.228 192.706C164.815 190.743 162.255 187.842 160.548 184.002C158.927 180.162 158.116 175.383 158.116 169.666V138.69C158.116 135.959 158.799 133.954 160.164 132.674C161.529 131.309 163.492 130.626 166.052 130.626C168.612 130.626 170.575 131.309 171.94 132.674C173.391 133.954 174.116 135.959 174.116 138.69V169.922C174.116 174.359 175.012 177.645 176.804 179.778C178.596 181.911 181.455 182.978 185.38 182.978C189.647 182.978 193.145 181.527 195.876 178.626C198.607 175.639 199.972 171.714 199.972 166.85V138.69C199.972 135.959 200.655 133.954 202.02 132.674C203.385 131.309 205.348 130.626 207.908 130.626C210.468 130.626 212.431 131.309 213.796 132.674C215.247 133.954 215.972 135.959 215.972 138.69V187.074C215.972 192.535 213.369 195.266 208.164 195.266C205.689 195.266 203.769 194.583 202.404 193.218C201.039 191.767 200.356 189.719 200.356 187.074V177.346L202.148 181.186C200.356 185.794 197.625 189.335 193.956 191.81C190.372 194.285 186.105 195.522 181.156 195.522Z" fill="#6F9200"/>
<path d="M255.537 195.522C251.868 195.522 247.985 195.138 243.889 194.37C239.793 193.602 236.124 192.279 232.881 190.402C231.516 189.549 230.534 188.567 229.937 187.458C229.425 186.263 229.212 185.111 229.297 184.002C229.468 182.807 229.894 181.783 230.577 180.93C231.345 180.077 232.284 179.522 233.393 179.266C234.588 179.01 235.868 179.223 237.233 179.906C240.646 181.527 243.846 182.679 246.833 183.362C249.82 183.959 252.764 184.258 255.665 184.258C259.761 184.258 262.79 183.575 264.753 182.21C266.801 180.759 267.825 178.882 267.825 176.578C267.825 174.615 267.142 173.122 265.777 172.098C264.497 170.989 262.534 170.178 259.889 169.666L247.089 167.234C241.798 166.21 237.745 164.29 234.929 161.474C232.198 158.573 230.833 154.861 230.833 150.338C230.833 146.242 231.942 142.701 234.161 139.714C236.465 136.727 239.622 134.423 243.633 132.802C247.644 131.181 252.252 130.37 257.457 130.37C261.212 130.37 264.71 130.797 267.953 131.65C271.281 132.418 274.481 133.655 277.553 135.362C278.833 136.045 279.686 136.941 280.113 138.05C280.625 139.159 280.753 140.311 280.497 141.506C280.241 142.615 279.729 143.639 278.961 144.578C278.193 145.431 277.212 145.986 276.017 146.242C274.908 146.413 273.628 146.157 272.177 145.474C269.532 144.109 266.972 143.127 264.497 142.53C262.108 141.933 259.804 141.634 257.585 141.634C253.404 141.634 250.289 142.359 248.241 143.81C246.278 145.261 245.297 147.181 245.297 149.57C245.297 151.362 245.894 152.855 247.089 154.05C248.284 155.245 250.118 156.055 252.593 156.482L265.393 158.914C270.94 159.938 275.121 161.815 277.937 164.546C280.838 167.277 282.289 170.946 282.289 175.554C282.289 181.783 279.857 186.69 274.993 190.274C270.129 193.773 263.644 195.522 255.537 195.522Z" fill="#6F9200"/>
<path d="M76.75 118.496L92.75 106.798C92.75 106.798 84.686 102.801 80.2911 108.162C75.8962 113.524 76.75 118.496 76.75 118.496Z" fill="#6F9200"/>
<path d="M92.75 106.798L76.75 118.496C76.75 118.496 81.702 118.321 87.8158 117.004C93.9297 115.687 92.75 106.798 92.75 106.798Z" fill="#6F9200"/>
</svg>
