<svg width="463" height="345" viewBox="0 0 463 345" fill="none" xmlns="http://www.w3.org/2000/svg">
<path d="M230.62 344.987C357.909 344.987 461.098 338.963 461.098 331.531C461.098 324.1 357.909 318.075 230.62 318.075C103.331 318.075 0.143066 324.1 0.143066 331.531C0.143066 338.963 103.331 344.987 230.62 344.987Z" fill="#527410"/>
<path opacity="0.2" d="M361.617 144.685C303.398 204.361 314.383 252.764 241.002 279.669C167.621 306.574 201.772 234.398 129.223 155.844C56.6747 77.2901 144.028 74.972 218.978 16.1166C293.929 -42.7389 419.837 85.01 361.617 144.685Z" fill="#6F9200"/>
<path d="M441.567 293.076C441.567 293.076 447.154 274.366 435.862 270.646C424.569 266.925 417.865 258.176 418.245 248.286C418.625 238.396 406.738 228.768 397.823 238.04C388.908 247.311 390.097 230.907 378.21 226.925C366.323 222.943 356.242 232.607 359.499 241.439C362.757 250.271 351.024 255.799 336.985 248.286C322.947 240.774 307.482 254.444 310.454 265.142C313.425 275.84 310.989 277.029 302.133 273.463C293.277 269.897 277.348 280.001 282.911 293.076C288.475 306.152 441.567 293.076 441.567 293.076Z" fill="#6F9200"/>
<path opacity="0.1" d="M441.567 293.076C441.567 293.076 447.154 274.366 435.862 270.646C424.569 266.925 417.865 258.176 418.245 248.286C418.625 238.396 406.738 228.768 397.823 238.04C388.908 247.311 390.097 230.907 378.21 226.925C366.323 222.943 356.242 232.607 359.499 241.439C362.757 250.271 351.024 255.799 336.985 248.286C322.947 240.774 307.482 254.444 310.454 265.142C313.425 275.84 310.989 277.029 302.133 273.463C293.277 269.897 277.348 280.001 282.911 293.076C288.475 306.152 441.567 293.076 441.567 293.076Z" fill="white"/>
<path d="M142.847 294.86C148.79 288.916 143.441 278.812 137.498 277.623C131.554 276.435 125.611 265.974 125.302 259.317C124.993 252.661 114.318 232.179 97.6763 244.827C81.0345 257.475 86.0865 246.681 74.0568 243.139C62.0272 239.597 54.4195 249.808 59.7092 257.475C59.7092 257.475 47.6082 254.444 42.6276 265.736C37.6469 277.029 42.6276 284.042 42.6276 284.042C42.6276 284.042 19.8877 283.365 21.9323 297.427C23.9769 311.489 142.847 294.86 142.847 294.86Z" fill="#6F9200"/>
<path opacity="0.1" d="M142.847 294.86C148.79 288.916 143.441 278.812 137.498 277.623C131.554 276.435 125.611 265.974 125.302 259.317C124.993 252.661 114.318 232.179 97.6763 244.827C81.0345 257.475 86.0865 246.681 74.0568 243.139C62.0272 239.597 54.4195 249.808 59.7092 257.475C59.7092 257.475 47.6082 254.444 42.6276 265.736C37.6469 277.029 42.6276 284.042 42.6276 284.042C42.6276 284.042 19.8877 283.365 21.9323 297.427C23.9769 311.489 142.847 294.86 142.847 294.86Z" fill="white"/>
<path d="M74.4968 297.677C68.5533 291.733 73.9025 281.629 79.846 280.441C85.7895 279.252 91.733 268.791 92.0539 262.135C92.3749 255.478 103.026 235.008 119.667 247.644C136.309 260.28 131.257 249.511 143.299 245.956C155.34 242.402 162.924 252.625 157.646 260.292C157.646 260.292 169.736 257.261 174.716 268.554C179.697 279.846 174.716 286.86 174.716 286.86C174.716 286.86 197.468 286.194 195.423 300.256C193.379 314.319 74.4968 297.677 74.4968 297.677Z" fill="#6F9200"/>
<path opacity="0.1" d="M74.4968 297.677C68.5533 291.733 73.9025 281.629 79.846 280.441C85.7895 279.252 91.733 268.791 92.0539 262.135C92.3749 255.478 103.026 235.008 119.667 247.644C136.309 260.28 131.257 249.511 143.299 245.956C155.34 242.402 162.924 252.625 157.646 260.292C157.646 260.292 169.736 257.261 174.716 268.554C179.697 279.846 174.716 286.86 174.716 286.86C174.716 286.86 197.468 286.194 195.423 300.256C193.379 314.319 74.4968 297.677 74.4968 297.677Z" fill="white"/>
<path d="M462.013 295.216V311.501H3.17458V295.216C3.13934 294.566 3.23556 293.914 3.4575 293.302C3.67945 292.689 4.02256 292.128 4.46635 291.651C4.91014 291.174 5.44552 290.791 6.04051 290.525C6.6355 290.26 7.27791 290.117 7.92939 290.105H457.211C457.866 290.11 458.514 290.249 459.115 290.511C459.715 290.774 460.256 291.156 460.705 291.634C461.154 292.111 461.501 292.675 461.726 293.291C461.951 293.907 462.049 294.562 462.013 295.216Z" fill="#263238"/>
<path d="M57.855 290.105H29.3262V311.501H57.855V290.105Z" fill="#6F9200"/>
<path d="M111.346 290.105H84.0063V311.501H111.346V290.105Z" fill="#6F9200"/>
<path d="M166.026 290.105H137.498V311.501H166.026V290.105Z" fill="#6F9200"/>
<path d="M219.518 290.105H192.178V311.501H219.518V290.105Z" fill="#6F9200"/>
<path d="M273.01 290.105H245.669V311.501H273.01V290.105Z" fill="#6F9200"/>
<path d="M327.69 290.105H299.161V311.501H327.69V290.105Z" fill="#6F9200"/>
<path d="M381.181 290.105H353.841V311.501H381.181V290.105Z" fill="#6F9200"/>
<path d="M435.862 290.105H407.333V311.501H435.862V290.105Z" fill="#6F9200"/>
<g opacity="0.6">
<path d="M57.855 290.105H29.3262V311.501H57.855V290.105Z" fill="white"/>
<path d="M111.346 290.105H84.0063V311.501H111.346V290.105Z" fill="white"/>
<path d="M166.027 290.105H137.498V311.501H166.027V290.105Z" fill="white"/>
<path d="M219.518 290.105H192.178V311.501H219.518V290.105Z" fill="white"/>
<path d="M273.01 290.105H245.67V311.501H273.01V290.105Z" fill="white"/>
<path d="M327.69 290.105H299.162V311.501H327.69V290.105Z" fill="white"/>
<path d="M381.182 290.105H353.842V311.501H381.182V290.105Z" fill="white"/>
<path d="M435.862 290.105H407.333V311.501H435.862V290.105Z" fill="white"/>
</g>
<path opacity="0.1" d="M462.013 295.216V311.501H3.17458V295.216C3.13934 294.566 3.23556 293.914 3.4575 293.302C3.67945 292.689 4.02256 292.128 4.46635 291.651C4.91014 291.174 5.44552 290.791 6.04051 290.525C6.6355 290.26 7.27791 290.117 7.92939 290.105H457.211C457.866 290.11 458.514 290.249 459.115 290.511C459.715 290.774 460.256 291.156 460.705 291.634C461.154 292.111 461.501 292.675 461.726 293.291C461.951 293.907 462.049 294.562 462.013 295.216Z" fill="white"/>
<path d="M72.3803 86.3732C72.3803 86.3732 61.5631 90.2959 63.4531 95.7758C65.3432 101.256 78.2643 93.8501 78.2643 93.8501L72.3803 86.3732Z" fill="#9F5B53"/>
<path opacity="0.2" d="M72.3803 86.3732C72.3803 86.3732 61.5631 90.2959 63.4531 95.7758C65.3432 101.256 78.2643 93.8501 78.2643 93.8501L72.3803 86.3732Z" fill="black"/>
<path d="M91.0785 74.296C85.0756 75.5679 69.8008 85.9691 69.8008 85.9691L74.9716 98.3672L88.8081 93.8026L91.0785 74.296Z" fill="#6F9200"/>
<path d="M114.508 314.319L107.019 318.622L98.0327 302.337L105.522 298.022L114.508 314.319Z" fill="#9F5B53"/>
<path d="M106.104 317.659L114.425 312.369C114.558 312.273 114.72 312.228 114.884 312.241C115.047 312.254 115.2 312.325 115.316 312.441L120.345 317.659C120.56 317.913 120.665 318.242 120.639 318.574C120.612 318.906 120.455 319.214 120.202 319.43L119.988 319.573C117.088 321.344 115.507 322.152 111.893 324.458C109.67 325.861 100.232 330.937 96.7488 331.186C93.2659 331.436 92.8737 328.131 94.2882 327.62C101.42 324.958 104.238 321.546 105.153 318.86C105.329 318.365 105.663 317.943 106.104 317.659Z" fill="#263238"/>
<path opacity="0.2" d="M105.522 298.022L98.0327 302.337L102.669 310.729L110.157 306.426L105.522 298.022Z" fill="black"/>
<path d="M84.6122 123.223C84.6122 123.223 60.1011 204.495 61.4444 228.649C62.9184 255.133 98.52 310.848 98.52 310.848L111.94 302.372C111.94 302.372 86.7875 247.419 85.8484 227.092C87.2392 197.683 117.813 126.254 117.813 126.254L84.6122 123.223Z" fill="#263238"/>
<path opacity="0.2" d="M104.071 151.752C96.6535 156.293 93.7174 175.633 95.2865 185.452C99.2924 173.018 103.869 160.762 107.53 151.36C106.97 151.116 106.355 151.024 105.748 151.092C105.141 151.161 104.562 151.389 104.071 151.752Z" fill="black"/>
<path d="M97.0339 312.084L112.856 302.051L110.264 297.594L93.6699 307.709L97.0339 312.084Z" fill="#263238"/>
<path d="M104.392 320.405C103.918 320.75 103.349 320.941 102.763 320.952C102.577 320.928 102.401 320.856 102.251 320.744C102.1 320.631 101.982 320.482 101.908 320.31C101.854 320.211 101.827 320.101 101.827 319.989C101.827 319.877 101.854 319.766 101.908 319.668C102.502 318.753 105.664 318.61 106.02 318.61C106.056 318.605 106.093 318.614 106.123 318.633C106.153 318.653 106.176 318.682 106.187 318.717C106.21 318.748 106.222 318.785 106.222 318.824C106.222 318.862 106.21 318.9 106.187 318.931C105.64 319.482 105.039 319.975 104.392 320.405ZM102.466 319.668C102.383 319.712 102.313 319.778 102.264 319.858C102.236 319.894 102.221 319.938 102.221 319.983C102.221 320.028 102.236 320.072 102.264 320.108C102.306 320.232 102.384 320.341 102.487 320.421C102.591 320.502 102.716 320.55 102.847 320.559C103.887 320.378 104.83 319.835 105.509 319.026C104.464 319.053 103.433 319.271 102.466 319.668Z" fill="#6F9200"/>
<path d="M106.128 318.978H106.033C105.046 319.073 102.692 318.479 102.395 317.611C102.353 317.467 102.361 317.312 102.417 317.172C102.473 317.032 102.574 316.915 102.704 316.839C102.821 316.739 102.958 316.664 103.105 316.619C103.252 316.574 103.407 316.559 103.56 316.577C104.749 316.684 106.14 318.574 106.187 318.693C106.209 318.722 106.221 318.758 106.221 318.794C106.221 318.831 106.209 318.866 106.187 318.895L106.128 318.978ZM103.013 317.112H102.942C102.728 317.29 102.764 317.397 102.776 317.445C102.954 317.956 104.559 318.503 105.617 318.574C105.201 318.039 104.285 317.017 103.501 316.946C103.33 316.931 103.158 316.973 103.013 317.065V317.112Z" fill="#6F9200"/>
<path d="M130.829 324.114H122.508L121.818 304.821H130.151L130.829 324.114Z" fill="#9F5B53"/>
<path d="M121.355 323.151H131.471C131.635 323.152 131.794 323.21 131.921 323.313C132.049 323.417 132.137 323.561 132.172 323.721L133.825 331.139C133.863 331.297 133.868 331.461 133.84 331.621C133.813 331.781 133.752 331.934 133.663 332.07C133.574 332.206 133.458 332.322 133.322 332.411C133.186 332.501 133.034 332.561 132.874 332.589C132.783 332.601 132.691 332.601 132.6 332.589C129.331 332.53 126.942 332.327 122.829 332.327C120.297 332.327 112.666 332.601 109.171 332.601C105.676 332.601 105.213 329.142 106.651 328.821C113.07 327.43 117.896 325.492 119.952 323.638C120.341 323.303 120.843 323.129 121.355 323.151Z" fill="#263238"/>
<path opacity="0.2" d="M130.151 304.833H121.818L122.175 314.782H130.508L130.151 304.833Z" fill="black"/>
<path d="M95.9761 124.816C95.9761 124.816 102.764 204.459 106.27 228.59C110.122 255.074 118.347 312.857 118.347 312.857H133.587C133.587 312.857 130.472 257.546 129.034 231.526C127.382 201.808 126.585 127.324 126.585 127.324L95.9761 124.816Z" fill="#263238"/>
<path d="M116.517 313.178H134.49V307.805L115.839 307.46L116.517 313.178Z" fill="#263238"/>
<path d="M118.597 324.613C118.029 324.658 117.463 324.507 116.993 324.185C116.843 324.056 116.727 323.892 116.656 323.707C116.586 323.522 116.562 323.323 116.588 323.127C116.581 323.013 116.609 322.899 116.669 322.801C116.728 322.703 116.816 322.626 116.921 322.58C117.848 322.105 120.487 323.769 120.832 323.947C120.866 323.964 120.894 323.992 120.911 324.026C120.928 324.061 120.934 324.1 120.927 324.137C120.922 324.176 120.906 324.212 120.88 324.242C120.855 324.271 120.822 324.293 120.785 324.304C120.068 324.483 119.335 324.587 118.597 324.613ZM117.409 322.889C117.323 322.865 117.233 322.865 117.147 322.889C117.147 322.889 117.028 322.961 117.028 323.127C117.01 323.256 117.024 323.388 117.07 323.511C117.116 323.633 117.191 323.742 117.29 323.828C118.22 324.259 119.28 324.314 120.25 323.983C119.365 323.446 118.383 323.087 117.361 322.925L117.409 322.889Z" fill="#6F9200"/>
<path d="M120.725 324.316H120.63C119.774 323.852 118.11 322.021 118.252 321.142C118.282 320.994 118.363 320.861 118.48 320.766C118.597 320.67 118.743 320.618 118.894 320.619C119.043 320.599 119.194 320.611 119.337 320.654C119.48 320.697 119.613 320.77 119.726 320.868C120.689 321.653 120.915 324.054 120.915 324.161C120.916 324.198 120.908 324.235 120.891 324.268C120.875 324.301 120.85 324.33 120.82 324.351L120.725 324.316ZM119.049 320.94H118.954C118.704 320.94 118.68 321.082 118.668 321.142C118.561 321.677 119.619 323.068 120.487 323.709C120.425 322.763 120.082 321.856 119.5 321.106C119.374 320.999 119.214 320.94 119.049 320.94Z" fill="#6F9200"/>
<path d="M89.6167 137.499L110.954 137.761V132.554H89.6167V137.499Z" fill="black"/>
<path d="M112.57 132.554V137.773L127.156 137.951V132.554H112.57Z" fill="black"/>
<path d="M87.9999 132.554H81.7949L81.2124 137.392L87.9999 137.476V132.554Z" fill="black"/>
<path d="M102.466 131.603H94.0742V137.654H102.466V131.603Z" fill="white"/>
<path d="M82.1636 131.817L127.548 134.825C130.033 112.822 137.272 90.1889 139.435 82.189C139.589 81.6357 139.518 81.0441 139.237 80.543C138.957 80.042 138.49 79.6722 137.937 79.5144C135.691 78.8606 133.361 78.3257 131.019 77.7551C120.406 75.5282 109.643 74.086 98.8173 73.4401C96.2112 73.2003 93.5835 73.4873 91.0907 74.2841C84.2676 93.5886 82.6628 117.184 82.1636 131.817Z" fill="#6F9200"/>
<path opacity="0.6" d="M135.192 97.226C134.764 98.8665 134.3 100.59 133.848 102.373C131.014 113.035 128.909 123.877 127.548 134.825L82.1636 131.817C82.4977 118.13 83.9568 104.493 86.5261 91.0448C91.0669 80.6317 102.455 76.1147 102.455 76.1147C102.455 76.1147 103.715 78.8011 109.361 79.5857C115.007 80.3702 122.544 78.611 122.544 78.611C131.328 85.553 133.575 98.3077 133.575 98.3077L135.192 97.226Z" fill="white"/>
<path opacity="0.2" d="M137.616 88.5723C136.535 92.3524 135.239 97.0597 133.848 102.373C128.88 95.3836 133.313 85.2321 133.313 85.2321C135.035 85.9162 136.527 87.0744 137.616 88.5723Z" fill="black"/>
<path d="M122.853 76.3643C118.954 79.9304 109.409 78.5871 109.409 78.5871C109.409 78.5871 103.465 76.9586 104.654 75.0923C108.22 74.5218 109.872 72.8814 110.597 70.7774C110.978 69.4784 111.099 68.1172 110.954 66.7714C110.954 66.4386 110.894 66.1058 110.847 65.7848C110.799 65.4639 110.728 64.9527 110.657 64.5367L122.461 55.7878C122.033 57.3807 121.581 59.3539 121.272 61.4579C120.44 66.4148 120.178 72.1563 122.175 75.3895C122.368 75.7365 122.595 76.0631 122.853 76.3643Z" fill="#9F5B53"/>
<path opacity="0.2" d="M120.879 71.669C116.576 71.1935 113.367 68.4119 110.668 64.5368L120.642 65.3689C120.548 67.4719 120.627 69.579 120.879 71.669Z" fill="black"/>
<path d="M63.3821 93.6956C62.3955 99.7936 66.0329 101.577 80.3924 118.516C80.3924 118.516 79.4771 121.273 79.917 121.939C80.3568 122.605 88.7133 131.056 88.7133 131.056L95.8456 121.737C95.8456 121.737 90.6153 115.33 88.9392 114.165C88.2379 113.678 84.9214 113.808 84.9214 113.808C84.9214 113.808 72.7848 93.2082 70.3717 91.3063C67.9586 89.4044 64.0359 89.654 63.3821 93.6956Z" fill="#9F5B53"/>
<path d="M145.034 103.431C145.034 103.431 152.772 113.785 159.964 112.037C167.155 110.29 174.561 103.716 174.561 103.716C174.561 103.716 177.937 105.832 179.518 105.797C181.099 105.761 189.432 104.334 189.432 104.334L185.533 95.4549C185.533 95.4549 178.294 95.9304 176.38 95.8828C174.466 95.8353 172.124 98.8546 172.124 98.8546C172.124 98.8546 160.677 101.755 159.048 101.684C157.42 101.612 151.786 95.3598 151.786 95.3598L145.034 103.431Z" fill="#9F5B53"/>
<path d="M137.901 79.5025C144.546 82.6288 157.777 98.2483 157.777 98.2483L147.91 109.624L133.586 98.2602C133.586 98.2602 132.172 89.2023 133.313 85.1845C134.051 82.7686 135.695 80.7322 137.901 79.5025Z" fill="#6F9200"/>
<path opacity="0.2" d="M97.0339 312.084L112.856 302.051L110.264 297.594L93.6699 307.709L97.0339 312.084Z" fill="black"/>
<path opacity="0.2" d="M116.517 313.178H134.49V307.805L115.839 307.46L116.517 313.178Z" fill="black"/>
<path d="M101.385 50.4625C101.299 50.8163 101.32 51.1874 101.445 51.5292C101.57 51.8709 101.794 52.1679 102.088 52.3828C102.382 52.5976 102.732 52.7207 103.096 52.7364C103.46 52.7521 103.82 52.6598 104.131 52.4711C104.442 52.2824 104.69 52.0057 104.845 51.6761C104.999 51.3464 105.052 50.9785 104.997 50.6187C104.942 50.2589 104.782 49.9233 104.537 49.6544C104.292 49.3854 103.973 49.1951 103.619 49.1074C103.384 49.0489 103.139 49.0376 102.899 49.0741C102.658 49.1106 102.428 49.1942 102.22 49.3202C102.012 49.4461 101.832 49.6119 101.688 49.8079C101.545 50.004 101.442 50.2264 101.385 50.4625Z" fill="#263238"/>
<path d="M129.747 37.6364C129.747 37.6364 132.648 48.7626 127.097 53.7433C121.545 58.724 119.346 37.6364 119.346 37.6364H129.747Z" fill="#263238"/>
<path d="M129.212 60.1267C129.094 60.5313 128.951 60.9282 128.784 61.3154C127.626 63.9765 125.502 66.1001 122.841 67.2589C120.439 68.3362 117.721 68.4762 115.221 67.6512C113.438 67.0427 111.855 65.9573 110.645 64.513C106.782 60.091 107.198 55.2768 107.245 47.1104C107.224 45.1998 107.692 43.3156 108.606 41.6374C109.52 39.9592 110.848 38.5431 112.464 37.5239C114.08 36.5048 115.931 35.9167 117.839 35.8157C119.747 35.7148 121.649 36.1042 123.364 36.947C131.114 40.7152 131.447 52.9113 129.212 60.1267Z" fill="#9F5B53"/>
<path d="M119.453 50.2011C119.358 50.8548 119.714 51.3897 120.166 51.4492C120.618 51.5086 120.975 50.9618 121.022 50.2605C121.07 49.5591 120.749 49.0718 120.321 49.0123C119.893 48.9529 119.501 49.5235 119.453 50.2011Z" fill="#263238"/>
<path d="M126.954 50.7121C126.871 51.3659 127.239 51.9008 127.667 51.9602C128.095 52.0197 128.487 51.4729 128.535 50.7715C128.582 50.0702 128.261 49.5828 127.821 49.5234C127.382 49.464 127.001 50.0583 126.954 50.7121Z" fill="#263238"/>
<path d="M124.552 50.8548C125.205 52.9573 126.15 54.9579 127.358 56.7983C126.879 57.0922 126.342 57.2793 125.784 57.347C125.226 57.4147 124.66 57.3613 124.125 57.1905L124.552 50.8548Z" fill="#892B29"/>
<path d="M129.949 47.6571C129.889 47.6951 129.819 47.7153 129.747 47.7153C129.676 47.7153 129.606 47.6951 129.545 47.6571C129.155 47.3585 128.699 47.1565 128.216 47.0676C127.732 46.9788 127.235 47.0056 126.764 47.146C126.667 47.181 126.561 47.1769 126.468 47.1347C126.375 47.0925 126.302 47.0155 126.264 46.9201C126.245 46.8726 126.236 46.8218 126.237 46.7706C126.239 46.7195 126.25 46.6691 126.271 46.6225C126.292 46.5759 126.322 46.534 126.36 46.4994C126.398 46.4647 126.442 46.438 126.49 46.4209C127.08 46.2318 127.706 46.1871 128.316 46.2905C128.926 46.394 129.503 46.6425 129.997 47.0152C130.04 47.0429 130.076 47.0787 130.105 47.1208C130.134 47.1629 130.153 47.2102 130.163 47.2601C130.173 47.31 130.173 47.3613 130.163 47.4112C130.153 47.461 130.133 47.5082 130.104 47.5502C130.063 47.5994 130.01 47.6365 129.949 47.6571Z" fill="#263238"/>
<path d="M118.157 47.146C118.079 47.1418 118.004 47.1126 117.943 47.0628C117.881 46.9806 117.853 46.8771 117.867 46.7748C117.88 46.6724 117.933 46.5795 118.015 46.516C118.503 46.1333 119.077 45.874 119.688 45.7602C120.298 45.6464 120.927 45.6814 121.521 45.8622C121.569 45.8794 121.614 45.9061 121.651 45.9407C121.689 45.9754 121.719 46.0172 121.74 46.0638C121.761 46.1105 121.773 46.1608 121.774 46.212C121.775 46.2631 121.766 46.314 121.747 46.3615C121.71 46.4568 121.637 46.5338 121.543 46.576C121.45 46.6182 121.344 46.6223 121.248 46.5873C120.774 46.46 120.276 46.4453 119.795 46.5444C119.314 46.6434 118.863 46.8535 118.478 47.1579C118.427 47.178 118.372 47.1873 118.316 47.1852C118.261 47.1832 118.207 47.1698 118.157 47.146Z" fill="#263238"/>
<path d="M113.866 37.3274L114.247 40.8935C113.631 41.1708 113.144 41.6703 112.882 42.292C112.619 42.9136 112.601 43.6115 112.832 44.2456C113.949 47.3006 112.143 51.9722 109.789 53.7552C109.789 53.7552 109.789 52.4477 108.6 52.733C107.412 53.0182 107.673 59.8652 109.789 63.1698C109.789 63.1698 106.579 60.1623 104.856 52.9588C103.263 46.2902 103.144 40.7508 104.547 38.207L113.866 37.3274Z" fill="#263238"/>
<path d="M103.215 53.5769C104.003 55.4792 105.512 56.9922 107.412 57.7849C109.943 58.8191 111.513 56.5962 111.085 54.0881C110.68 51.8295 108.897 48.4893 106.235 48.5606C105.653 48.5785 105.084 48.7421 104.581 49.0365C104.079 49.3309 103.658 49.7467 103.358 50.2458C103.057 50.7448 102.887 51.3112 102.862 51.8932C102.837 52.4752 102.959 53.0541 103.215 53.5769Z" fill="#9F5B53"/>
<path d="M124.077 59.3421C123.452 60.3432 122.9 61.388 122.425 62.4684L121.819 62.302C119.097 61.565 118.074 60.3169 117.777 59.1638C117.64 58.5975 117.64 58.0066 117.777 57.4402C117.851 57.1213 117.967 56.8135 118.122 56.5249C119.603 57.7122 121.322 58.5676 123.162 59.0331C123.721 59.2589 124.077 59.3421 124.077 59.3421Z" fill="#263238"/>
<path d="M123.162 59.033L122.639 59.9364C120.083 59.2351 118.371 58.3911 117.777 57.3926C117.851 57.0736 117.967 56.7659 118.122 56.4773C119.598 57.6816 121.317 58.5533 123.162 59.033Z" fill="white"/>
<path d="M121.818 62.302C119.096 61.565 118.074 60.3168 117.777 59.1638C118.804 59.4691 119.769 59.9519 120.63 60.5902C121.195 61.0223 121.611 61.621 121.818 62.302Z" fill="#DE5753"/>
<path d="M101.73 40.4061C101.605 40.9158 101.635 41.4507 101.815 41.9434C101.995 42.436 102.318 42.8642 102.741 43.1736C103.164 43.4831 103.67 43.66 104.194 43.6819C104.718 43.7038 105.237 43.5698 105.685 43.2968C106.133 43.0237 106.49 42.624 106.71 42.1481C106.931 41.6722 107.005 41.1416 106.924 40.6234C106.843 40.1052 106.61 39.6227 106.254 39.237C105.899 38.8513 105.437 38.5798 104.927 38.4567C104.245 38.2919 103.525 38.4046 102.925 38.7701C102.326 39.1356 101.896 39.724 101.73 40.4061Z" fill="#263238"/>
<path d="M102.027 44.4358C101.941 44.7895 101.962 45.1607 102.087 45.5024C102.213 45.8442 102.436 46.1412 102.73 46.356C103.024 46.5709 103.374 46.6939 103.738 46.7097C104.102 46.7254 104.462 46.633 104.773 46.4443C105.084 46.2556 105.332 45.979 105.487 45.6493C105.641 45.3197 105.694 44.9517 105.639 44.5919C105.584 44.2321 105.424 43.8966 105.179 43.6276C104.934 43.3587 104.615 43.1683 104.261 43.0807C103.786 42.9658 103.283 43.0437 102.865 43.2976C102.446 43.5515 102.145 43.9606 102.027 44.4358Z" fill="#263238"/>
<path d="M101.777 46.9558C101.691 47.3095 101.712 47.6807 101.837 48.0224C101.963 48.3642 102.186 48.6612 102.48 48.8761C102.774 49.0909 103.124 49.214 103.488 49.2297C103.852 49.2454 104.212 49.1531 104.523 48.9644C104.834 48.7757 105.082 48.499 105.237 48.1694C105.391 47.8397 105.444 47.4717 105.389 47.1119C105.334 46.7521 105.174 46.4166 104.929 46.1476C104.684 45.8787 104.365 45.6884 104.011 45.6007C103.536 45.4858 103.033 45.5638 102.615 45.8176C102.196 46.0715 101.895 46.4806 101.777 46.9558Z" fill="#263238"/>
<path d="M103.132 39.7522C103.132 39.7522 102.372 34.9974 109.908 31.5145C117.444 28.0317 125.48 32.4655 130.532 29.4224C135.584 26.3793 135.417 39.4432 124.755 40.6319C117.54 41.2757 110.271 40.9801 103.132 39.7522Z" fill="#263238"/>
<path d="M118.086 29.6127C117.897 30.3772 117.939 31.1807 118.208 31.9211C118.476 32.6614 118.959 33.3052 119.595 33.7704C120.23 34.2357 120.989 34.5015 121.776 34.5339C122.563 34.5664 123.342 34.3641 124.014 33.9527C124.685 33.5413 125.219 32.9395 125.548 32.2238C125.877 31.508 125.985 30.7107 125.859 29.9332C125.734 29.1558 125.38 28.4332 124.842 27.8576C124.305 27.2819 123.608 26.8791 122.841 26.7004C121.824 26.4603 120.754 26.6318 119.864 27.1773C118.973 27.7228 118.334 28.5981 118.086 29.6127Z" fill="#263238"/>
<path d="M106.996 30.9797C106.809 31.7415 106.854 32.5415 107.123 33.2781C107.392 34.0147 107.874 34.6548 108.507 35.1171C109.14 35.5795 109.897 35.8432 110.681 35.875C111.464 35.9067 112.239 35.705 112.908 35.2954C113.577 34.8858 114.109 34.2867 114.437 33.5743C114.765 32.8619 114.873 32.0681 114.749 31.2938C114.625 30.5194 114.274 29.7993 113.74 29.2249C113.206 28.6505 112.514 28.2476 111.75 28.0674C110.734 27.8274 109.664 27.9988 108.773 28.5443C107.883 29.0898 107.244 29.9652 106.996 30.9797Z" fill="#263238"/>
<path d="M129.271 34.1535C129.148 34.6626 129.178 35.1969 129.358 35.6889C129.538 36.1809 129.86 36.6085 130.283 36.9178C130.706 37.227 131.211 37.404 131.734 37.4264C132.258 37.4488 132.776 37.3156 133.224 37.0436C133.671 36.7717 134.029 36.3731 134.25 35.8983C134.471 35.4235 134.547 34.8937 134.468 34.3759C134.388 33.8581 134.157 33.3754 133.803 32.9888C133.45 32.6023 132.99 32.3292 132.481 32.204C132.142 32.1206 131.79 32.105 131.445 32.1579C131.101 32.2108 130.77 32.3313 130.471 32.5124C130.173 32.6935 129.914 32.9317 129.708 33.2133C129.502 33.4949 129.354 33.8144 129.271 34.1535Z" fill="#263238"/>
<path d="M114.128 28.6735C114.004 29.1827 114.035 29.717 114.215 30.209C114.395 30.701 114.716 31.1286 115.139 31.4378C115.562 31.7471 116.067 31.9241 116.591 31.9465C117.114 31.9689 117.632 31.8357 118.08 31.5637C118.528 31.2917 118.885 30.8932 119.106 30.4184C119.328 29.9436 119.404 29.4138 119.324 28.896C119.245 28.3781 119.014 27.8955 118.66 27.5089C118.306 27.1223 117.846 26.8492 117.337 26.7241C116.999 26.6407 116.647 26.6251 116.302 26.678C115.957 26.7309 115.626 26.8514 115.328 27.0325C115.03 27.2136 114.77 27.4518 114.564 27.7334C114.358 28.015 114.21 28.3345 114.128 28.6735Z" fill="#263238"/>
<path d="M103.429 34.0703C103.306 34.5795 103.336 35.1138 103.516 35.6058C103.696 36.0978 104.018 36.5254 104.441 36.8346C104.863 37.1439 105.369 37.3209 105.892 37.3433C106.415 37.3657 106.934 37.2325 107.381 36.9605C107.829 36.6885 108.186 36.29 108.408 35.8152C108.629 35.3404 108.705 34.8106 108.625 34.2927C108.546 33.7749 108.315 33.2922 107.961 32.9057C107.608 32.5191 107.147 32.246 106.639 32.1209C106.3 32.0375 105.948 32.0219 105.603 32.0748C105.258 32.1277 104.927 32.2482 104.629 32.4293C104.331 32.6104 104.071 32.8486 103.866 33.1302C103.66 33.4118 103.511 33.7313 103.429 34.0703Z" fill="#263238"/>
<path d="M125.587 30.0881C125.398 30.8574 125.442 31.6653 125.713 32.4097C125.983 33.1541 126.468 33.8016 127.107 34.2704C127.745 34.7392 128.508 35.0082 129.299 35.0434C130.091 35.0786 130.875 34.8785 131.552 34.4683C132.23 34.0581 132.771 33.4563 133.106 32.7389C133.442 32.0215 133.557 31.2206 133.438 30.4376C133.318 29.6546 132.97 28.9246 132.435 28.3398C131.901 27.755 131.206 27.3416 130.437 27.152C129.404 26.9007 128.314 27.0685 127.406 27.6188C126.497 28.169 125.843 29.0569 125.587 30.0881Z" fill="#263238"/>
<path d="M183.072 100.768L199.31 116.852C201.687 116.756 202.614 111.241 202.995 106.795L200.689 102.373L202.995 97.8917H210.056L211.672 102.813L210.793 106.795L207.298 108.483C207.298 108.483 204.849 128.525 201.759 128.525C198.668 128.525 178.591 111.003 178.591 111.003L183.072 100.768Z" fill="#EEC1BB"/>
<path d="M178.686 112.501L187.601 119.788L194.805 108.412L183.025 100.768L178.686 112.501Z" fill="#263238"/>
<path opacity="0.2" d="M183.667 116.578L185.045 109.624L187.601 119.788L183.667 116.578Z" fill="black"/>
<path d="M184.677 135.253V146.581L153.889 148.721L152.534 136.774L184.677 135.253Z" fill="#EEC1BB"/>
<path d="M215.666 324.28L208.867 325.481L206.074 316.209L203.53 307.698L211.375 304.964L213.646 315.186L215.666 324.28Z" fill="#EEC1BB"/>
<path opacity="0.2" d="M213.681 315.4L206.109 316.399L203.542 307.793L211.375 305.011L213.681 315.4Z" fill="black"/>
<path d="M218.246 324.351C218.212 324.334 218.184 324.306 218.167 324.272C218.15 324.238 218.144 324.199 218.151 324.161C218.151 324.054 218.353 321.653 219.339 320.868C219.455 320.77 219.589 320.697 219.735 320.654C219.88 320.611 220.033 320.599 220.183 320.619C220.333 320.619 220.478 320.671 220.593 320.767C220.708 320.862 220.786 320.995 220.813 321.142C220.992 322.021 219.327 323.852 218.436 324.316H218.341L218.246 324.351ZM219.577 321.106C218.996 321.856 218.652 322.763 218.591 323.709C219.446 323.068 220.504 321.677 220.397 321.142C220.397 321.082 220.397 320.94 220.112 320.94H220.017C219.855 320.941 219.699 321 219.577 321.106Z" fill="#263238"/>
<path d="M170.258 327.418H163.352L162.222 317.695L161.2 308.815L169.39 307.448L169.854 318.016L170.258 327.418Z" fill="#EEC1BB"/>
<path opacity="0.2" d="M169.854 318.099L162.222 317.766L161.2 308.851L169.39 307.472L169.854 318.099Z" fill="black"/>
<path d="M214.323 310.004L203.149 311.977C191.868 283.864 183.833 260.411 178.186 240.94C175.132 230.432 172.588 221.089 170.757 212.804L171.102 243.401V312.345H160.083C132.469 180.816 152.035 150.848 152.035 150.848L185.081 145.345C186.378 151.459 187.295 157.649 187.827 163.877L189.325 174.836L202.234 241.546L214.323 310.004Z" fill="#6F9200"/>
<g opacity="0.3">
<path d="M214.323 310.004L203.149 311.977C191.868 283.864 183.833 260.411 178.186 240.94C175.132 230.432 172.588 221.089 170.757 212.804L171.102 243.401V312.345H160.083C132.469 180.816 152.035 150.848 152.035 150.848L185.081 145.345C186.378 151.459 187.295 157.649 187.827 163.877L189.325 174.836L202.234 241.546L214.323 310.004Z" fill="white"/>
</g>
<path opacity="0.2" d="M178.175 240.904C175.12 230.396 172.742 221.053 170.912 212.768C171.071 202.956 171.785 193.162 173.051 183.431C173.051 183.431 177.889 221.303 178.175 240.904Z" fill="black"/>
<path d="M187.458 150.967L149.348 154.129C150.537 146.652 151.084 133.981 148.659 125.398C148.29 124.114 147.886 122.759 147.47 121.309C146.947 119.645 146.353 117.858 145.687 115.948C145.176 114.474 144.617 112.905 143.999 111.193C143.833 110.706 143.643 110.207 143.452 109.707C142.834 108.031 142.169 106.248 141.432 104.37C145.854 103.117 150.353 102.148 154.9 101.47C159.728 100.71 164.599 100.254 169.485 100.103C175.797 100.103 183.06 100.685 183.06 100.685C183.06 100.685 184.082 100.911 184.736 106.878C185.295 112.525 188.754 130.569 187.458 150.967Z" fill="#263238"/>
<path d="M169.081 102.076C168.762 101.915 168.433 101.776 168.094 101.66C167.334 101.066 166.43 99.6391 166.478 96.18C166.503 94.8217 166.626 93.467 166.846 92.1265L157.218 90.3316C157.218 90.3316 160.499 96.81 157.765 101.624C156.826 102.04 156.255 102.635 156.362 103.419C157.087 108.982 167.69 110.076 167.69 110.076C167.69 110.076 174.882 105.274 169.081 102.076Z" fill="#EEC1BB"/>
<path opacity="0.2" d="M166.846 92.1265C165.717 95.1815 163.209 97.2974 158.811 98.1414C158.957 95.4447 158.409 92.7556 157.218 90.3316L166.846 92.1265Z" fill="black"/>
<path d="M171.756 59.8889C171.756 59.8889 170.567 49.6423 179.993 53.0063C189.42 56.3704 188.195 73.4995 192.724 79.1578C197.253 84.816 200.641 84.1979 200.641 84.1979C200.641 84.1979 194.983 88.8814 189.562 86.29C184.142 83.6986 171.756 59.8889 171.756 59.8889Z" fill="#263238"/>
<path d="M171.625 61.4698L173.86 59.9483C174.689 60.1445 175.466 60.5168 176.139 61.0398C176.812 61.5628 177.364 62.2243 177.759 62.9795C178.608 64.5036 179.111 66.1959 179.233 67.9364L176.213 69.2321L171.625 61.4698Z" fill="#6F9200"/>
<path d="M160.344 61.2441C160.344 61.2441 148.992 60.4476 147.423 69.6482C146.964 72.2611 147.257 74.9508 148.27 77.403C149.282 79.8552 150.972 81.9687 153.141 83.4966L160.344 61.2441Z" fill="#263238"/>
<path d="M161.675 66.0226C153.295 66.0226 150.597 70.5278 149.99 79.1697C149.242 89.9631 151.643 97.6421 162.127 95.3241C176.32 92.1741 175.559 66.0107 161.675 66.0226Z" fill="#EEC1BB"/>
<path d="M155.375 78.6941C154.725 79.9462 153.927 81.1156 152.998 82.177C153.244 82.5226 153.581 82.7933 153.971 82.9591C154.361 83.1248 154.79 83.1792 155.209 83.1161L155.375 78.6941Z" fill="#D4827D"/>
<path d="M160.487 78.0523C160.487 78.7417 160.832 79.3123 161.283 79.3123C161.735 79.3123 162.127 78.7774 162.151 78.1236C162.175 77.4698 161.806 76.8636 161.343 76.8636C160.879 76.8636 160.487 77.3153 160.487 78.0523Z" fill="#263238"/>
<path d="M161.557 76.8636L160.071 76.2336C160.071 76.2336 160.796 77.4698 161.557 76.8636Z" fill="#263238"/>
<path d="M151.952 77.6719C151.952 78.3614 152.296 78.8606 152.748 78.932C153.2 79.0033 153.592 78.397 153.616 77.7433C153.64 77.0895 153.271 76.4832 152.808 76.4832C152.344 76.4832 151.964 76.9825 151.952 77.6719Z" fill="#263238"/>
<path d="M152.998 76.4832L151.512 75.8532C151.512 75.8532 152.237 77.137 152.998 76.4832Z" fill="#263238"/>
<path d="M164.219 73.88C164.16 73.8818 164.102 73.8699 164.048 73.8451C163.994 73.8204 163.947 73.7835 163.91 73.7373C163.485 73.3168 162.97 72.9979 162.404 72.8045C161.838 72.611 161.235 72.5479 160.642 72.6199C160.533 72.6304 160.425 72.5994 160.339 72.5332C160.253 72.467 160.196 72.3705 160.178 72.2633C160.171 72.2102 160.175 72.1563 160.19 72.1047C160.204 72.0531 160.229 72.0049 160.262 71.9629C160.295 71.9209 160.336 71.8859 160.383 71.8599C160.43 71.8339 160.481 71.8175 160.535 71.8116C161.265 71.7192 162.007 71.7977 162.703 72.0412C163.398 72.2846 164.027 72.6862 164.54 73.2143C164.617 73.2921 164.659 73.3966 164.659 73.5055C164.659 73.6144 164.617 73.719 164.54 73.7968C164.496 73.8325 164.444 73.8584 164.389 73.8728C164.334 73.8871 164.276 73.8896 164.219 73.88Z" fill="#263238"/>
<path d="M151.156 72.9646C151.088 72.9651 151.021 72.9492 150.961 72.9181C150.901 72.887 150.849 72.8418 150.811 72.7863C150.78 72.7414 150.759 72.6907 150.748 72.6373C150.737 72.584 150.738 72.529 150.749 72.4757C150.76 72.4224 150.782 72.3719 150.813 72.3272C150.844 72.2826 150.884 72.2446 150.93 72.2157C151.45 71.8212 152.053 71.5498 152.693 71.4222C153.334 71.2945 153.995 71.3138 154.627 71.4787C154.728 71.5163 154.811 71.592 154.857 71.6896C154.904 71.7873 154.911 71.8992 154.876 72.0018C154.839 72.1032 154.763 72.186 154.665 72.2326C154.568 72.2792 154.456 72.2859 154.353 72.2514C153.84 72.1344 153.308 72.1324 152.794 72.2454C152.28 72.3584 151.798 72.5837 151.381 72.9052C151.311 72.9414 151.234 72.9617 151.156 72.9646Z" fill="#263238"/>
<path d="M170.817 80.1444C170.817 80.1444 166.894 73.2618 167.476 67.9483C167.476 67.9483 150.834 61.1727 150.062 78.0404C150.062 78.0404 148.41 63.0746 162.828 62.718C177.247 62.3614 177.2 83.449 169.771 89.7491C169.771 89.7491 173.253 84.4475 170.817 80.1444Z" fill="#263238"/>
<path d="M158.882 60.6734C158.882 60.6734 151.916 59.3778 150.074 61.3035C148.232 63.2292 162.817 75.2826 170.151 76.1741C170.151 76.1741 173.063 84.0671 171.34 87.9423C171.34 87.9423 179.352 84.6258 179.043 72.1682C178.734 59.7106 165.373 55.7641 158.882 60.6734Z" fill="#263238"/>
<path d="M169.45 81.9155C169.532 80.9457 169.994 80.0476 170.735 79.4174C171.477 78.7871 172.438 78.4758 173.408 78.5515C176.011 78.8368 177.248 84.1621 170.793 85.4578C169.866 85.6361 169.343 84.7327 169.45 81.9155Z" fill="#EEC1BB"/>
<path d="M154.341 86.0998C154.915 87.129 155.416 88.1975 155.839 89.2974L156.445 89.1666C159.203 88.5604 160.285 87.3717 160.641 86.2305C160.808 85.6752 160.836 85.0877 160.725 84.5188C160.674 84.1939 160.578 83.8777 160.439 83.5797C158.9 84.7064 157.137 85.4888 155.268 85.8739C154.698 86.0284 154.341 86.0998 154.341 86.0998Z" fill="#263238"/>
<path d="M155.269 85.8739L155.744 86.8011C158.335 86.2305 160.083 85.4816 160.725 84.5188C160.674 84.1939 160.578 83.8777 160.439 83.5797C158.9 84.7064 157.137 85.4888 155.269 85.8739Z" fill="white"/>
<path d="M156.445 89.1667C159.203 88.5604 160.285 87.3717 160.641 86.2306C159.6 86.4864 158.61 86.9207 157.717 87.5144C157.133 87.9206 156.689 88.4978 156.445 89.1667Z" fill="#DE5753"/>
<path d="M218.293 324.304C218.255 324.296 218.219 324.275 218.194 324.245C218.168 324.215 218.153 324.177 218.151 324.137C218.142 324.1 218.147 324.06 218.164 324.025C218.181 323.99 218.21 323.963 218.246 323.947C218.543 323.757 221.23 322.105 222.145 322.58C222.249 322.628 222.337 322.706 222.398 322.803C222.459 322.9 222.491 323.012 222.49 323.127C222.514 323.324 222.489 323.524 222.416 323.709C222.344 323.894 222.226 324.057 222.074 324.185C221.608 324.507 221.045 324.659 220.481 324.613C219.743 324.588 219.01 324.484 218.293 324.304ZM218.864 324.03C219.838 324.361 220.902 324.306 221.836 323.876C221.932 323.788 222.006 323.679 222.051 323.557C222.097 323.435 222.113 323.304 222.097 323.175C222.097 323.008 222.026 322.937 221.967 322.937C221.885 322.913 221.799 322.913 221.717 322.937C220.705 323.116 219.736 323.487 218.864 324.03Z" fill="#263238"/>
<path d="M171.934 324.304C171.895 324.296 171.86 324.275 171.834 324.245C171.808 324.215 171.793 324.177 171.791 324.137C171.783 324.1 171.787 324.06 171.805 324.025C171.822 323.99 171.851 323.963 171.887 323.947C172.184 323.757 174.87 322.105 175.786 322.58C175.89 322.628 175.978 322.706 176.039 322.803C176.1 322.9 176.132 323.012 176.13 323.127C176.155 323.324 176.13 323.524 176.057 323.709C175.984 323.894 175.866 324.057 175.714 324.185C175.249 324.507 174.686 324.659 174.121 324.613C173.383 324.588 172.65 324.484 171.934 324.304ZM172.505 324.03C173.479 324.361 174.542 324.306 175.476 323.876C175.573 323.788 175.646 323.679 175.692 323.557C175.737 323.435 175.753 323.304 175.738 323.175C175.738 323.008 175.667 322.937 175.607 322.937C175.526 322.913 175.439 322.913 175.358 322.937C174.345 323.116 173.377 323.487 172.505 324.03Z" fill="#263238"/>
<path d="M171.886 324.351C171.852 324.334 171.825 324.306 171.807 324.272C171.79 324.238 171.785 324.199 171.791 324.161C171.791 324.054 171.993 321.653 172.98 320.868C173.095 320.77 173.23 320.697 173.375 320.654C173.521 320.611 173.674 320.599 173.824 320.619C173.973 320.619 174.118 320.671 174.233 320.767C174.348 320.862 174.426 320.995 174.454 321.142C174.632 322.021 172.968 323.852 172.077 324.316H171.981L171.886 324.351ZM173.218 321.106C172.637 321.856 172.293 322.763 172.231 323.709C173.087 323.068 174.145 321.677 174.038 321.142C174.038 321.082 174.038 320.94 173.753 320.94H173.658C173.496 320.941 173.34 321 173.218 321.106Z" fill="#263238"/>
<path d="M217.722 323.151H207.607C207.44 323.15 207.279 323.206 207.149 323.31C207.019 323.413 206.929 323.559 206.893 323.721L205.253 331.139C205.215 331.297 205.209 331.461 205.237 331.621C205.265 331.781 205.325 331.934 205.414 332.07C205.504 332.206 205.62 332.322 205.755 332.411C205.891 332.501 206.044 332.561 206.204 332.589C206.291 332.601 206.379 332.601 206.465 332.589C209.746 332.53 212.124 332.327 216.237 332.327C218.769 332.327 226.412 332.601 229.907 332.601C233.401 332.601 233.853 329.142 232.427 328.821C226.008 327.43 221.17 325.492 219.125 323.638C218.736 323.305 218.235 323.13 217.722 323.151Z" fill="#6F9200"/>
<path d="M171.364 323.151H161.248C161.081 323.15 160.92 323.206 160.79 323.31C160.66 323.413 160.57 323.559 160.534 323.721L158.894 331.139C158.856 331.297 158.851 331.461 158.878 331.621C158.906 331.781 158.966 331.934 159.055 332.07C159.145 332.206 159.261 332.322 159.396 332.411C159.532 332.501 159.685 332.561 159.845 332.589C159.932 332.601 160.02 332.601 160.107 332.589C163.387 332.53 165.765 332.327 169.878 332.327C172.41 332.327 180.053 332.601 183.548 332.601C187.043 332.601 187.494 329.142 186.068 328.821C179.649 327.43 174.811 325.492 172.766 323.638C172.377 323.305 171.876 323.13 171.364 323.151Z" fill="#6F9200"/>
<path opacity="0.2" d="M147.411 121.333C146.888 119.669 146.294 117.882 145.628 115.972C145.117 114.498 144.558 112.929 143.94 111.217C144.243 110.475 144.701 109.806 145.283 109.256C145.283 109.256 147.779 116.091 147.411 121.333Z" fill="black"/>
<path d="M141.396 104.453C137.081 106.581 124.196 127.039 127.869 133.921C131.542 140.804 148.077 146.854 148.077 146.854C148.077 146.854 141.182 150.646 141.42 151.609C141.658 152.572 147.364 156.364 148.077 156.364C150.06 154.849 151.92 153.18 153.64 151.371C154.46 150.444 153.747 146.545 153.747 146.545C149.087 142.753 136.285 133.624 135.5 131.579C134.716 129.535 145.509 115.449 145.509 115.449C145.509 115.449 145.818 109.6 144.523 106.985C143.227 104.37 141.396 104.453 141.396 104.453Z" fill="#EEC1BB"/>
<path d="M140.612 124.067L131.019 116.863C134.752 111.692 137.7 104.287 141.396 104.453C145.093 104.62 145.711 109.767 145.652 115.972L140.612 124.067Z" fill="#263238"/>
<path d="M365.003 54.623C365.003 54.623 356.242 49.7612 349.098 53.4343C345.806 55.0985 344.652 59.3778 343.951 62.6824C342.988 67.3183 342.834 72.085 342.168 76.7685C341.934 78.7512 341.368 80.6802 340.492 82.4743C339.303 84.8517 336.795 87.2291 337.294 90.1414C337.722 92.709 340.349 94.2543 342.644 94.9556C348.718 96.8219 355.6 95.7877 361.877 96.1443C366.929 96.4653 371.814 98.177 376.878 98.2959C378.32 98.421 379.767 98.1323 381.05 97.4638C385.936 94.5515 383.808 87.0627 382.239 82.9022C380.896 79.3361 381.883 75.77 381.455 72.0494C381.144 68.788 380.376 65.5866 379.172 62.5397C376.629 56.5368 371.541 53.3511 365.003 54.623Z" fill="#263238"/>
<path d="M322.935 117.517C324.563 117.375 340.658 106.926 340.658 106.926L341.229 102.563L341.835 97.8085C339.457 97.7253 325.015 109.256 322.946 110.266C318.75 112.334 319.226 117.826 322.935 117.517Z" fill="#EBB376"/>
<path opacity="0.2" d="M336.319 109.696L340.658 106.914L341.264 102.242L336.319 109.696Z" fill="black"/>
<path d="M383.309 99.6272C383.309 99.6272 376.105 106.95 375.214 138.082L342.964 135.478C342.964 135.478 337.829 113.262 341.775 97.5589C355.567 94.6566 369.874 95.3691 383.309 99.6272Z" fill="#6F9200"/>
<path opacity="0.4" d="M383.309 99.6272C383.309 99.6272 376.105 106.95 375.214 138.082L342.964 135.478C342.964 135.478 337.829 113.262 341.775 97.5589C355.567 94.6566 369.874 95.3691 383.309 99.6272Z" fill="white"/>
<path d="M314.697 314.854L321.14 315.995L323.791 307.198L326.204 299.127L318.763 296.524L316.599 306.224L314.697 314.854Z" fill="#EBB376"/>
<path opacity="0.2" d="M316.563 306.426L323.755 307.377L326.18 299.21L318.751 296.571L316.563 306.426Z" fill="black"/>
<path d="M357.752 317.825H364.314L365.383 308.601L366.358 300.173L358.584 298.889L358.144 308.91L357.752 317.825Z" fill="#EBB376"/>
<path opacity="0.2" d="M358.144 308.993L365.383 308.672L366.358 300.221L358.584 298.901L358.144 308.993Z" fill="black"/>
<path d="M315.957 301.302L326.56 303.181C337.259 276.518 344.878 254.265 350.251 235.793C353.152 225.832 355.565 216.964 357.3 209.095L356.979 238.123V303.502H367.428C393.579 178.688 374.81 142.183 374.81 142.183L342.952 140.162C341.764 144.834 341.621 157.398 341.098 162.676L339.684 173.148L327.428 236.423L315.957 301.302Z" fill="#263238"/>
<path opacity="0.2" d="M350.251 235.793C353.151 225.832 355.41 216.964 357.145 209.095C356.996 199.788 356.317 190.497 355.113 181.267C355.113 181.267 350.524 217.13 350.251 235.793Z" fill="black"/>
<path d="M375.214 138.082L342.964 135.478V140.958L375.689 143.847L375.214 138.082Z" fill="black"/>
<path d="M351.868 137.903V140.435C351.866 140.932 352.051 141.412 352.385 141.78C352.72 142.147 353.18 142.376 353.675 142.42L357.669 142.765H357.812C358.309 142.763 358.787 142.577 359.155 142.242C359.358 142.057 359.521 141.831 359.631 141.579C359.742 141.327 359.798 141.055 359.797 140.78V138.236C359.801 137.738 359.618 137.257 359.283 136.889C358.948 136.521 358.486 136.293 357.99 136.251L353.996 135.906C353.722 135.885 353.446 135.921 353.187 136.011C352.927 136.101 352.689 136.243 352.487 136.43C352.285 136.616 352.124 136.842 352.013 137.094C351.903 137.345 351.845 137.617 351.844 137.891L351.868 137.903ZM352.89 140.435V139.603L354.008 139.686C354.101 139.704 354.197 139.702 354.29 139.68C354.382 139.658 354.469 139.616 354.544 139.559C354.62 139.501 354.682 139.428 354.728 139.345C354.773 139.261 354.801 139.169 354.808 139.074C354.816 138.98 354.803 138.884 354.772 138.795C354.74 138.705 354.69 138.623 354.624 138.554C354.559 138.485 354.48 138.431 354.392 138.394C354.304 138.358 354.21 138.341 354.115 138.343L352.997 138.248H352.843V137.868C352.84 137.734 352.867 137.601 352.92 137.478C352.973 137.355 353.052 137.244 353.152 137.154C353.326 136.992 353.556 136.903 353.794 136.905H353.889L357.871 137.25C358.113 137.268 358.338 137.378 358.502 137.556C358.665 137.735 358.754 137.97 358.751 138.212V140.756C358.751 140.89 358.724 141.023 358.671 141.145C358.618 141.268 358.54 141.379 358.442 141.469C358.343 141.56 358.226 141.628 358.099 141.669C357.972 141.71 357.837 141.723 357.705 141.707L353.722 141.363C353.498 141.329 353.294 141.218 353.144 141.048C352.994 140.879 352.908 140.662 352.902 140.435H352.89Z" fill="white"/>
<path d="M366.643 96.3939C367.234 96.5969 367.72 97.0239 367.999 97.5826C364.864 99.8828 361.056 101.078 357.169 100.982C356.076 100.982 353.805 97.8917 355.505 96.9408C355.82 96.7752 356.145 96.6322 356.48 96.5128C357.205 95.9304 358.097 94.5158 358.037 91.1161C358.003 89.777 357.872 88.4422 357.645 87.1221L367.155 85.2915C367.155 85.2915 363.921 91.6748 366.643 96.3939Z" fill="#EBB376"/>
<path opacity="0.2" d="M357.645 87.0984C357.872 88.4185 358.003 89.7533 358.037 91.0924C364.444 91.0924 367.119 85.2678 367.119 85.2678L357.645 87.0984Z" fill="black"/>
<path d="M324.659 311.323L312.237 308.946V317.778C312.237 317.778 305.889 328.322 303.143 329.035C302.391 329.234 301.744 329.717 301.339 330.381C300.934 331.045 300.801 331.841 300.968 332.601H314.685L318.014 328.619L318.739 332.601H321.378C321.378 332.601 324.159 324.577 321.378 318.943L324.659 311.323Z" fill="#263238"/>
<path d="M368.51 310.218L356.088 311.18L357.181 317.825C357.181 317.825 350.822 328.369 348.076 329.082C347.322 329.279 346.675 329.761 346.271 330.427C345.868 331.093 345.739 331.889 345.912 332.648H359.63L362.958 328.666L363.671 332.648H366.31C366.31 332.648 369.092 324.625 366.31 318.99L368.51 310.218Z" fill="#263238"/>
<path d="M360.902 60.305C352.581 60.305 349.978 64.7269 349.371 73.2261C348.611 83.865 350.964 91.4133 361.258 89.1547C375.309 86.076 374.608 60.3168 360.902 60.305Z" fill="#EBB376"/>
<path d="M354.709 72.7745C354.056 74.0063 353.258 75.1557 352.332 76.1979C352.573 76.5384 352.904 76.8053 353.288 76.969C353.672 77.1326 354.094 77.1867 354.507 77.1251L354.709 72.7745Z" fill="#D58745"/>
<path d="M359.761 72.1088C359.761 72.7864 360.105 73.2975 360.557 73.2975C361.009 73.2975 361.389 72.7745 361.401 72.1088C361.413 71.4431 361.068 70.9201 360.617 70.8607C360.165 70.8012 359.785 71.4193 359.761 72.1088Z" fill="#263238"/>
<path d="M360.795 70.9201L359.333 70.3019C359.333 70.3019 360.046 71.5739 360.795 70.9201Z" fill="#263238"/>
<path d="M351.333 71.7522C351.333 72.4298 351.677 72.9409 352.129 73.0003C352.581 73.0598 352.961 72.4773 352.973 71.8116C352.985 71.146 352.64 70.6229 352.188 70.5635C351.737 70.5041 351.356 71.0746 351.333 71.7522Z" fill="#263238"/>
<path d="M352.367 70.5872L350.917 69.9691C350.917 69.9691 351.618 71.2291 352.367 70.5872Z" fill="#263238"/>
<path d="M363.434 68.0553C363.372 68.0558 363.311 68.0421 363.255 68.0153C363.2 67.9885 363.151 67.9494 363.113 67.9008C362.694 67.4901 362.188 67.1786 361.632 66.9893C361.077 66.8 360.486 66.7378 359.903 66.8072C359.85 66.8138 359.796 66.8098 359.745 66.7954C359.693 66.781 359.645 66.7565 359.603 66.7233C359.561 66.6902 359.526 66.649 359.5 66.6021C359.474 66.5553 359.458 66.5038 359.452 66.4506C359.443 66.3981 359.446 66.3445 359.459 66.2929C359.472 66.2414 359.495 66.1931 359.527 66.1508C359.559 66.1086 359.6 66.0733 359.646 66.0472C359.692 66.0211 359.744 66.0046 359.796 65.9989C360.516 65.9015 361.249 65.9733 361.936 66.2085C362.623 66.4437 363.246 66.836 363.755 67.354C363.789 67.3953 363.814 67.4428 363.829 67.4939C363.844 67.545 363.849 67.5986 363.844 67.6517C363.838 67.7047 363.822 67.7561 363.797 67.8029C363.771 67.8498 363.737 67.8911 363.695 67.9246C363.664 67.9642 363.624 67.9964 363.579 68.019C363.534 68.0416 363.484 68.054 363.434 68.0553Z" fill="#263238"/>
<path d="M350.56 67.1282C350.471 67.1316 350.383 67.1052 350.31 67.0533C350.237 67.0013 350.184 66.9266 350.158 66.841C350.132 66.7554 350.135 66.6636 350.167 66.58C350.199 66.4965 350.258 66.4259 350.334 66.3793C350.851 65.9918 351.449 65.7263 352.083 65.6028C352.717 65.4793 353.371 65.5009 353.996 65.6661C354.095 65.706 354.175 65.7826 354.219 65.88C354.263 65.9774 354.268 66.0881 354.233 66.1891C354.215 66.2392 354.186 66.2852 354.15 66.3243C354.114 66.3634 354.07 66.395 354.021 66.4171C353.973 66.4392 353.92 66.4515 353.867 66.4531C353.813 66.4548 353.76 66.4459 353.71 66.4268C353.206 66.3097 352.681 66.3065 352.176 66.4176C351.67 66.5286 351.195 66.7511 350.786 67.0687C350.716 67.1049 350.639 67.1252 350.56 67.1282Z" fill="#263238"/>
<path d="M369.912 74.2247C369.912 74.2247 366.061 67.4491 366.643 62.2069C366.643 62.2069 350.287 55.5145 349.467 72.1207C349.467 72.1207 347.886 57.3689 362.079 57.0479C376.272 56.727 376.189 77.4936 368.854 83.6748C368.854 83.6748 372.301 78.4683 369.912 74.2247Z" fill="#263238"/>
<path d="M368.569 75.972C368.602 75.4967 368.73 75.0328 368.945 74.6077C369.16 74.1825 369.458 73.8048 369.821 73.4967C370.185 73.1887 370.606 72.9566 371.061 72.8142C371.515 72.6717 371.994 72.6218 372.468 72.6674C375.024 72.9408 376.236 78.1949 369.877 79.4549C368.961 79.6332 368.51 78.7417 368.569 75.972Z" fill="#EBB376"/>
<path d="M354.245 79.2409C354.65 80.2495 354.979 81.2865 355.232 82.3434H355.802C358.394 82.1176 359.523 81.1547 359.998 80.1681C360.322 79.3865 360.364 78.5167 360.117 77.7075C358.58 78.5576 356.877 79.0645 355.125 79.1934C354.566 79.2409 354.245 79.2409 354.245 79.2409Z" fill="#263238"/>
<path d="M355.101 79.1697L355.422 80.0731C357.859 79.8592 359.547 79.3837 360.248 78.5754C360.237 78.2726 360.185 77.9728 360.094 77.6838C358.556 78.5339 356.853 79.0409 355.101 79.1697Z" fill="white"/>
<path d="M355.778 82.3197C358.37 82.0939 359.499 81.131 359.974 80.1444C358.99 80.2411 358.032 80.515 357.145 80.9527C356.56 81.2571 356.083 81.7344 355.778 82.3197Z" fill="#DE5753"/>
<path opacity="0.2" d="M368.414 123.841C370.281 125.303 373.799 123.972 376.379 122.331C377.567 115.675 378.031 110.646 379.16 107.175C377.306 108.958 365.003 121.155 368.414 123.841Z" fill="black"/>
<path d="M354.887 117.993C354.833 117.984 354.781 117.961 354.739 117.925C354.697 117.89 354.666 117.843 354.649 117.791C354.483 117.173 350.703 102.54 353.758 95.8354C353.772 95.8013 353.793 95.7704 353.819 95.7446C353.846 95.7189 353.877 95.6987 353.911 95.6853C353.946 95.672 353.983 95.6658 354.02 95.6671C354.057 95.6683 354.093 95.6771 354.126 95.6927C354.191 95.726 354.24 95.7826 354.265 95.8511C354.289 95.9196 354.286 95.9947 354.257 96.0612C351.654 101.755 354.257 113.82 355.006 116.923C359.927 107.009 370.376 96.6318 370.459 96.5248C370.483 96.4989 370.513 96.4783 370.546 96.4642C370.578 96.4501 370.614 96.4428 370.649 96.4428C370.685 96.4428 370.72 96.4501 370.753 96.4642C370.785 96.4783 370.815 96.4989 370.839 96.5248C370.889 96.5778 370.917 96.648 370.917 96.721C370.917 96.7939 370.889 96.8641 370.839 96.9171C370.732 97.0241 359.868 107.818 355.137 117.838C355.114 117.885 355.079 117.925 355.034 117.952C354.99 117.979 354.939 117.993 354.887 117.993Z" fill="white"/>
<path d="M354.744 122.843C354.196 122.845 353.659 122.684 353.201 122.381C352.744 122.077 352.387 121.645 352.176 121.138C351.965 120.632 351.909 120.074 352.016 119.536C352.122 118.997 352.386 118.503 352.774 118.115C353.162 117.726 353.657 117.462 354.195 117.356C354.734 117.249 355.291 117.305 355.798 117.516C356.305 117.727 356.737 118.084 357.04 118.542C357.344 118.999 357.505 119.536 357.502 120.085C357.502 120.816 357.212 121.518 356.694 122.035C356.177 122.552 355.476 122.843 354.744 122.843ZM354.744 118.421C354.415 118.421 354.094 118.518 353.82 118.701C353.546 118.884 353.333 119.144 353.207 119.448C353.081 119.752 353.048 120.087 353.112 120.41C353.176 120.732 353.335 121.029 353.568 121.262C353.8 121.494 354.097 121.653 354.42 121.717C354.743 121.781 355.077 121.748 355.381 121.622C355.685 121.496 355.945 121.283 356.128 121.009C356.311 120.736 356.409 120.414 356.409 120.085C356.396 119.652 356.215 119.241 355.905 118.939C355.594 118.637 355.178 118.468 354.744 118.468V118.421Z" fill="#263238"/>
<path d="M355.505 109.791L352.462 103.847C352.462 103.847 352.902 98.4386 352.462 98.0106C352.022 97.5827 345.972 94.9913 343.797 94.9913C341.621 94.9913 341.419 102.944 342.287 103.847C343.155 104.751 348.658 106.581 348.658 106.581L354.174 110.706L355.505 109.791Z" fill="#EBB376"/>
<path d="M383.309 99.6273C388.658 104.941 372.611 125.957 367.119 125.957C361.627 125.957 348.658 106.581 348.658 106.581L352.462 103.871C352.462 103.871 365.407 117.422 366.524 117.47C367.642 117.517 376.248 104.394 377.817 102.813C379.41 101.386 381.279 100.301 383.309 99.6273Z" fill="#EBB376"/>
<path d="M249.473 100.721L243.244 97.1548C242.469 95.8671 241.516 94.6947 240.415 93.6719C239.131 92.709 233.853 91.2945 233.853 91.2945C231.904 90.8665 230.87 91.4728 230.287 92.6139L227.327 99.342C226.84 100.531 226.876 101.077 227.327 101.161C227.327 101.161 237.598 103.705 240.142 101.482L246.465 105.155L249.473 100.721Z" fill="#EEC1BB"/>
<path d="M285.194 80.3345C285.359 81.2639 285.172 82.2214 284.671 83.021C283.101 85.9452 276.718 98.379 273.639 102.361C268.647 108.828 264.605 112.287 261.503 112.501C256.368 112.869 241.2 106.141 241.2 106.141L247.203 97.1547C247.203 97.1547 256.189 101.291 260.005 100.424C263.821 99.5559 271.119 79.6094 273.723 74.605C273.723 74.605 284.112 75.6748 285.194 80.3345Z" fill="#6F9200"/>
<path opacity="0.2" d="M268.837 107.936C267.932 109.137 266.781 110.13 265.461 110.849C267.648 106.094 270.965 87.8116 270.965 87.8116L268.837 107.936Z" fill="black"/>
<path d="M310.263 323.591H320.557C320.725 323.592 320.887 323.651 321.016 323.757C321.146 323.863 321.236 324.009 321.271 324.173L322.947 331.709C323.014 332.034 322.95 332.372 322.77 332.65C322.59 332.928 322.307 333.124 321.984 333.195C321.89 333.213 321.793 333.213 321.699 333.195C318.37 333.195 315.945 332.946 311.773 332.946C309.193 332.946 301.431 333.207 297.877 333.207C294.323 333.207 293.859 329.7 295.309 329.38C301.835 327.953 306.745 325.98 308.837 324.102C309.232 323.76 309.741 323.578 310.263 323.591Z" fill="#6F9200"/>
<path opacity="0.6" d="M310.263 323.591H320.557C320.725 323.592 320.887 323.651 321.016 323.757C321.146 323.863 321.236 324.009 321.271 324.173L322.947 331.709C323.014 332.034 322.95 332.372 322.77 332.65C322.59 332.928 322.307 333.124 321.984 333.195C321.89 333.213 321.793 333.213 321.699 333.195C318.37 333.195 315.945 332.946 311.773 332.946C309.193 332.946 301.431 333.207 297.877 333.207C294.323 333.207 293.859 329.7 295.309 329.38C301.835 327.953 306.745 325.98 308.837 324.102C309.232 323.76 309.741 323.578 310.263 323.591Z" fill="white"/>
<path d="M266.59 323.317H276.885C277.051 323.321 277.212 323.38 277.341 323.486C277.47 323.591 277.561 323.737 277.598 323.9L279.274 331.448C279.316 331.608 279.324 331.776 279.297 331.939C279.27 332.103 279.21 332.259 279.119 332.398C279.028 332.537 278.909 332.655 278.77 332.745C278.631 332.836 278.475 332.896 278.311 332.922H278.038C274.709 332.862 272.284 332.66 268.1 332.66C265.521 332.66 257.758 332.934 254.204 332.934C250.65 332.934 250.186 329.368 251.636 329.094C258.162 327.668 263.084 325.695 265.176 323.828C265.566 323.486 266.071 323.304 266.59 323.317Z" fill="#6F9200"/>
<path opacity="0.6" d="M266.59 323.317H276.885C277.051 323.321 277.212 323.38 277.341 323.486C277.47 323.591 277.561 323.737 277.598 323.9L279.274 331.448C279.316 331.608 279.324 331.776 279.297 331.939C279.27 332.103 279.21 332.259 279.119 332.398C279.028 332.537 278.909 332.655 278.77 332.745C278.631 332.836 278.475 332.896 278.311 332.922H278.038C274.709 332.862 272.284 332.66 268.1 332.66C265.521 332.66 257.758 332.934 254.204 332.934C250.65 332.934 250.186 329.368 251.636 329.094C258.162 327.668 263.084 325.695 265.176 323.828C265.566 323.486 266.071 323.304 266.59 323.317Z" fill="white"/>
<path d="M315.684 132.863H270.727C266.46 156.198 253.075 250.973 262.68 324.565H277.895C277.895 324.565 276.48 212.827 289.925 176.691C291.47 196.019 307.173 324.494 307.173 324.494H322.626C322.626 324.494 320.308 276.161 317.99 230.515C316.575 201.761 315.743 138.759 315.684 132.863Z" fill="#263238"/>
<path opacity="0.2" d="M315.684 132.863H270.727C266.46 156.198 253.075 250.973 262.68 324.565H277.895C277.895 324.565 276.48 212.827 289.925 176.691C291.47 196.019 307.173 324.494 307.173 324.494H322.626C322.626 324.494 320.308 276.161 317.99 230.515C316.575 201.761 315.743 138.759 315.684 132.863Z" fill="white"/>
<path opacity="0.2" d="M289.913 176.715C287.707 183.048 286.03 189.552 284.896 196.162C283.636 178.961 288.665 160.715 288.665 160.715L289.913 176.715Z" fill="black"/>
<path d="M276.551 138.308L269.776 138.236L270.358 133.398H276.551V138.308Z" fill="black"/>
<path d="M301.062 133.398H315.6V138.783L301.062 138.617V133.398Z" fill="black"/>
<path d="M299.446 138.593L278.168 138.331V133.398H299.446V138.593Z" fill="black"/>
<path d="M289.306 138.914H284.278C284.107 138.914 283.938 138.88 283.78 138.814C283.622 138.748 283.478 138.652 283.358 138.53C283.237 138.409 283.142 138.264 283.078 138.106C283.013 137.947 282.981 137.777 282.982 137.606V134.385C282.982 134.041 283.119 133.712 283.362 133.469C283.605 133.226 283.935 133.089 284.278 133.089H289.306C289.65 133.089 289.98 133.226 290.223 133.469C290.466 133.712 290.602 134.041 290.602 134.385V137.606C290.604 137.777 290.571 137.947 290.507 138.106C290.442 138.264 290.347 138.409 290.227 138.53C290.106 138.652 289.963 138.748 289.805 138.814C289.647 138.88 289.478 138.914 289.306 138.914ZM284.278 134.278C284.25 134.278 284.223 134.289 284.203 134.309C284.182 134.329 284.171 134.356 284.171 134.385V137.606C284.171 137.636 284.182 137.664 284.202 137.686C284.222 137.708 284.249 137.722 284.278 137.725H289.306C289.336 137.722 289.363 137.708 289.383 137.686C289.403 137.664 289.414 137.636 289.413 137.606V134.385C289.413 134.356 289.402 134.329 289.382 134.309C289.362 134.289 289.335 134.278 289.306 134.278H284.278Z" fill="white"/>
<path d="M289.912 136.453H287.309C287.152 136.453 287 136.391 286.889 136.279C286.777 136.168 286.715 136.017 286.715 135.859C286.715 135.701 286.777 135.55 286.889 135.439C287 135.327 287.152 135.265 287.309 135.265H289.912C290.07 135.265 290.221 135.327 290.333 135.439C290.444 135.55 290.507 135.701 290.507 135.859C290.507 136.017 290.444 136.168 290.333 136.279C290.221 136.391 290.07 136.453 289.912 136.453Z" fill="white"/>
<path d="M322.697 78.1949C322.174 80.0612 321.591 82.498 321.021 85.4579C320.355 88.8219 319.69 92.8635 319.119 97.4281C317.765 109.368 317.229 121.386 317.514 133.398L268.92 132.982C268.92 132.982 266.911 101.458 273.675 74.6051L319.44 74.0345C319.955 74.0167 320.466 74.1209 320.933 74.3384C321.4 74.556 321.809 74.8808 322.126 75.2864C322.444 75.692 322.661 76.1669 322.76 76.6723C322.859 77.1778 322.838 77.6995 322.697 78.1949Z" fill="#6F9200"/>
<path opacity="0.2" d="M321.021 85.4579C320.355 88.8219 319.167 97.6896 318.584 102.254C314.103 100.079 313.77 88.3108 313.77 88.3108C315.743 88.0255 320.07 84.5783 321.021 85.4579Z" fill="black"/>
<path d="M292.135 78.8369C292.135 78.8369 301.752 78.9201 305.211 74.926C303.036 73.0835 302.097 69.4223 301.811 65.4996C301.631 62.7265 301.682 59.9432 301.966 57.1787C302.037 56.2753 302.144 55.4432 302.251 54.6824L291.672 64.8102C291.672 64.9885 291.779 65.1668 291.838 65.357C291.993 65.8919 292.135 66.4506 292.242 66.9855C292.552 68.3023 292.605 69.6666 292.397 71.0033C292.352 71.9148 292.164 72.8134 291.838 73.666C291.493 74.2247 290.792 74.6764 289.235 75.14C288.177 77.0895 292.135 78.8369 292.135 78.8369Z" fill="#EEC1BB"/>
<path opacity="0.2" d="M291.791 73.6185C295.048 72.4298 299.066 67.4491 301.538 63.0153C301.43 61.0457 301.558 59.0703 301.919 57.1312L291.791 65.3094C291.946 65.8444 292.088 66.403 292.195 66.938C292.505 68.2548 292.558 69.6191 292.35 70.9558C292.305 71.8672 292.116 72.7659 291.791 73.6185Z" fill="black"/>
<path d="M281.199 37.5414C281.199 37.5414 278.144 48.7865 283.707 53.8741C289.271 58.9618 291.719 37.6364 291.719 37.6364L281.199 37.5414Z" fill="#263238"/>
<path d="M300.29 64.9765C298.804 66.7148 296.788 67.9168 294.552 68.3979C292.317 68.8789 289.985 68.6124 287.915 67.6392C285.227 66.4238 283.102 64.2308 281.972 61.5055C281.804 61.119 281.661 60.7219 281.544 60.3168C279.357 52.9825 279.809 40.6438 287.725 36.9113C289.065 36.2689 290.519 35.8967 292.003 35.8161C293.487 35.7355 294.972 35.9479 296.374 36.4413C297.776 36.9347 299.067 37.6994 300.173 38.6918C301.279 39.6841 302.179 40.8846 302.822 42.2248C303.6 43.8223 303.983 45.5834 303.939 47.36C303.88 55.6809 304.248 60.5427 300.29 64.9765Z" fill="#EEC1BB"/>
<path d="M291.494 50.4031C291.577 51.0687 291.208 51.5918 290.757 51.6631C290.305 51.7344 289.936 51.1519 289.901 50.4744C289.865 49.7968 290.186 49.2857 290.626 49.2144C291.066 49.143 291.446 49.7255 291.494 50.4031Z" fill="#263238"/>
<path d="M283.886 50.8191C283.969 51.4848 283.589 52.0078 283.161 52.0791C282.733 52.1504 282.329 51.568 282.293 50.8904C282.257 50.2128 282.59 49.7017 283.018 49.6304C283.446 49.5591 283.85 50.1772 283.886 50.8191Z" fill="#263238"/>
<path d="M286.323 51.0212C285.631 53.1253 284.656 55.125 283.422 56.9647C283.903 57.2697 284.445 57.4661 285.01 57.54C285.574 57.6139 286.148 57.5636 286.691 57.3927L286.323 51.0212Z" fill="#D4827D"/>
<path d="M280.938 47.8474C281.004 47.8769 281.077 47.887 281.148 47.8765C281.22 47.866 281.287 47.8352 281.342 47.7879C281.724 47.477 282.172 47.2575 282.652 47.1462C283.132 47.035 283.631 47.0349 284.112 47.146C284.16 47.1644 284.211 47.1725 284.263 47.1696C284.314 47.1668 284.365 47.1532 284.411 47.1297C284.457 47.1061 284.497 47.0732 284.53 47.033C284.562 46.9928 284.586 46.9463 284.599 46.8964C284.615 46.848 284.622 46.7969 284.618 46.7459C284.615 46.6949 284.601 46.6452 284.578 46.5997C284.554 46.5542 284.522 46.5139 284.483 46.4811C284.444 46.4484 284.398 46.4238 284.349 46.409C283.742 46.2568 283.106 46.2517 282.497 46.3944C281.887 46.537 281.32 46.8233 280.843 47.2292C280.801 47.2607 280.765 47.3004 280.739 47.3457C280.712 47.3911 280.695 47.4414 280.689 47.4935C280.682 47.5456 280.686 47.5985 280.7 47.6491C280.714 47.6997 280.738 47.7469 280.771 47.7879L280.938 47.8474Z" fill="#263238"/>
<path d="M292.825 47.2887C292.904 47.2863 292.979 47.2569 293.039 47.2055C293.072 47.1662 293.097 47.1206 293.112 47.0714C293.127 47.0222 293.132 46.9705 293.126 46.9194C293.121 46.8683 293.105 46.8189 293.08 46.7741C293.054 46.7293 293.02 46.69 292.98 46.6587C292.49 46.2549 291.909 45.9768 291.288 45.8483C290.666 45.7199 290.023 45.7451 289.414 45.9217C289.316 45.9569 289.235 46.0284 289.189 46.1213C289.142 46.2143 289.133 46.3216 289.164 46.421C289.204 46.518 289.278 46.597 289.372 46.643C289.466 46.689 289.574 46.6989 289.675 46.6706C290.155 46.5485 290.658 46.5419 291.142 46.6514C291.625 46.7609 292.076 46.9834 292.457 47.3006C292.515 47.3254 292.579 47.3372 292.642 47.3352C292.706 47.3331 292.768 47.3173 292.825 47.2887Z" fill="#263238"/>
<path d="M297.283 37.4225L296.569 39.0034C299.303 39.8712 298.792 43.045 298.245 44.4952C297.057 47.574 298.875 52.3169 301.241 54.195C301.241 54.195 301.241 52.8637 302.43 53.1728C303.618 53.4818 303.285 60.4001 301.122 63.7165C301.122 63.7165 304.415 60.7091 306.233 53.4343C307.91 46.6943 308.088 41.0955 306.685 38.5042L297.283 37.4225Z" fill="#263238"/>
<path d="M307.886 53.9811C307.073 55.8977 305.534 57.4148 303.606 58.2009C301.039 59.2232 299.458 57.0122 299.921 54.4209C300.349 52.1267 302.192 48.7745 304.89 48.8815C305.473 48.9177 306.038 49.0964 306.536 49.4021C307.033 49.7078 307.448 50.131 307.744 50.6346C308.04 51.1382 308.208 51.7067 308.232 52.2902C308.257 52.8737 308.138 53.4543 307.886 53.9811Z" fill="#EEC1BB"/>
<path d="M286.917 59.6868C287.515 60.7249 288.035 61.8056 288.474 62.9201L289.092 62.7893C291.886 62.1593 292.967 60.935 293.324 59.7819C293.482 59.2126 293.506 58.6147 293.395 58.0345C293.337 57.7049 293.233 57.3849 293.086 57.0836C291.536 58.2392 289.757 59.0498 287.868 59.461C287.297 59.6155 286.917 59.6868 286.917 59.6868Z" fill="#263238"/>
<path d="M287.868 59.461L288.356 60.4001C290.983 59.7938 292.754 59.0212 293.396 58.0227C293.337 57.693 293.233 57.373 293.087 57.0717C291.538 58.2316 289.758 59.0463 287.868 59.461Z" fill="white"/>
<path d="M289.092 62.7894C291.886 62.1594 292.967 60.9351 293.324 59.782C292.267 60.043 291.265 60.4898 290.364 61.1015C289.77 61.5135 289.325 62.1051 289.092 62.7894Z" fill="#DE5753"/>
<path d="M281.2 37.5413C281.853 33.785 283.577 30.6706 285.562 27.0094L286.145 31.2769C287.086 29.6662 288.383 28.2919 289.937 27.2591L290.697 31.8475C291.589 29.8742 293.586 28.7331 296.189 28.0555L295.809 32.0139C296.968 30.2577 298.732 28.9886 300.766 28.4478L300.564 32.2041C300.857 31.7221 301.264 31.3194 301.749 31.0313C302.234 30.7433 302.782 30.5786 303.345 30.5518L306.685 38.4566L298.567 41.0718L282.781 41.6067L281.2 37.5413Z" fill="#263238"/>
<path d="M327.892 132.733L327.476 140.043C328.141 141.416 328.605 142.877 328.855 144.382C328.95 146.01 325.455 156.768 325.455 156.768L316.801 152.322C316.801 152.322 318.751 141.113 322.067 140.198L322.483 132.78L327.892 132.733Z" fill="#EEC1BB"/>
<path d="M322.673 76.3168C328.973 89.5946 335.927 102.397 334.239 110.516L329.687 138.914L320.926 138.557L323.874 112.525C326.608 107.77 318.81 97.2974 313.77 88.3345L322.673 76.3168Z" fill="#6F9200"/>
<path d="M323.184 110.278L341.978 120.929L338.376 124.221L321.639 117.244L323.184 110.278Z" fill="#EBB376"/>
<path d="M334.097 119.11L338.376 124.221C338.376 124.221 339.161 129.583 339.672 129.903C340.183 130.224 346.685 131.401 348.789 130.914C350.893 130.427 349.348 122.593 348.302 121.951C347.256 121.309 341.49 120.762 341.49 120.762L335.19 117.969L334.097 119.11Z" fill="#EBB376"/>
<path opacity="0.2" d="M231.108 206.622C226.472 196.102 222.097 187.021 222.097 187.021C221.961 185.149 222.142 183.268 222.632 181.457C223.296 181.031 224.028 180.722 224.796 180.542C224.796 180.542 230.43 189.398 231.108 206.622Z" fill="black"/>
<path d="M266.448 324.72L271.857 323.246C269.872 295.977 264.522 263.086 259.97 238.42C259.245 234.545 258.567 230.896 257.901 227.484C257.58 225.867 257.283 224.31 256.986 222.812C255.548 215.431 254.323 209.582 253.575 205.968L252.707 201.891L233.271 207.526L234.9 212.376L240.237 228.554L240.844 230.396L244.41 241.095L250.413 259.282C251.221 287.109 266.448 324.72 266.448 324.72Z" fill="#EBB376"/>
<path d="M219.304 323.4L224.891 322.865C227.803 293.291 227.922 256.488 227.518 230.907C227.518 226.937 227.375 223.24 227.304 219.888C227.304 219.71 227.304 219.555 227.304 219.389C227.137 212.732 226.971 207.431 226.84 204.078L226.674 200.025L206.561 202.272L207.809 210.593L209.64 222.884L210.008 225.261L211.197 233.582L214.561 256.06C210.698 283.698 219.304 323.4 219.304 323.4Z" fill="#EBB376"/>
<path opacity="0.2" d="M209.628 222.931L227.304 219.888C227.304 219.71 227.304 219.555 227.304 219.389C227.138 212.732 226.971 207.431 226.841 204.078L207.821 210.64L209.628 222.931Z" fill="black"/>
<path opacity="0.2" d="M255.583 215.431L236.98 218.581L234.9 212.376L253.586 205.933C254.062 208.275 254.739 211.484 255.583 215.431Z" fill="black"/>
<path d="M207.25 154.926C207.25 154.926 195.28 177.345 206.549 218.212L228.528 215.704V194.628L233.283 214.931L255.31 210.509C248.534 177.345 239.857 162.486 239.857 162.486L238.739 152.524L207.25 154.926Z" fill="#6F9200"/>
<path opacity="0.7" d="M207.25 154.926C207.25 154.926 195.28 177.345 206.549 218.212L228.528 215.704V194.628L233.283 214.931L255.31 210.509C248.534 177.345 239.857 162.486 239.857 162.486L238.739 152.524L207.25 154.926Z" fill="white"/>
<path d="M216.653 322.259C216.653 321.558 225.295 322.105 225.295 322.105C225.295 322.105 230.597 327.501 235.744 328.714C240.891 329.926 238.014 333.017 232.261 333.017H217.997C213.979 333.017 216.487 329.534 216.653 322.259Z" fill="#263238"/>
<path d="M229.824 324.316C228.581 324.16 227.374 323.79 226.258 323.222C226.226 323.209 226.197 323.189 226.175 323.163C226.162 323.134 226.156 323.104 226.156 323.073C226.156 323.043 226.162 323.012 226.175 322.984C226.175 322.901 226.923 320.892 228.1 320.405C228.273 320.322 228.462 320.28 228.653 320.28C228.844 320.28 229.033 320.322 229.206 320.405C229.598 320.583 229.788 320.833 229.776 321.118C229.764 321.403 229.134 322.033 228.433 322.402C229.086 322.292 229.757 322.366 230.371 322.616C230.596 322.741 230.763 322.95 230.834 323.198C230.897 323.354 230.91 323.526 230.871 323.69C230.833 323.853 230.746 324.001 230.62 324.114C230.387 324.273 230.105 324.345 229.824 324.316ZM227.042 323.127C228.314 323.662 229.895 324.137 230.299 323.805C230.299 323.805 230.442 323.686 230.359 323.353C230.32 323.221 230.23 323.11 230.109 323.044C229.107 322.775 228.05 322.788 227.054 323.079L227.042 323.127ZM228.588 320.75C228.465 320.75 228.344 320.774 228.231 320.821C227.557 321.269 227.041 321.918 226.757 322.675C228.029 322.188 229.265 321.487 229.289 321.13C229.289 321.011 229.099 320.904 228.98 320.845C228.861 320.769 228.727 320.72 228.588 320.702V320.75Z" fill="#6F9200"/>
<path d="M264.915 322.259C264.915 321.558 273.544 322.105 273.544 322.105C273.544 322.105 278.846 327.501 283.993 328.714C289.14 329.926 286.275 333.017 280.51 333.017H266.282C262.181 333.017 264.736 329.534 264.915 322.259Z" fill="#263238"/>
<path d="M278.085 324.316C276.842 324.16 275.636 323.79 274.519 323.222C274.504 323.217 274.49 323.21 274.478 323.2C274.465 323.189 274.455 323.177 274.448 323.163C274.436 323.134 274.43 323.104 274.43 323.073C274.43 323.043 274.436 323.012 274.448 322.984C274.448 322.901 275.209 320.892 276.374 320.405C276.549 320.323 276.739 320.281 276.932 320.281C277.125 320.281 277.316 320.323 277.491 320.405C277.883 320.583 278.074 320.833 278.062 321.118C278.05 321.403 277.42 322.033 276.718 322.402C277.368 322.294 278.034 322.368 278.644 322.616C278.759 322.674 278.86 322.756 278.94 322.856C279.02 322.957 279.077 323.074 279.108 323.198C279.172 323.353 279.186 323.524 279.15 323.688C279.114 323.851 279.029 324 278.906 324.114C278.666 324.279 278.374 324.351 278.085 324.316ZM275.292 323.127C276.564 323.662 278.145 324.137 278.549 323.804C278.549 323.804 278.692 323.686 278.608 323.353C278.591 323.287 278.56 323.225 278.517 323.172C278.474 323.118 278.42 323.075 278.359 323.044C277.353 322.773 276.291 322.785 275.292 323.079V323.127ZM276.837 320.75C276.719 320.75 276.602 320.774 276.493 320.821C275.812 321.264 275.291 321.914 275.007 322.675C276.29 322.188 277.515 321.487 277.539 321.13C277.539 321.011 277.348 320.904 277.23 320.845C277.111 320.769 276.977 320.72 276.837 320.702V320.75Z" fill="#6F9200"/>
<path opacity="0.2" d="M228.528 194.628C232.285 186.878 234.9 180.483 234.9 180.483C234.9 180.483 235.72 200.132 233.283 214.955L228.528 194.628Z" fill="black"/>
<path d="M220.933 58.7834C220.933 58.7834 211.898 54.2545 204.861 58.201C201.616 60.0316 200.641 64.3703 200.107 67.7106C199.322 72.4654 199.37 77.2202 198.918 81.975C198.77 83.9798 198.283 85.9451 197.48 87.7878C196.291 90.2365 194.579 95.6451 194.579 95.6451L200.011 96.7387L201.818 94.3613L202.199 97.1904L217.45 100.269L218.52 97.8917L219.589 100.757L223.857 100.079L225.366 96.6792L226.127 99.7223L232.344 98.7357L233.533 95.0269L234.983 98.3078L239.571 97.5708L239.464 86.5515C239.464 86.5515 238.799 79.3599 238.216 75.663C237.766 72.3812 236.853 69.1797 235.506 66.1534C232.713 60.2218 227.459 57.2262 220.933 58.7834Z" fill="#263238"/>
<path d="M236.671 100.899C241.426 101.838 259.09 118.242 257.343 125.862C255.595 133.481 241.164 143.55 241.164 143.55C241.164 143.55 248.796 145.452 248.82 146.426C248.843 147.401 244.279 152.596 243.613 152.774C241.312 151.813 239.087 150.681 236.956 149.386C235.934 148.697 235.613 144.738 235.613 144.738C239.179 139.877 249.152 127.764 249.378 125.588C249.604 123.413 235.566 112.572 235.566 112.572C235.566 112.572 233.759 106.997 234.377 104.144C234.995 101.291 236.671 100.899 236.671 100.899Z" fill="#EBB376"/>
<path d="M235.53 113.119C233.866 107.176 232.903 101.529 236.267 100.4C239.631 99.2707 257.83 116.947 257.461 125.089C257.188 131.152 243.458 142.634 243.458 142.634L239.595 138.676C239.595 138.676 248.594 126.528 248.819 125.113C249.045 123.698 235.53 113.119 235.53 113.119Z" fill="#6F9200"/>
<path opacity="0.3" d="M235.53 113.119C233.866 107.176 232.903 101.529 236.267 100.4C239.631 99.2707 257.83 116.947 257.461 125.089C257.188 131.152 243.458 142.634 243.458 142.634L239.595 138.676C239.595 138.676 248.51 126.575 248.819 125.113C249.128 123.651 235.53 113.119 235.53 113.119Z" fill="black"/>
<path opacity="0.2" d="M242.626 118.801L238.157 115.187L238.989 109.707L242.626 118.801Z" fill="black"/>
<path d="M207.25 150.325V154.938L238.704 152.525V147.08L207.25 150.325Z" fill="#263238"/>
<path d="M231.267 148.182L224.389 148.799L224.855 154.008L231.734 153.392L231.267 148.182Z" fill="white"/>
<path d="M217.612 148.402L216.057 148.482L216.462 156.424L218.017 156.345L217.612 148.402Z" fill="#6F9200"/>
<path opacity="0.6" d="M217.612 148.402L216.057 148.482L216.462 156.424L218.017 156.345L217.612 148.402Z" fill="white"/>
<path d="M236.82 146.297L235.265 146.377L235.67 154.319L237.225 154.239L236.82 146.297Z" fill="#6F9200"/>
<path opacity="0.6" d="M236.82 146.297L235.265 146.377L235.67 154.319L237.225 154.239L236.82 146.297Z" fill="white"/>
<path d="M238.656 147.627L207.203 150.349C206.454 138.652 208.392 131.389 201.426 110.551C200.832 108.733 200.392 105.024 199.679 102.979C203.934 102.005 205.456 102.064 209.878 101.327C214.544 100.496 219.263 99.9957 224 99.8293C230.121 99.8293 237.147 100.483 237.147 100.483C237.147 100.483 238.157 100.721 238.775 107.199C239.358 113.297 239.916 125.47 238.656 147.627Z" fill="#6F9200"/>
<path opacity="0.3" d="M238.656 147.627L207.215 150.349C206.787 143.752 207.5 138.795 206.359 131.14C205.555 125.084 204.195 119.115 202.294 113.309C202.02 112.418 201.628 111.181 201.319 110.242C200.725 108.412 200.392 105.095 199.679 103.039C204.029 102.052 205.456 102.112 209.878 101.375C214.545 100.553 219.264 100.056 224 99.8887C230.121 99.8887 237.147 100.543 237.147 100.543C237.147 100.543 238.157 100.78 238.775 107.259C239.358 113.285 239.916 125.47 238.656 147.627Z" fill="black"/>
<path d="M221.408 106.783C213.658 105.797 211.328 102.48 211.328 102.48C216.237 97.8442 212.16 89.7967 212.16 89.7967L221.492 91.5441C221.271 92.8406 221.148 94.1518 221.123 95.4668C221.052 101.137 223.607 101.184 223.607 101.184C225.248 104.204 221.408 106.783 221.408 106.783Z" fill="#EBB376"/>
<path opacity="0.2" d="M221.491 91.5441C221.356 92.1769 221.288 92.8225 221.289 93.4697L221.135 94.9794L212.16 89.7967L221.491 91.5441Z" fill="black"/>
<path d="M230.68 87.1221C230.597 87.4074 230.526 87.6808 230.431 87.9423C229.325 91.342 226.936 93.4222 222.728 93.5173C222.117 93.5399 221.505 93.516 220.897 93.446C220.505 93.446 220.089 93.3509 219.708 93.2795C205.349 90.9021 204.66 64.8458 218.52 64.0731C226.841 63.6096 229.801 67.9483 230.882 76.5189C231.454 80.0366 231.386 83.6287 230.68 87.1221Z" fill="#EBB376"/>
<path d="M225.438 76.3524C226.172 77.5631 227.051 78.6807 228.053 79.6808C227.827 80.0396 227.507 80.3293 227.128 80.5181C226.748 80.7068 226.324 80.7873 225.902 80.7506L225.438 76.3524Z" fill="#D58745"/>
<path d="M210.127 78.6586C210.127 78.6586 213.693 71.5858 212.778 66.3199C212.778 66.3199 228.968 58.6408 230.704 75.4015C230.704 75.4015 231.5 60.3882 217.129 60.8518C202.757 61.3154 203.958 82.3079 211.72 88.192C211.72 88.1563 207.952 83.0805 210.127 78.6586Z" fill="#263238"/>
<path d="M211.601 80.3465C211.469 79.3851 210.959 78.5158 210.186 77.9296C209.413 77.3434 208.438 77.0882 207.476 77.2202C204.897 77.6363 203.91 83.0211 210.472 83.9483C211.387 84.079 211.863 83.1518 211.601 80.3465Z" fill="#EBB376"/>
<path d="M220.635 75.9245C220.635 76.5664 220.279 77.1132 219.851 77.1132C219.423 77.1132 219.078 76.5902 219.09 75.9245C219.102 75.2589 219.447 74.7358 219.875 74.7358C220.303 74.7358 220.647 75.2826 220.635 75.9245Z" fill="#263238"/>
<path d="M219.696 74.7834L221.099 74.2484C221.099 74.2484 220.398 75.4134 219.696 74.7834Z" fill="#263238"/>
<path d="M228.635 75.8651C228.635 76.507 228.279 77.0538 227.851 77.0538C227.423 77.0538 227.078 76.5189 227.078 75.8651C227.078 75.2113 227.447 74.6764 227.875 74.6764C228.302 74.6764 228.647 75.2232 228.635 75.8651Z" fill="#263238"/>
<path d="M227.696 74.7239L229.099 74.189C229.099 74.189 228.386 75.3539 227.696 74.7239Z" fill="#263238"/>
<path d="M217.343 71.9781C217.266 71.9842 217.189 71.9676 217.121 71.9301C217.054 71.8927 216.999 71.8361 216.963 71.7676C216.928 71.6991 216.913 71.6216 216.922 71.5449C216.93 71.4681 216.961 71.3955 217.01 71.3362C217.505 70.8543 218.105 70.4956 218.764 70.2891C219.423 70.0826 220.121 70.0341 220.802 70.1475C220.903 70.1632 220.993 70.2184 221.054 70.3009C221.114 70.3834 221.139 70.4864 221.123 70.5873C221.107 70.6882 221.052 70.7787 220.97 70.8389C220.887 70.899 220.784 70.924 220.683 70.9083C220.132 70.8267 219.569 70.8698 219.036 71.0344C218.503 71.1989 218.014 71.4808 217.605 71.8592C217.532 71.9255 217.441 71.9671 217.343 71.9781Z" fill="#263238"/>
<path d="M229.574 71.5145C229.482 71.5225 229.389 71.4972 229.313 71.4431C228.933 71.1304 228.489 70.9053 228.012 70.7841C227.536 70.6629 227.038 70.6484 226.555 70.7418C226.457 70.772 226.352 70.7627 226.261 70.7161C226.17 70.6695 226.1 70.5891 226.068 70.4922C226.038 70.3944 226.047 70.2888 226.093 70.1977C226.14 70.1067 226.22 70.0375 226.317 70.0048C226.915 69.8666 227.536 69.8664 228.133 70.0045C228.73 70.1425 229.288 70.415 229.765 70.8012C229.848 70.8629 229.903 70.955 229.919 71.0575C229.935 71.1599 229.909 71.2644 229.848 71.348C229.818 71.3946 229.777 71.4337 229.73 71.4625C229.683 71.4913 229.63 71.5091 229.574 71.5145Z" fill="#263238"/>
<path d="M225.699 84.4C225.893 84.4116 226.088 84.4116 226.282 84.4C226.313 84.3985 226.343 84.3908 226.37 84.3773C226.398 84.3638 226.423 84.3447 226.443 84.3214C226.463 84.298 226.478 84.2707 226.487 84.2413C226.496 84.2119 226.499 84.181 226.496 84.1504C226.49 84.0894 226.46 84.0331 226.414 83.9933C226.367 83.9534 226.307 83.933 226.246 83.9364C225.244 84.0662 224.225 83.9239 223.296 83.5244C222.368 83.125 221.564 82.483 220.968 81.666C220.932 81.6142 220.878 81.578 220.816 81.5648C220.754 81.5515 220.69 81.5622 220.636 81.5946C220.585 81.6286 220.549 81.681 220.535 81.7408C220.522 81.8006 220.532 81.8632 220.564 81.9156C221.151 82.7193 221.926 83.3663 222.821 83.7995C223.717 84.2328 224.705 84.439 225.699 84.4Z" fill="#263238"/>
<path d="M215.393 59.7106C219.03 59.5919 222.644 60.3373 225.937 61.8859C230.502 64.3584 230.692 68.1504 230.692 68.1504L229.099 67.556L225.937 64.9765C226.37 65.7708 226.591 66.6633 226.579 67.5679C226.579 67.5679 225.592 65.452 224.202 65.1073C224.377 65.6278 224.4 66.1875 224.267 66.7205C224.134 67.2534 223.852 67.7372 223.453 68.1147C223.163 67.0256 222.509 66.0689 221.598 65.4045C221.598 65.4045 221.836 66.5932 219.459 68.1147C219.492 67.5532 219.386 66.9922 219.15 66.4818C218.913 65.9715 218.554 65.5278 218.104 65.1905C218.104 65.1905 216.915 67.3539 215.393 67.6868C215.393 67.6868 216.582 66.5932 216.332 65.9513C215.031 67.1237 213.408 67.8775 211.673 68.1147C209.069 68.3643 205.658 62.8488 215.393 59.7106Z" fill="#263238"/>
<path opacity="0.2" d="M209.379 82.9498C209.89 83.1475 210.384 83.3902 210.853 83.6749C212.339 84.5783 214.894 88.4297 214.894 88.4297C214.894 88.4297 217.081 91.342 216.535 92.9111C216.229 93.6927 215.875 94.4549 215.477 95.1934L215.37 102.956L211.709 102.064L212.16 93.5055L209.224 83.6868C208.735 83.5495 208.261 83.3623 207.81 83.1281C208.302 82.9076 208.85 82.8453 209.379 82.9498Z" fill="black"/>
<path d="M215.072 98.2603V94.6942C215.471 94.5259 215.804 94.231 216.018 93.8551C216.233 93.4792 216.318 93.0431 216.261 92.6139C216.047 91.1043 210.317 83.8889 209.842 83.6868C209.366 83.4847 204.683 84.8755 204.552 84.8755C204.421 84.8755 206.93 92.079 211.815 94.6823L212.112 99.0567L215.072 98.2603Z" fill="#EBB376"/>
<path d="M223.607 101.185H231.381L225.057 111.491L205.86 104.026L211.328 102.48L223.607 101.185Z" fill="#EBB376"/>
<path opacity="0.2" d="M218.817 128.846C217.141 130.688 208.737 125.933 204.743 122.07C203.709 117.47 204.267 119.918 201.914 112.049L206.145 108.923L209.034 110.932L209.521 105.452L210.603 105.868L210.912 102.599L209.723 102.932L209.866 101.327L211.055 101.125L216.344 105.286L216.523 108.174L217.711 108.626C217.711 108.626 221.04 126.421 218.817 128.846Z" fill="black"/>
<path d="M199.715 103.015C201.985 102.326 209.878 114.034 209.878 114.034L211.637 95.2528L215.643 96.2275C215.643 96.2275 218.425 124.435 215.643 125.672C212.862 126.908 205.706 122.89 198.776 112.75C196.22 109.03 197.004 103.788 199.715 103.015Z" fill="#6F9200"/>
<path opacity="0.3" d="M199.715 103.015C201.985 102.326 209.878 114.034 209.878 114.034L211.637 95.2528L215.643 96.2275C215.643 96.2275 218.425 124.435 215.643 125.672C212.862 126.908 205.706 122.89 198.776 112.75C196.22 109.03 197.004 103.788 199.715 103.015Z" fill="black"/>
</svg>
