<svg width="436" height="345" viewBox="0 0 436 345" fill="none" xmlns="http://www.w3.org/2000/svg">
<path d="M218.081 344.987C338.404 344.987 435.945 339.292 435.945 332.268C435.945 325.243 338.404 319.548 218.081 319.548C97.7586 319.548 0.217773 325.243 0.217773 332.268C0.217773 339.292 97.7586 344.987 218.081 344.987Z" fill="#527410"/>
<path opacity="0.2" d="M365.623 168.248C297.856 237.709 310.643 294.049 225.229 325.366C139.815 356.683 179.566 272.672 95.1212 181.237C10.6763 89.802 112.353 87.1038 199.594 18.5974C286.834 -49.909 433.389 98.7878 365.623 168.248Z" fill="#6F9200"/>
<path d="M84.0602 190.295H82.9365V205.397H84.0602V190.295Z" fill="#6F9200"/>
<path d="M84.0602 209.891H82.9365V216.139H84.0602V209.891Z" fill="#6F9200"/>
<path d="M86.8691 135.102H270.619V332.267H92.1278C90.7361 332.267 89.4014 331.715 88.4173 330.731C87.4332 329.746 86.8804 328.412 86.8804 327.02V135.102H86.8691Z" fill="#6F9200"/>
<path opacity="0.2" d="M270.619 135.102H86.8691V149.08H192.593L196.099 332.267L198.548 149.08H270.619V135.102Z" fill="black"/>
<path d="M85.2851 105.134H270.619V145.091H85.2851C84.5908 145.091 83.9248 144.815 83.4338 144.324C82.9429 143.833 82.667 143.167 82.667 142.473V107.763C82.6655 107.418 82.7322 107.077 82.8631 106.758C82.994 106.439 83.1866 106.149 83.4299 105.905C83.6731 105.66 83.9622 105.467 84.2806 105.334C84.599 105.202 84.9404 105.134 85.2851 105.134Z" fill="#6F9200"/>
<path d="M157.626 332.268L155.704 105.134H195.661L197.571 332.268H157.626Z" fill="#263238"/>
<path d="M343.038 332.268H270.664V135.102H348.251V327.02C348.251 328.406 347.703 329.736 346.726 330.719C345.75 331.702 344.424 332.259 343.038 332.268Z" fill="#6F9200"/>
<path opacity="0.2" d="M343.038 332.268H270.664V135.102H348.251V327.02C348.251 328.406 347.703 329.736 346.726 330.719C345.75 331.702 344.424 332.259 343.038 332.268Z" fill="black"/>
<path opacity="0.2" d="M270.619 135.102H348.241V149.08H304.924L299.036 332.267L299.677 149.08H270.619V135.102Z" fill="black"/>
<path d="M349.836 145.091H270.619V105.134H349.836C350.18 105.134 350.52 105.202 350.838 105.333C351.156 105.465 351.444 105.658 351.687 105.901C351.93 106.144 352.123 106.432 352.255 106.75C352.386 107.068 352.454 107.408 352.454 107.752V142.461C352.456 142.806 352.389 143.148 352.258 143.467C352.127 143.786 351.935 144.076 351.691 144.32C351.448 144.564 351.159 144.758 350.84 144.89C350.522 145.023 350.181 145.091 349.836 145.091Z" fill="#6F9200"/>
<path opacity="0.2" d="M349.836 145.091H270.619V105.134H349.836C350.18 105.134 350.52 105.202 350.838 105.333C351.156 105.465 351.444 105.658 351.687 105.901C351.93 106.144 352.123 106.432 352.255 106.75C352.386 107.068 352.454 107.408 352.454 107.752V142.461C352.456 142.806 352.389 143.148 352.258 143.467C352.127 143.786 351.935 144.076 351.691 144.32C351.448 144.564 351.159 144.758 350.84 144.89C350.522 145.023 350.181 145.091 349.836 145.091Z" fill="black"/>
<path d="M299.036 332.268L302.385 105.134H327.318L323.97 332.268H299.036Z" fill="#263238"/>
<path opacity="0.2" d="M299.036 332.268L302.385 105.134H327.318L323.97 332.268H299.036Z" fill="black"/>
<path d="M312.048 29.7373V29.6811H279.361C277.48 29.8377 275.644 30.3406 273.945 31.1643C240.798 45.0526 224.684 81.4474 217.561 105.089H251C251 105.089 330.139 27.49 312.048 29.7373Z" fill="#263238"/>
<path opacity="0.5" d="M251 105.134C251 74.4247 274.237 45.0976 307.385 31.2093C340.533 17.3211 251 105.134 251 105.134Z" fill="black"/>
<path d="M320.587 49.1876H296.328C294.78 49.3207 293.262 49.7 291.833 50.3113C263.248 60.6264 240.854 87.65 228.774 105.201H253.607C253.607 105.201 334.667 47.5022 320.587 49.1876Z" fill="#263238"/>
<path opacity="0.5" d="M253.652 105.134C265.349 74.7956 288.125 60.559 316.711 50.2439C345.296 39.9289 253.652 105.134 253.652 105.134Z" fill="black"/>
<path d="M157.232 20.1528V20.0853H124.467C123.866 20.0738 123.273 20.223 122.75 20.5173C122.226 20.8117 121.791 21.2405 121.489 21.7596C111.264 37.4119 155.198 78.4587 187.144 105.123H220.583C220.583 105.123 171.592 17.6021 157.232 20.1528Z" fill="#263238"/>
<path opacity="0.5" d="M220.583 105.134C188.683 78.4698 144.703 37.423 154.929 21.7707C165.154 6.11828 220.583 105.134 220.583 105.134Z" fill="black"/>
<path d="M191.391 42.0976H167.075C166.585 42.1096 166.103 42.2261 165.661 42.4392C165.219 42.6524 164.828 42.9573 164.514 43.3336C153.682 54.9633 177.817 85.4478 195.976 105.235H220.774C220.774 105.235 202.571 40.1424 191.391 42.0976Z" fill="#263238"/>
<path opacity="0.5" d="M220.774 105.134C202.616 85.3354 178.469 54.8621 189.312 43.2324C200.156 31.6026 220.774 105.134 220.774 105.134Z" fill="black"/>
</svg>
