<svg width="553" height="344" viewBox="0 0 553 344" fill="none" xmlns="http://www.w3.org/2000/svg">
<path d="M272.18 343.975C419.566 343.975 539.047 336.999 539.047 328.394C539.047 319.789 419.566 312.813 272.18 312.813C124.793 312.813 5.31299 319.789 5.31299 328.394C5.31299 336.999 124.793 343.975 272.18 343.975Z" fill="#527410"/>
<path opacity="0.2" d="M400 148.092C340 209.592 351.322 259.475 275.697 287.203C200.072 314.931 235.267 240.548 160.5 159.592C85.7333 78.636 175.757 76.247 252.999 15.5919C330.242 -45.0632 460 86.5919 400 148.092Z" fill="#6F9200"/>
<path d="M496.626 303.757C497.049 254.235 494.221 204.74 488.161 155.589C481.995 107.54 487.913 85.1183 487.913 85.1183L491.231 85.7514C491.231 85.7514 485.849 103.768 496.626 177.804C502.372 219.023 505.644 260.549 506.426 302.16L496.626 303.757Z" fill="#6F9200"/>
<path d="M491.368 171.61C500.376 162.995 506.668 151.934 509.468 139.788H511.67C511.67 139.788 506.797 163.613 493.405 175.726L491.368 171.61Z" fill="#6F9200"/>
<path d="M469.525 167.77C469.525 167.77 485.959 202.001 498.525 207.382V212.53C498.525 212.53 479.187 197.39 468.562 168.789L469.525 167.77Z" fill="#6F9200"/>
<path d="M488.712 136.87C488.712 136.87 481.155 120.133 460.386 110.086L459.271 112.095C459.271 112.095 475.113 117.312 488.849 147.523L488.712 136.87Z" fill="#6F9200"/>
<path d="M488.684 117.257C488.684 117.257 494.561 105.282 514.244 93.6381L515.221 94.5878C515.221 94.5878 493.323 110.802 488.836 127.525L488.684 117.257Z" fill="#6F9200"/>
<g opacity="0.4">
<path d="M496.626 303.757C497.049 254.235 494.221 204.74 488.161 155.589C481.995 107.54 487.913 85.1183 487.913 85.1183L491.231 85.7514C491.231 85.7514 485.849 103.768 496.626 177.804C502.372 219.023 505.644 260.549 506.426 302.16L496.626 303.757Z" fill="white"/>
<path d="M491.368 171.61C500.376 162.995 506.668 151.934 509.468 139.788H511.67C511.67 139.788 506.797 163.613 493.405 175.726L491.368 171.61Z" fill="white"/>
<path d="M469.525 167.77C469.525 167.77 485.959 202.001 498.525 207.382V212.53C498.525 212.53 479.187 197.39 468.562 168.789L469.525 167.77Z" fill="white"/>
<path d="M488.712 136.87C488.712 136.87 481.155 120.133 460.386 110.086L459.271 112.095C459.271 112.095 475.113 117.312 488.849 147.523L488.712 136.87Z" fill="white"/>
<path d="M488.684 117.257C488.684 117.257 494.561 105.282 514.244 93.6381L515.221 94.5878C515.221 94.5878 493.323 110.802 488.836 127.525L488.684 117.257Z" fill="white"/>
</g>
<path d="M494.63 69.5789C494.63 69.5789 501.512 85.655 489.001 90.6375C489.001 90.6375 479.38 79.9293 494.63 69.5789Z" fill="#6F9200"/>
<path opacity="0.1" d="M494.63 69.5789C494.63 69.5789 501.512 85.655 489.001 90.6375C489.001 90.6375 479.38 79.9293 494.63 69.5789Z" fill="white"/>
<path d="M526.383 88.4765C526.383 88.4765 520.699 103.025 509.619 98.3314C509.619 98.3314 510.211 85.4898 526.383 88.4765Z" fill="#6F9200"/>
<path opacity="0.1" d="M526.383 88.4765C526.383 88.4765 520.699 103.025 509.619 98.3314C509.619 98.3314 510.211 85.4898 526.383 88.4765Z" fill="white"/>
<path d="M449.994 100.437C449.994 100.437 464.24 102.13 462.657 113.059C462.657 113.059 451.109 115.509 449.994 100.437Z" fill="#6F9200"/>
<path opacity="0.1" d="M449.994 100.437C449.994 100.437 464.24 102.13 462.657 113.059C462.657 113.059 451.109 115.509 449.994 100.437Z" fill="white"/>
<path d="M470.378 160.296C470.378 160.296 479.903 168.265 473.572 175.436C473.544 175.436 464.006 171.734 470.378 160.296Z" fill="#6F9200"/>
<path opacity="0.1" d="M470.378 160.296C470.378 160.296 479.903 168.265 473.572 175.436C473.544 175.436 464.006 171.734 470.378 160.296Z" fill="white"/>
<path d="M524.525 133.347C524.525 133.347 519.185 147.014 508.766 142.61C508.766 142.61 509.33 130.553 524.525 133.347Z" fill="#6F9200"/>
<path opacity="0.1" d="M524.525 133.347C524.525 133.347 519.185 147.014 508.766 142.61C508.766 142.61 509.33 130.553 524.525 133.347Z" fill="white"/>
<path d="M508.202 84.3199C508.202 84.3199 500.962 100.245 488.85 94.34C488.85 94.34 490.295 80.0119 508.202 84.3199Z" fill="#6F9200"/>
<path opacity="0.2" d="M508.202 84.3199C508.202 84.3199 500.962 100.245 488.85 94.34C488.85 94.34 490.295 80.0119 508.202 84.3199Z" fill="white"/>
<path d="M472.608 80.1083C472.608 80.1083 490.047 81.4847 488.601 94.9044C488.601 94.9044 474.645 98.4279 472.608 80.1083Z" fill="#6F9200"/>
<path opacity="0.2" d="M472.608 80.1083C472.608 80.1083 490.047 81.4847 488.601 94.9044C488.601 94.9044 474.645 98.4279 472.608 80.1083Z" fill="white"/>
<path d="M458.913 98.0149C458.913 98.0149 471.163 105.475 465.176 114.765C465.176 114.724 453.655 112.192 458.913 98.0149Z" fill="#6F9200"/>
<path opacity="0.2" d="M458.913 98.0149C458.913 98.0149 471.163 105.475 465.176 114.765C465.176 114.724 453.655 112.192 458.913 98.0149Z" fill="white"/>
<path d="M483.454 74.52C483.454 74.52 497.149 85.3934 488.491 95.7301C488.491 95.7301 474.948 90.8714 483.454 74.52Z" fill="#6F9200"/>
<path opacity="0.3" d="M483.454 74.52C483.454 74.52 497.149 85.3934 488.491 95.7301C488.491 95.7301 474.948 90.8714 483.454 74.52Z" fill="white"/>
<path d="M481.554 162.98C481.554 162.98 481.981 175.368 472.415 175.464C472.415 175.464 468.809 165.898 481.554 162.98Z" fill="#6F9200"/>
<path opacity="0.2" d="M481.554 162.98C481.554 162.98 481.981 175.368 472.415 175.464C472.415 175.464 468.809 165.898 481.554 162.98Z" fill="white"/>
<path d="M457.592 171.555C457.592 171.555 469.112 166.931 472.443 175.918C472.443 175.918 464.666 182.566 457.592 171.555Z" fill="#6F9200"/>
<path opacity="0.2" d="M457.592 171.555C457.592 171.555 469.112 166.931 472.443 175.918C472.443 175.918 464.666 182.566 457.592 171.555Z" fill="white"/>
<path d="M462.712 164.577C462.712 164.577 474.865 167.164 472.622 176.469C472.622 176.469 462.478 177.666 462.712 164.577Z" fill="#6F9200"/>
<path opacity="0.3" d="M462.712 164.577C462.712 164.577 474.865 167.164 472.622 176.469C472.622 176.469 462.478 177.666 462.712 164.577Z" fill="white"/>
<path d="M448.618 113.871C448.618 113.871 460.455 105.778 466.511 115.055C466.456 115.055 459.367 124.497 448.618 113.871Z" fill="#6F9200"/>
<path opacity="0.3" d="M448.618 113.871C448.618 113.871 460.455 105.778 466.511 115.055C466.456 115.055 459.367 124.497 448.618 113.871Z" fill="white"/>
<path d="M514.271 126.066C514.271 126.066 520.272 139.458 509.825 143.793C509.825 143.793 501.622 134.943 514.271 126.066Z" fill="#6F9200"/>
<path opacity="0.2" d="M514.271 126.066C514.271 126.066 520.272 139.458 509.825 143.793C509.825 143.793 501.622 134.943 514.271 126.066Z" fill="white"/>
<path d="M501.333 128.075C501.333 128.075 515.001 133.402 510.61 143.821C510.61 143.821 498.553 143.27 501.333 128.075Z" fill="#6F9200"/>
<path opacity="0.3" d="M501.333 128.075C501.333 128.075 515.001 133.402 510.61 143.821C510.61 143.821 498.553 143.27 501.333 128.075Z" fill="white"/>
<path d="M526.383 101.043C526.383 101.043 514.464 111.146 506.935 101.759C506.935 101.759 513.569 90.7338 526.383 101.043Z" fill="#6F9200"/>
<path opacity="0.2" d="M526.383 101.043C526.383 101.043 514.464 111.146 506.935 101.759C506.935 101.759 513.569 90.7338 526.383 101.043Z" fill="white"/>
<path d="M512.537 84.3612C512.537 84.3612 518.043 98.9508 506.742 102.929C506.742 102.929 498.553 93.0324 512.537 84.3612Z" fill="#6F9200"/>
<path opacity="0.3" d="M512.537 84.3612C512.537 84.3612 518.043 98.9508 506.742 102.929C506.742 102.929 498.553 93.0324 512.537 84.3612Z" fill="white"/>
<path d="M454.206 308.629C454.206 308.629 475.127 305.78 487.143 300.852C499.159 295.925 524.567 301.527 532.563 304.101C539.001 305.999 545.546 307.512 552.163 308.629H454.206Z" fill="#6F9200"/>
<path opacity="0.3" d="M454.206 308.629C454.206 308.629 475.127 305.78 487.143 300.852C499.159 295.925 524.567 301.527 532.563 304.101C539.001 305.999 545.546 307.512 552.163 308.629H454.206Z" fill="white"/>
<path d="M42.9707 303.908C50.1167 254.921 54.0386 205.517 54.7112 156.016C55.1104 107.581 64.0018 86.1781 64.0018 86.1781L67.2226 87.2517C67.2226 87.2517 59.446 104.374 60.0791 179.167C60.19 220.788 57.8045 262.379 52.9357 303.715L42.9707 303.908Z" fill="#6F9200"/>
<path d="M58.2619 118.564C70.1927 114.955 80.8054 107.931 88.79 98.3591L90.6894 99.3226C90.6894 99.3226 75.5492 118.372 58.1655 123.134L58.2619 118.564Z" fill="#6F9200"/>
<path d="M25.9722 141.302C25.9722 141.302 53.4998 167.454 54.7248 181.107L59.6109 182.69C59.6109 182.69 51.1737 159.636 27.2522 140.71L25.9722 141.302Z" fill="#6F9200"/>
<path d="M57.7666 137.503C57.7666 137.503 52.5502 119.886 33.3359 107.113L31.9595 108.957C31.9595 108.957 46.9345 116.28 56.4591 148.074L57.7666 137.503Z" fill="#6F9200"/>
<path d="M58.4551 155.135C58.4551 155.135 65.9013 144.124 86.9875 135.219L87.8133 136.278C87.8133 136.278 63.9193 149.368 57.2163 165.334L58.4551 155.135Z" fill="#6F9200"/>
<path d="M58.8403 116.775C58.8403 116.775 44.5397 96.9827 41.9658 76.86L43.0669 76.4058C43.0669 76.4058 48.5725 99.9694 60.6709 109.522L58.8403 116.775Z" fill="#6F9200"/>
<g opacity="0.4">
<path d="M42.9707 303.908C50.1167 254.921 54.0386 205.517 54.7112 156.016C55.1104 107.581 64.0018 86.1781 64.0018 86.1781L67.2226 87.2517C67.2226 87.2517 59.446 104.374 60.0791 179.167C60.19 220.788 57.8045 262.379 52.9357 303.715L42.9707 303.908Z" fill="white"/>
<path d="M58.2619 118.564C70.1927 114.955 80.8054 107.931 88.79 98.3591L90.6894 99.3226C90.6894 99.3226 75.5492 118.372 58.1655 123.134L58.2619 118.564Z" fill="white"/>
<path d="M25.9722 141.302C25.9722 141.302 53.4998 167.454 54.7248 181.107L59.6109 182.69C59.6109 182.69 51.1737 159.636 27.2522 140.71L25.9722 141.302Z" fill="white"/>
<path d="M57.7666 137.503C57.7666 137.503 52.5502 119.886 33.3359 107.113L31.9595 108.957C31.9595 108.957 46.9345 116.28 56.4591 148.074L57.7666 137.503Z" fill="white"/>
<path d="M58.4551 155.135C58.4551 155.135 65.9013 144.124 86.9875 135.219L87.8133 136.278C87.8133 136.278 63.9193 149.368 57.2163 165.334L58.4551 155.135Z" fill="white"/>
<path d="M58.8403 116.775C58.8403 116.775 44.5397 96.9827 41.9658 76.86L43.0669 76.4058C43.0669 76.4058 48.5725 99.9694 60.6709 109.522L58.8403 116.775Z" fill="white"/>
</g>
<path d="M79.5962 66.4133C79.5962 66.4133 82.4591 83.6732 69.122 85.5175C69.122 85.5175 62.3226 72.8273 79.5962 66.4133Z" fill="#6F9200"/>
<path opacity="0.1" d="M79.5962 66.4133C79.5962 66.4133 82.4591 83.6732 69.122 85.5175C69.122 85.5175 62.3226 72.8273 79.5962 66.4133Z" fill="white"/>
<path d="M99.7186 131.736C99.7186 131.736 92.1072 145.376 81.8257 139.238C81.7569 139.238 84.0829 126.589 99.7186 131.736Z" fill="#6F9200"/>
<path opacity="0.1" d="M99.7186 131.736C99.7186 131.736 92.1072 145.376 81.8257 139.238C81.7569 139.238 84.0829 126.589 99.7186 131.736Z" fill="white"/>
<path d="M24.3343 96.1569C24.3343 96.1569 38.2357 99.7492 35.1664 110.375C35.1664 110.375 23.3983 111.242 24.3343 96.1569Z" fill="#6F9200"/>
<path opacity="0.1" d="M24.3343 96.1569C24.3343 96.1569 38.2357 99.7492 35.1664 110.375C35.1664 110.375 23.3983 111.242 24.3343 96.1569Z" fill="white"/>
<path d="M18.6089 139.788C18.6089 139.788 23.2473 151.309 32.0286 147.496C32.0286 147.496 31.4505 137.283 18.6089 139.788Z" fill="#6F9200"/>
<path opacity="0.1" d="M18.6089 139.788C18.6089 139.788 23.2473 151.309 32.0286 147.496C32.0286 147.496 31.4505 137.283 18.6089 139.788Z" fill="white"/>
<path d="M105.128 99.4189C105.128 99.4189 94.1997 109.191 86.8911 100.561C86.8911 100.561 92.8371 90.0595 105.128 99.4189Z" fill="#6F9200"/>
<path opacity="0.1" d="M105.128 99.4189C105.128 99.4189 94.1997 109.191 86.8911 100.561C86.8911 100.561 92.8371 90.0595 105.128 99.4189Z" fill="white"/>
<path d="M82.7067 83.1914C82.7067 83.1914 75.8248 99.24 63.5337 93.5556C63.5337 93.5556 64.7174 79.2137 82.7067 83.1914Z" fill="#6F9200"/>
<path opacity="0.2" d="M82.7067 83.1914C82.7067 83.1914 75.8248 99.24 63.5337 93.5556C63.5337 93.5556 64.7174 79.2137 82.7067 83.1914Z" fill="white"/>
<path d="M57.0781 72.373C57.0781 72.373 71.4338 82.3793 63.437 93.2115C63.437 93.2115 49.6044 89.2062 57.0781 72.373Z" fill="#6F9200"/>
<path opacity="0.2" d="M57.0781 72.373C57.0781 72.373 71.4338 82.3793 63.437 93.2115C63.437 93.2115 49.6044 89.2062 57.0781 72.373Z" fill="white"/>
<path d="M33.501 94.9595C33.501 94.9595 44.636 104.016 37.4375 112.398C37.4375 112.398 26.3714 108.283 33.501 94.9595Z" fill="#6F9200"/>
<path opacity="0.2" d="M33.501 94.9595C33.501 94.9595 44.636 104.016 37.4375 112.398C37.4375 112.398 26.3714 108.283 33.501 94.9595Z" fill="white"/>
<path d="M66.1354 67.7759C66.1354 67.7759 75.894 82.2967 64.5113 89.5089C64.5113 89.5089 53.0736 80.7552 66.1354 67.7759Z" fill="#6F9200"/>
<path opacity="0.3" d="M66.1354 67.7759C66.1354 67.7759 75.894 82.2967 64.5113 89.5089C64.5113 89.5089 53.0736 80.7552 66.1354 67.7759Z" fill="white"/>
<path d="M17.7139 151.281C17.7139 151.281 29.3856 155.507 32.3999 146.436C32.3999 146.381 24.4306 140.05 17.7139 151.281Z" fill="#6F9200"/>
<path opacity="0.2" d="M17.7139 151.281C17.7139 151.281 29.3856 155.507 32.3999 146.436C32.3999 146.381 24.4306 140.05 17.7139 151.281Z" fill="white"/>
<path d="M33.2533 131.117C33.2533 131.117 25.3116 140.669 32.8266 146.587C32.8266 146.587 41.5391 141.247 33.2533 131.117Z" fill="#6F9200"/>
<path opacity="0.2" d="M33.2533 131.117C33.2533 131.117 25.3116 140.669 32.8266 146.587C32.8266 146.587 41.5391 141.247 33.2533 131.117Z" fill="white"/>
<path d="M25.0363 133.842C25.0363 133.842 23.7425 146.23 33.2946 146.945C33.2809 146.945 37.5476 137.655 25.0363 133.842Z" fill="#6F9200"/>
<path opacity="0.3" d="M25.0363 133.842C25.0363 133.842 23.7425 146.23 33.2946 146.945C33.2809 146.945 37.5476 137.655 25.0363 133.842Z" fill="white"/>
<path d="M21.1553 109.219C21.1553 109.219 33.9831 102.791 38.6628 112.811C38.6628 112.866 30.3633 121.262 21.1553 109.219Z" fill="#6F9200"/>
<path opacity="0.3" d="M21.1553 109.219C21.1553 109.219 33.9831 102.791 38.6628 112.811C38.6628 112.866 30.3633 121.262 21.1553 109.219Z" fill="white"/>
<path d="M99.2782 88.2977C99.2782 88.2977 98.5763 102.942 87.3037 102.062C87.3037 102.103 83.9866 90.4862 99.2782 88.2977Z" fill="#6F9200"/>
<path opacity="0.2" d="M99.2782 88.2977C99.2782 88.2977 98.5763 102.942 87.3037 102.062C87.3037 102.103 83.9866 90.4862 99.2782 88.2977Z" fill="white"/>
<path d="M86.8361 84.2374C86.8361 84.2374 96.6222 95.1659 87.9923 102.474C87.9923 102.474 77.4905 96.5285 86.8361 84.2374Z" fill="#6F9200"/>
<path opacity="0.3" d="M86.8361 84.2374C86.8361 84.2374 96.6222 95.1659 87.9923 102.474C87.9923 102.474 77.4905 96.5285 86.8361 84.2374Z" fill="white"/>
<path d="M98.0122 144.193C98.0122 144.193 84.8264 152.575 78.6465 142.252C78.6465 142.252 86.6983 132.246 98.0122 144.193Z" fill="#6F9200"/>
<path opacity="0.2" d="M98.0122 144.193C98.0122 144.193 84.8264 152.575 78.6465 142.252C78.6465 142.252 86.6983 132.246 98.0122 144.193Z" fill="white"/>
<path d="M86.5468 125.735C86.5468 125.735 90.0841 140.958 78.2885 143.353C78.2885 143.394 71.5167 132.48 86.5468 125.735Z" fill="#6F9200"/>
<path opacity="0.3" d="M86.5468 125.735C86.5468 125.735 90.0841 140.958 78.2885 143.353C78.2885 143.394 71.5167 132.48 86.5468 125.735Z" fill="white"/>
<path d="M42.0482 65.0919C42.0482 65.0919 51.9581 74.8092 44.1953 82.2554C44.1953 82.2554 33.9275 77.2591 42.0482 65.0919Z" fill="#6F9200"/>
<path opacity="0.1" d="M42.0482 65.0919C42.0482 65.0919 51.9581 74.8092 44.1953 82.2554C44.1953 82.2554 33.9275 77.2591 42.0482 65.0919Z" fill="white"/>
<path d="M52.3164 69.5239C52.3164 69.5239 56.363 82.806 46.0539 85.6413C46.0539 85.6413 39.3922 76.3508 52.3164 69.5239Z" fill="#6F9200"/>
<path opacity="0.2" d="M52.3164 69.5239C52.3164 69.5239 56.363 82.806 46.0539 85.6413C46.0539 85.6413 39.3922 76.3508 52.3164 69.5239Z" fill="white"/>
<path d="M33.8179 74.9469C33.8179 74.9469 47.6918 75.5387 46.9486 86.2057C46.9486 86.2057 35.9788 89.4127 33.8179 74.9469Z" fill="#6F9200"/>
<path opacity="0.3" d="M33.8179 74.9469C33.8179 74.9469 47.6918 75.5387 46.9486 86.2057C46.9486 86.2057 35.9788 89.4127 33.8179 74.9469Z" fill="white"/>
<path d="M0 308.629C0 308.629 20.921 305.78 32.9368 300.853C44.9526 295.925 70.3607 301.527 78.3574 304.101C84.7946 306 91.3395 307.512 97.9571 308.629H0Z" fill="#6F9200"/>
<path opacity="0.3" d="M0 308.629C0 308.629 20.921 305.78 32.9368 300.853C44.9526 295.925 70.3607 301.527 78.3574 304.101C84.7946 306 91.3395 307.512 97.9571 308.629H0Z" fill="white"/>
<path d="M308.915 182.58C308.915 182.58 304.469 206.997 302.529 215.847C300.588 224.697 263.563 277.137 263.563 277.137C263.563 277.137 255.208 290.791 255.208 295.154C255.208 299.517 269.371 308.711 271.175 307.748C272.978 306.785 276.983 286.084 276.983 286.084L275.18 280.675C275.18 280.675 312.961 231.634 316.031 224.381C319.1 217.127 326.106 187.287 326.106 187.287L308.915 182.58Z" fill="#E4897B"/>
<path d="M303.836 200.321C303.836 200.321 307.965 155.603 311.736 147.606C315.508 139.609 329.973 151.487 332.382 166.875C334.791 182.263 323.67 210.342 323.67 210.342L303.836 200.321Z" fill="#6F9200"/>
<path opacity="0.4" d="M331.887 181.905C330.512 189.474 328.551 196.924 326.023 204.189C324.729 207.988 323.766 210.397 323.766 210.397L303.836 200.321C303.836 200.321 307.965 155.603 311.736 147.606C315.508 139.609 329.973 151.487 332.382 166.875C332.993 171.881 332.826 176.951 331.887 181.905Z" fill="white"/>
<path d="M302.529 196.633V202.813L324.578 213.906L327.84 207.052L302.529 196.633Z" fill="#6F9200"/>
<path opacity="0.6" d="M302.529 196.633V202.813L324.578 213.906L327.84 207.052L302.529 196.633Z" fill="white"/>
<path opacity="0.2" d="M331.887 181.905C330.512 189.474 328.552 196.924 326.024 204.189C320.697 190.425 322.005 161.15 322.005 161.15L331.887 181.905Z" fill="black"/>
<path d="M416.768 312.304L398.999 314.286L382.606 316.103L384.258 302.243V302.201H384.272L385.456 302.188L398.311 302.064L411.497 301.94L416.768 312.304Z" fill="#E4897B"/>
<path opacity="0.2" d="M398.999 314.286L382.606 316.103L384.258 302.242L384.272 302.201L385.456 302.187L398.325 302.05L398.311 302.064L398.999 314.286Z" fill="black"/>
<path d="M391.581 296.861L390.328 320.37L396.357 319.599L396.494 296.187L391.581 296.861Z" fill="#6F9200"/>
<path d="M414.993 312.689L406.06 301.541C405.916 301.358 405.838 301.133 405.838 300.901C405.838 300.668 405.916 300.443 406.06 300.261L412.777 291.906C413.068 291.551 413.487 291.325 413.944 291.279C414.401 291.232 414.857 291.369 415.213 291.658C415.311 291.74 415.398 291.832 415.475 291.934C418.31 295.581 420.196 298.389 423.829 302.945C426.059 305.697 433.092 313.956 436.217 317.754C439.341 321.553 435.9 325.159 434.29 323.866C427.091 318.03 420.691 314.424 416.837 313.79C416.105 313.67 415.446 313.277 414.993 312.689Z" fill="#263238"/>
<path opacity="0.2" d="M414.993 312.689L406.06 301.541C405.916 301.358 405.838 301.133 405.838 300.901C405.838 300.668 405.916 300.443 406.06 300.261L412.777 291.906C413.068 291.551 413.487 291.325 413.944 291.279C414.401 291.232 414.857 291.369 415.213 291.658C415.311 291.74 415.398 291.832 415.475 291.934C418.31 295.581 420.196 298.389 423.829 302.945C426.059 305.697 433.092 313.956 436.217 317.754C439.341 321.553 435.9 325.159 434.29 323.866C427.091 318.03 420.691 314.424 416.837 313.79C416.105 313.67 415.446 313.277 414.993 312.689Z" fill="black"/>
<path d="M326.808 127.112C331.405 119.335 341.824 112.894 349.518 113.83C357.212 114.766 394.856 167.77 394.856 167.77L419.012 217.953L338.7 244.903C338.7 244.903 340.214 200.363 328.157 164.783C328.157 164.797 320.614 137.614 326.808 127.112Z" fill="#6F9200"/>
<path opacity="0.2" d="M326.808 127.112C331.405 119.335 341.824 112.894 349.518 113.83C357.212 114.766 394.856 167.77 394.856 167.77L419.012 217.953L338.7 244.903C338.7 244.903 340.214 200.363 328.157 164.783C328.157 164.797 320.614 137.614 326.808 127.112Z" fill="white"/>
<path d="M396.137 210.52L392.971 253.367C392.971 253.367 389.778 256.464 385.318 261.061C373.839 272.829 353.964 294.466 357.722 299.311C362.952 306.055 380.391 304.445 380.391 304.445L386.351 322.338L387.727 326.384L386.419 326.687C377.176 328.931 367.744 330.313 358.245 330.816C341.164 331.573 322.308 328.531 318.66 312.331C311.696 281.473 343.875 245.384 355.822 229.748C358.768 225.895 357.818 210.479 357.818 210.479L396.137 210.52Z" fill="#263238"/>
<path opacity="0.2" d="M386.419 326.687C377.175 328.931 367.743 330.313 358.245 330.816C350.079 327.093 343.187 321.053 338.425 313.446C324 289.483 368.099 245.081 368.099 245.081V234.69L385.043 245.164L385.318 261.061C373.839 272.829 353.964 294.466 357.721 299.311C362.952 306.055 380.39 304.445 380.39 304.445L386.35 322.338L386.419 326.687Z" fill="black"/>
<path d="M419.04 314.423C419.587 315.008 419.921 315.759 419.989 316.557C419.983 316.837 419.905 317.11 419.763 317.351C419.62 317.592 419.419 317.792 419.177 317.933C419.056 318.039 418.907 318.106 418.748 318.128C418.589 318.15 418.428 318.126 418.283 318.057C416.906 317.452 416.383 313.033 416.328 312.552C416.32 312.499 416.327 312.444 416.349 312.395C416.371 312.347 416.407 312.305 416.452 312.276C416.499 312.246 416.554 312.229 416.61 312.229C416.666 312.229 416.721 312.246 416.769 312.276C417.601 312.908 418.362 313.628 419.04 314.423ZM418.227 317.314C418.293 317.424 418.395 317.507 418.517 317.548C418.517 317.548 418.695 317.617 418.888 317.479C419.046 317.384 419.177 317.251 419.271 317.092C419.364 316.934 419.417 316.755 419.425 316.571C419.074 315.166 418.197 313.949 416.975 313.171C417.128 314.618 417.553 316.024 418.227 317.314Z" fill="#6F9200"/>
<path d="M416.837 312.345L416.92 312.455C417.154 313.832 416.603 317.259 415.544 317.851C415.356 317.947 415.141 317.975 414.935 317.93C414.729 317.884 414.545 317.769 414.415 317.603C414.26 317.458 414.139 317.28 414.06 317.083C413.982 316.885 413.948 316.673 413.961 316.461C413.961 314.699 416.424 312.332 416.548 312.249C416.591 312.229 416.638 312.219 416.686 312.219C416.733 312.219 416.78 312.229 416.824 312.249C416.833 312.28 416.838 312.313 416.837 312.345ZM414.594 317.176L414.676 317.273C414.897 317.562 415.076 317.452 415.144 317.41C415.833 317.053 416.424 314.658 416.383 313.144C415.388 314.042 414.691 315.224 414.387 316.529C414.373 316.763 414.446 316.994 414.594 317.176Z" fill="#6F9200"/>
<path d="M471.975 320.548L454.206 322.53L437.799 324.347L439.451 310.487L439.465 310.446H439.479H440.648L453.518 310.308L466.703 310.184L471.975 320.548Z" fill="#E4897B"/>
<path d="M470.2 320.934L461.267 309.799C461.119 309.615 461.039 309.387 461.039 309.152C461.039 308.917 461.119 308.688 461.267 308.505L467.984 300.15C468.129 299.973 468.307 299.827 468.509 299.719C468.711 299.612 468.932 299.545 469.16 299.523C469.388 299.502 469.617 299.525 469.836 299.593C470.055 299.66 470.258 299.77 470.434 299.916C470.531 299.993 470.619 300.081 470.695 300.178C473.53 303.839 475.416 306.633 479.036 311.189C481.279 313.942 488.313 322.2 491.423 326.013C494.534 329.825 491.107 333.404 489.497 332.11C482.284 326.274 475.884 322.668 472.044 322.035C471.309 321.924 470.646 321.528 470.2 320.934Z" fill="#263238"/>
<path d="M474.246 322.682C474.792 323.266 475.122 324.018 475.182 324.815C475.178 325.094 475.103 325.367 474.963 325.608C474.823 325.849 474.624 326.05 474.384 326.192C474.259 326.296 474.107 326.362 473.946 326.381C473.784 326.401 473.621 326.373 473.475 326.302C472.099 325.71 471.59 321.292 471.534 320.796C471.522 320.743 471.527 320.687 471.55 320.638C471.572 320.588 471.61 320.547 471.658 320.521C471.705 320.488 471.76 320.471 471.817 320.471C471.873 320.471 471.929 320.488 471.975 320.521C472.811 321.153 473.573 321.878 474.246 322.682ZM473.434 325.572C473.505 325.671 473.6 325.752 473.709 325.806C473.709 325.806 473.902 325.806 474.081 325.737C474.242 325.642 474.377 325.507 474.473 325.346C474.569 325.185 474.623 325.003 474.631 324.815C474.271 323.414 473.396 322.201 472.181 321.416C472.319 322.871 472.745 324.284 473.434 325.572Z" fill="#6F9200"/>
<path d="M472.03 320.59L472.113 320.7C472.361 322.076 471.81 325.503 470.736 326.095C470.549 326.194 470.333 326.223 470.127 326.178C469.92 326.133 469.736 326.016 469.608 325.847C469.452 325.702 469.33 325.524 469.25 325.327C469.169 325.13 469.131 324.918 469.14 324.705C469.14 322.957 471.617 320.576 471.727 320.507C471.772 320.484 471.822 320.472 471.872 320.472C471.922 320.472 471.972 320.484 472.016 320.507C472.025 320.534 472.03 320.562 472.03 320.59ZM469.787 325.421L469.869 325.531C470.103 325.806 470.282 325.696 470.351 325.669C471.039 325.297 471.631 322.916 471.59 321.402C470.591 322.299 469.89 323.481 469.58 324.788C469.573 325.016 469.646 325.24 469.787 325.421Z" fill="#6F9200"/>
<path opacity="0.2" d="M454.206 322.53L437.799 324.347L439.451 310.487L439.479 310.446H440.648L453.518 310.294V310.308L454.206 322.53Z" fill="black"/>
<path d="M384.079 207.396C380.39 224.326 343.228 304.252 366.709 325.503C383.941 341.125 448.26 326.398 448.26 326.398L449.265 306.908C449.265 306.908 398.641 308.574 393.328 302.697C388.015 296.82 419.246 252.624 423.609 240.567C431.303 219.164 422.962 206.529 422.962 206.529L384.079 207.396Z" fill="#263238"/>
<path d="M446.773 305.105L445.535 328.614L451.563 327.843L451.701 304.445L446.773 305.105Z" fill="#6F9200"/>
<path d="M431.262 219.164L357.033 220.609C357.033 220.609 338.865 162.678 312.562 146.354C315.268 142.016 318.556 138.07 322.335 134.627C330.489 126.932 340.345 121.273 351.101 118.11C359.284 115.742 367.788 114.669 376.303 114.931C376.303 114.931 414.773 135.948 431.262 219.164Z" fill="#6F9200"/>
<path d="M349.518 119.115C342.031 146.477 328.157 131.255 328.157 131.255C328.627 130.387 328.846 129.405 328.79 128.419C328.7 127.342 328.37 126.298 327.825 125.365C327.279 124.431 326.532 123.631 325.638 123.024C324.765 122.35 323.845 121.738 322.885 121.193L324.564 99.6803C327.095 103.551 329.906 107.231 332.974 110.691C337.888 116.101 343.834 120.532 349.518 119.115Z" fill="#E4897B"/>
<path opacity="0.2" d="M328.79 128.488C328.7 127.411 328.37 126.367 327.825 125.433C327.279 124.5 326.532 123.7 325.638 123.093C324.765 122.418 323.845 121.807 322.885 121.262L324.564 99.7491C327.095 103.62 329.906 107.3 332.974 110.76C333.401 118.014 332.63 125.212 328.79 128.488Z" fill="black"/>
<path d="M289.783 98.5105C289.783 98.5105 293.362 111.504 303.74 113.651C314.118 115.798 301.909 88.2977 301.909 88.2977L289.783 98.5105Z" fill="#263238"/>
<path d="M332.052 113.513C331.992 114.141 331.9 114.766 331.777 115.385C331.211 118.552 329.622 121.446 327.252 123.621C324.882 125.797 321.863 127.135 318.66 127.428C314.52 127.886 310.361 126.749 307.029 124.249C306.548 123.91 306.089 123.543 305.653 123.148C304.751 122.301 303.892 121.41 303.079 120.477C296.197 112.536 290.293 99.4051 296.472 90.3485C297.998 88.0967 300.073 86.2719 302.501 85.047C304.929 83.8222 307.63 83.2379 310.347 83.3495C313.065 83.4612 315.708 84.2651 318.028 85.6851C320.347 87.1051 322.266 89.0941 323.601 91.4634C329.038 100.74 332.74 106.259 332.052 113.513Z" fill="#E4897B"/>
<path d="M310.718 103.961C310.86 104.09 310.973 104.247 311.051 104.423C311.128 104.598 311.169 104.788 311.169 104.979C311.169 105.171 311.128 105.361 311.051 105.536C310.973 105.712 310.86 105.869 310.718 105.998C310.195 106.356 309.342 105.998 308.832 105.2C308.323 104.401 308.295 103.479 308.832 103.149C309.369 102.819 310.167 103.163 310.718 103.961Z" fill="#263238"/>
<path d="M301.772 109.879C302.038 110.154 302.187 110.522 302.187 110.905C302.187 111.288 302.038 111.655 301.772 111.93C301.263 112.274 300.395 111.93 299.886 111.118C299.377 110.306 299.363 109.411 299.886 109.067C300.409 108.723 301.276 109.136 301.772 109.879Z" fill="#263238"/>
<path d="M304.869 108.393C305.533 111.433 305.774 114.55 305.584 117.656C306.385 117.682 307.181 117.532 307.918 117.219C308.655 116.905 309.315 116.434 309.851 115.839L304.869 108.393Z" fill="#DE5753"/>
<path d="M311.558 99.2262C311.479 99.2924 311.385 99.3382 311.284 99.3598C311.183 99.3814 311.079 99.3781 310.98 99.3501C310.328 99.1023 309.628 99.0105 308.935 99.0822C308.242 99.1539 307.575 99.3871 306.988 99.763C306.87 99.8496 306.722 99.8878 306.577 99.8699C306.431 99.852 306.298 99.7793 306.204 99.6667C306.115 99.5476 306.077 99.3986 306.098 99.2518C306.118 99.105 306.196 98.9722 306.314 98.8821C307.043 98.3891 307.879 98.078 308.754 97.9751C309.628 97.8721 310.514 97.9802 311.337 98.2903C311.479 98.3347 311.598 98.4334 311.668 98.5648C311.737 98.6963 311.752 98.8499 311.709 98.9923C311.674 99.0791 311.622 99.1585 311.558 99.2262Z" fill="#263238"/>
<path d="M295.894 109.356C295.834 109.451 295.741 109.519 295.633 109.549C295.561 109.561 295.488 109.558 295.418 109.542C295.347 109.526 295.281 109.495 295.222 109.453C295.163 109.411 295.113 109.358 295.075 109.296C295.037 109.235 295.011 109.166 295 109.095C294.859 108.219 294.932 107.323 295.213 106.482C295.493 105.641 295.972 104.88 296.61 104.264C296.724 104.171 296.87 104.126 297.016 104.139C297.163 104.151 297.299 104.221 297.395 104.333C297.492 104.437 297.547 104.575 297.547 104.718C297.547 104.861 297.492 104.999 297.395 105.103C296.907 105.605 296.542 106.213 296.33 106.879C296.117 107.545 296.062 108.252 296.17 108.943C296.161 109.03 296.132 109.113 296.084 109.185C296.036 109.257 295.971 109.316 295.894 109.356Z" fill="#263238"/>
<path d="M325.941 99.5841C327.015 99.295 331.584 107.347 331.584 107.347C331.584 107.347 334.172 102.997 332.148 95.2347C328.157 79.9293 324.276 78.319 319.761 78.319C311.503 78.319 307.663 90.0733 307.663 90.0733C310.071 87.8848 314.09 88.6969 314.655 92.0277C315.453 96.5836 320.986 101.071 325.198 101.662C325.225 101.607 324.358 99.9557 325.941 99.5841Z" fill="#263238"/>
<path d="M333.139 96.6111C333.332 98.0508 333.237 99.5145 332.862 100.918C332.486 102.321 331.837 103.636 330.951 104.787C328.57 107.856 325.074 106.273 323.794 102.819C322.692 99.7355 322.514 94.3538 325.872 92.5508C329.23 90.7477 332.63 93.0463 333.139 96.6111Z" fill="#E4897B"/>
<path d="M311.736 87.4719C311.736 87.4719 307.607 94.7254 306.093 95.4549C304.579 96.1844 304.868 92.7847 304.868 92.7847C304.868 92.7847 299.528 99.4464 297.518 99.1711C295.509 98.8958 296.225 94.9043 296.225 94.9043C296.225 94.9043 290.623 104.443 288.434 104.539C286.246 104.635 285.682 97.0515 289.811 90.6926C289.811 90.6926 287.058 95.7714 285.2 94.6841C283.342 93.5968 287.705 83.0674 296.211 79.6265C296.211 79.6265 295.068 79.6265 294.917 77.4518C294.766 75.2771 305.144 70.735 313.388 73.8181C313.388 73.8181 310.567 70.914 314.558 70.1845C318.55 69.455 321.991 75.0844 321.991 75.0844C321.991 75.0844 321.812 72.3316 324.358 72.9097C326.904 73.4878 332.616 81.168 330.758 90.376L311.736 87.4719Z" fill="#263238"/>
<path opacity="0.3" d="M332.052 113.513C331.992 114.141 331.9 114.766 331.777 115.385C331.211 118.552 329.621 121.446 327.252 123.621C324.882 125.797 321.863 127.135 318.66 127.428C314.52 127.886 310.361 126.749 307.029 124.249C306.548 123.91 306.089 123.543 305.653 123.148C304.751 122.301 303.892 121.41 303.079 120.478C307.35 119.905 311.347 118.053 314.544 115.165C318.357 111.834 324.069 105.42 320.284 99.1711C318.288 95.8953 323.298 101.098 323.298 101.098C323.298 101.098 329.423 107.154 332.052 113.513Z" fill="black"/>
<path d="M313.843 119.074C315.088 118.497 316.175 117.627 317.012 116.539C317.848 115.451 318.409 114.177 318.646 112.825C318.652 112.787 318.649 112.748 318.64 112.711C318.63 112.674 318.614 112.639 318.591 112.608C318.568 112.578 318.539 112.552 318.506 112.532C318.473 112.513 318.436 112.5 318.398 112.495C318.36 112.489 318.322 112.491 318.285 112.501C318.247 112.51 318.213 112.527 318.182 112.55C318.151 112.573 318.125 112.602 318.106 112.635C318.086 112.668 318.073 112.704 318.068 112.742C317.823 113.989 317.289 115.161 316.51 116.165C315.731 117.168 314.728 117.976 313.581 118.523C313.512 118.556 313.457 118.614 313.429 118.686C313.401 118.757 313.401 118.837 313.43 118.908C313.444 118.942 313.466 118.973 313.493 118.998C313.52 119.024 313.552 119.043 313.586 119.056C313.621 119.069 313.658 119.075 313.695 119.073C313.732 119.071 313.768 119.062 313.801 119.046L313.843 119.074Z" fill="#263238"/>
<path d="M355.822 132.892C355.822 132.892 403.996 187.576 410.878 228.083L436.437 222.082C436.437 222.082 413.369 132.067 376.303 115H355.822V132.892Z" fill="#6F9200"/>
<path opacity="0.6" d="M436.437 222.082L410.85 228.111C409.157 218.022 404.904 207.066 399.454 196.302C395.123 187.823 390.311 179.597 385.043 171.665C376.126 158.137 366.362 145.187 355.809 132.892V115H376.289C413.369 132.039 436.437 222.082 436.437 222.082Z" fill="white"/>
<path d="M349.519 113.843C349.519 113.843 355.024 119.115 355.822 132.893H365.925C365.925 132.893 364.466 117.573 359.126 114.05C357.116 112.729 349.519 113.843 349.519 113.843Z" fill="#6F9200"/>
<path opacity="0.4" d="M349.519 113.843C349.519 113.843 355.024 119.115 355.822 132.893H365.925C365.925 132.893 364.466 117.573 359.126 114.05C357.116 112.729 349.519 113.843 349.519 113.843Z" fill="white"/>
<path d="M327.978 147.097C327.978 147.097 343.6 209.805 338.7 244.916C338.7 244.916 335.039 198.367 328.157 181.493C328.157 181.493 314.723 162.677 312.562 146.354L323.106 132.025C323.106 132.025 324.317 141.288 327.978 147.097Z" fill="#6F9200"/>
<path opacity="0.6" d="M327.978 147.097C327.978 147.097 343.6 209.805 338.7 244.916C338.7 244.916 335.039 198.367 328.157 181.493C328.157 181.493 314.723 162.677 312.562 146.354L323.106 132.025C323.106 132.025 324.317 141.288 327.978 147.097Z" fill="white"/>
<path d="M326.808 127.112C326.808 127.112 323.629 137.82 327.978 147.083L324.633 151.075C322.777 147.035 321.877 142.622 322.005 138.178C322.005 129.864 326.808 127.112 326.808 127.112Z" fill="#6F9200"/>
<path opacity="0.4" d="M326.808 127.112C326.808 127.112 323.629 137.82 327.978 147.083L324.633 151.075C322.777 147.035 321.877 142.622 322.005 138.178C322.005 129.864 326.808 127.112 326.808 127.112Z" fill="white"/>
<path d="M312.356 271.288C311.579 272.41 310.92 273.609 310.388 274.866L315.191 280.62C305.346 287.388 294.283 292.184 282.612 294.741C284.525 283.579 302.529 267.214 302.529 267.214L306.025 270.82C306.025 270.82 306.685 269.677 307.896 267.805C311.89 261.683 316.502 255.987 321.66 250.807C321.986 250.487 322.378 250.242 322.81 250.09C323.241 249.939 323.7 249.884 324.154 249.93C324.609 249.976 325.048 250.122 325.44 250.357C325.832 250.591 326.168 250.91 326.423 251.289C326.822 251.888 327.002 252.606 326.935 253.323C326.867 254.04 326.555 254.711 326.051 255.225C320.963 260.11 316.375 265.491 312.356 271.288Z" fill="#263238"/>
<path opacity="0.4" d="M315.191 280.62C305.346 287.388 294.283 292.184 282.612 294.741C284.525 283.579 302.529 267.214 302.529 267.214L306.025 270.82C306.025 270.82 306.685 269.677 307.896 267.805C308.271 268.73 308.879 269.541 309.661 270.161C310.442 270.781 311.371 271.188 312.356 271.343C311.579 272.465 310.92 273.664 310.388 274.921L315.191 280.62Z" fill="white"/>
<path opacity="0.2" d="M315.191 280.62C305.346 287.388 294.283 292.184 282.612 294.741C284.525 283.579 302.529 267.214 302.529 267.214L306.025 270.82C306.025 270.82 302.584 274.949 301.895 278.459C305.011 278.088 307.964 276.864 310.429 274.921L315.191 280.62Z" fill="white"/>
<path d="M218.391 328.394H303.836C303.836 328.394 293.197 325.283 290.596 322.269C287.994 319.255 278.745 320.397 276.034 320.37C273.322 320.342 267.858 323.053 264.596 321.416C261.334 319.778 250.158 307.748 242.863 303.963C235.568 300.178 231.7 312.868 227.888 315.373C224.075 317.878 218.391 328.394 218.391 328.394Z" fill="#6F9200"/>
<path d="M199.107 332.537C199.107 332.537 220.235 321.691 226.635 321.416C233.035 321.14 241.775 325.93 243.936 326.398C246.097 326.866 261.912 325.379 265.174 324.347C268.436 323.315 279.323 326.192 282.599 325.724C285.875 325.256 295.578 318.663 298.881 317.603C302.185 316.543 327.524 330.252 330.538 331.023C333.552 331.793 340.875 332.702 340.875 332.702C340.875 332.702 316.1 334.23 312.563 334.23C309.025 334.23 304.965 338.042 290.651 337.23C276.336 336.418 270.087 338.001 263.288 337.34C256.489 336.68 254.851 334.78 247.226 334.78C239.601 334.78 229.525 337.23 224.35 335.055C219.175 332.881 199.107 332.537 199.107 332.537Z" fill="#6F9200"/>
<path opacity="0.2" d="M199.107 332.537C199.107 332.537 220.235 321.691 226.635 321.416C233.035 321.14 241.775 325.93 243.936 326.398C246.097 326.866 261.912 325.379 265.174 324.347C268.436 323.315 279.323 326.192 282.599 325.724C285.875 325.256 295.578 318.663 298.881 317.603C302.185 316.543 327.524 330.252 330.538 331.023C333.552 331.793 340.875 332.702 340.875 332.702C340.875 332.702 316.1 334.23 312.563 334.23C309.025 334.23 304.965 338.042 290.651 337.23C276.336 336.418 270.087 338.001 263.288 337.34C256.489 336.68 254.851 334.78 247.226 334.78C239.601 334.78 229.525 337.23 224.35 335.055C219.175 332.881 199.107 332.537 199.107 332.537Z" fill="white"/>
<path d="M261.168 291.094C261.567 291.259 261.857 291.713 262.297 291.796C262.462 291.796 262.655 291.796 262.834 291.796C262.987 291.834 263.129 291.909 263.247 292.014C263.364 292.12 263.454 292.253 263.508 292.401C263.591 292.713 263.591 293.04 263.508 293.351C264.059 293.227 264.485 293.351 264.788 292.869C265.091 292.388 265.146 291.975 265.765 291.892C265.971 291.865 266.179 291.865 266.385 291.892C267.05 291.93 267.675 292.221 268.133 292.704C268.283 292.993 268.463 293.265 268.67 293.516C269.165 293.929 269.922 293.613 270.569 293.695C270.856 293.754 271.126 293.872 271.364 294.043C271.601 294.214 271.799 294.433 271.945 294.686C272.249 295.134 272.455 295.64 272.551 296.173V297.315C272.579 297.782 272.514 298.25 272.358 298.692C272.193 299.077 271.932 299.889 272.634 299.958C272.868 299.958 273.129 299.889 273.28 300.054C273.432 300.219 273.363 300.343 273.418 300.481C273.473 300.618 273.707 300.784 273.845 300.935C273.964 301.057 274.058 301.202 274.12 301.362C274.516 302.368 274.565 303.477 274.258 304.514C273.978 305.179 273.766 305.871 273.625 306.578V309.648C273.521 311.174 273.521 312.705 273.625 314.231C273.693 314.59 273.693 314.959 273.625 315.318C273.593 315.442 273.536 315.559 273.458 315.661C273.38 315.762 273.282 315.847 273.17 315.91C272.991 316.034 272.744 315.91 272.716 316.268C272.717 316.468 272.745 316.667 272.799 316.86C272.868 317.286 272.689 317.92 272.358 317.355C272.247 317 272.21 316.625 272.248 316.254C272.248 315.456 272.248 314.658 272.248 313.859C272.248 313.061 272.097 312.387 272 311.671C271.985 311.427 271.899 311.192 271.753 310.996C271.133 310.35 270.294 311.808 270.307 312.373C270.362 312.94 270.362 313.512 270.307 314.08C269.884 316.187 269.823 318.352 270.129 320.48C270.129 320.769 270.225 321.113 269.991 321.292C269.874 321.36 269.741 321.394 269.606 321.388C269.48 321.42 269.35 321.422 269.223 321.396C269.097 321.37 268.978 321.315 268.876 321.237C268.758 321.073 268.7 320.874 268.711 320.672C268.796 319.757 268.796 318.835 268.711 317.92C268.695 317.804 268.658 317.692 268.601 317.589C268.532 317.507 268.422 317.452 268.339 317.369C268.235 317.229 268.163 317.067 268.128 316.896C268.092 316.725 268.094 316.548 268.133 316.378C268.16 315.048 268.078 313.717 267.885 312.4C267.874 312.105 267.804 311.815 267.679 311.547C267.621 311.413 267.528 311.297 267.409 311.212C267.29 311.127 267.15 311.076 267.004 311.065C266.33 311.065 266.509 311.822 266.536 312.235C266.571 312.459 266.571 312.686 266.536 312.91C266.507 313.017 266.45 313.115 266.37 313.192C266.29 313.27 266.19 313.324 266.082 313.35C266.011 313.376 265.933 313.376 265.862 313.35C265.808 313.297 265.768 313.232 265.744 313.16C265.72 313.088 265.713 313.012 265.724 312.937V312.442C265.738 312.378 265.738 312.312 265.724 312.249C265.614 312.056 265.311 312.125 265.105 312.042C264.898 311.96 264.719 310.776 264.637 310.446C264.472 309.785 264.362 309.069 264.251 308.436C264.152 307.273 263.926 306.124 263.577 305.009C263.233 304.183 263.054 303.302 262.641 302.518C262.524 302.319 262.432 302.106 262.366 301.885C262.38 301.61 262.38 301.334 262.366 301.059C262.283 300.742 262.049 300.495 262.008 300.192C262.025 299.81 262.154 299.441 262.38 299.132C262.572 298.707 262.632 298.234 262.551 297.775C262.47 297.315 262.252 296.891 261.925 296.558C261.609 296.242 261.196 296.131 260.879 295.815C260.583 295.427 260.241 295.076 259.861 294.769C259.31 294.397 258.484 294.397 258.195 293.778C258.305 293.971 258.581 293.778 258.636 293.558C258.691 293.337 258.773 293.076 258.98 293.09L259.159 293.159C259.416 293.284 259.71 293.309 259.985 293.227C259.858 293.108 259.765 292.957 259.715 292.791C259.664 292.624 259.657 292.447 259.696 292.278C259.773 291.936 259.95 291.624 260.205 291.383C260.314 291.249 260.453 291.142 260.611 291.071C260.768 290.999 260.94 290.965 261.113 290.97L261.168 291.094Z" fill="#6F9200"/>
<path opacity="0.2" d="M261.168 291.094C261.567 291.259 261.857 291.713 262.297 291.796C262.462 291.796 262.655 291.796 262.834 291.796C262.987 291.834 263.129 291.909 263.247 292.014C263.364 292.12 263.454 292.253 263.508 292.401C263.591 292.713 263.591 293.04 263.508 293.351C264.059 293.227 264.485 293.351 264.788 292.869C265.091 292.388 265.146 291.975 265.765 291.892C265.971 291.865 266.179 291.865 266.385 291.892C267.05 291.93 267.675 292.221 268.133 292.704C268.283 292.993 268.463 293.265 268.67 293.516C269.165 293.929 269.922 293.613 270.569 293.695C270.856 293.754 271.126 293.872 271.364 294.043C271.601 294.214 271.799 294.433 271.945 294.686C272.249 295.134 272.455 295.64 272.551 296.173V297.315C272.579 297.782 272.514 298.25 272.358 298.692C272.193 299.077 271.932 299.889 272.634 299.958C272.868 299.958 273.129 299.889 273.28 300.054C273.432 300.219 273.363 300.343 273.418 300.481C273.473 300.618 273.707 300.784 273.845 300.935C273.964 301.057 274.058 301.202 274.12 301.362C274.516 302.368 274.565 303.477 274.258 304.514C273.978 305.179 273.766 305.871 273.625 306.578V309.648C273.521 311.174 273.521 312.705 273.625 314.231C273.693 314.59 273.693 314.959 273.625 315.318C273.593 315.442 273.536 315.559 273.458 315.661C273.38 315.762 273.282 315.847 273.17 315.91C272.991 316.034 272.744 315.91 272.716 316.268C272.717 316.468 272.745 316.667 272.799 316.86C272.868 317.286 272.689 317.92 272.358 317.355C272.247 317 272.21 316.625 272.248 316.254C272.248 315.456 272.248 314.658 272.248 313.859C272.248 313.061 272.097 312.387 272 311.671C271.985 311.427 271.899 311.192 271.753 310.996C271.133 310.35 270.294 311.808 270.307 312.373C270.362 312.94 270.362 313.512 270.307 314.08C269.884 316.187 269.823 318.352 270.129 320.48C270.129 320.769 270.225 321.113 269.991 321.292C269.874 321.36 269.741 321.394 269.606 321.388C269.48 321.42 269.35 321.422 269.223 321.396C269.097 321.37 268.978 321.315 268.876 321.237C268.758 321.073 268.7 320.874 268.711 320.672C268.796 319.757 268.796 318.835 268.711 317.92C268.695 317.804 268.658 317.692 268.601 317.589C268.532 317.507 268.422 317.452 268.339 317.369C268.235 317.229 268.163 317.067 268.128 316.896C268.092 316.725 268.094 316.548 268.133 316.378C268.16 315.048 268.078 313.717 267.885 312.4C267.874 312.105 267.804 311.815 267.679 311.547C267.621 311.413 267.528 311.297 267.409 311.212C267.29 311.127 267.15 311.076 267.004 311.065C266.33 311.065 266.509 311.822 266.536 312.235C266.571 312.459 266.571 312.686 266.536 312.91C266.507 313.017 266.45 313.115 266.37 313.192C266.29 313.27 266.19 313.324 266.082 313.35C266.011 313.376 265.933 313.376 265.862 313.35C265.808 313.297 265.768 313.232 265.744 313.16C265.72 313.088 265.713 313.012 265.724 312.937V312.442C265.738 312.378 265.738 312.312 265.724 312.249C265.614 312.056 265.311 312.125 265.105 312.042C264.898 311.96 264.719 310.776 264.637 310.446C264.472 309.785 264.362 309.069 264.251 308.436C264.152 307.273 263.926 306.124 263.577 305.009C263.233 304.183 263.054 303.302 262.641 302.518C262.524 302.319 262.432 302.106 262.366 301.885C262.38 301.61 262.38 301.334 262.366 301.059C262.283 300.742 262.049 300.495 262.008 300.192C262.025 299.81 262.154 299.441 262.38 299.132C262.572 298.707 262.632 298.234 262.551 297.775C262.47 297.315 262.252 296.891 261.925 296.558C261.609 296.242 261.196 296.131 260.879 295.815C260.583 295.427 260.241 295.076 259.861 294.769C259.31 294.397 258.484 294.397 258.195 293.778C258.305 293.971 258.581 293.778 258.636 293.558C258.691 293.337 258.773 293.076 258.98 293.09L259.159 293.159C259.416 293.284 259.71 293.309 259.985 293.227C259.858 293.108 259.765 292.957 259.715 292.791C259.664 292.624 259.657 292.447 259.696 292.278C259.773 291.936 259.95 291.624 260.205 291.383C260.314 291.249 260.453 291.142 260.611 291.071C260.768 290.999 260.94 290.965 261.113 290.97L261.168 291.094Z" fill="white"/>
<path opacity="0.2" d="M399.453 196.275C395.121 187.804 390.31 179.588 385.042 171.665L396.122 142.83C396.122 142.83 402.66 170.234 399.453 196.275Z" fill="black"/>
<path d="M393.411 165.761C393.411 165.761 394.058 194.926 390.328 202.73C386.598 210.534 336.195 251.991 336.195 251.991C336.195 251.991 334.915 261.309 332.823 262.864C330.731 264.42 318.385 267.159 317.105 267.159C315.825 267.159 314.847 249.734 316.031 248.233C317.215 246.733 328.171 243.155 329.988 243.155C329.988 243.155 374.995 197.968 374.995 194.252C374.995 190.535 376.083 161.095 376.083 161.095L393.411 165.761Z" fill="#E4897B"/>
<path d="M373.647 171.707C373.647 171.707 370.233 126.947 372.669 118.413C375.106 109.879 391.306 119.211 396.274 134.021C401.243 148.831 394.898 178.341 394.898 178.341L373.647 171.707Z" fill="#6F9200"/>
<path opacity="0.4" d="M373.647 171.707C373.647 171.707 370.233 126.947 372.669 118.413C375.106 109.879 391.306 119.211 396.274 134.021C401.243 148.831 394.898 178.341 394.898 178.341L373.647 171.707Z" fill="white"/>
<path d="M371.692 168.307L372.724 174.404L396.315 181.672L398.394 174.363L371.692 168.307Z" fill="#6F9200"/>
<path opacity="0.6" d="M371.692 168.307L372.724 174.404L396.315 181.672L398.394 174.363L371.692 168.307Z" fill="white"/>
<path d="M219.065 254.62C215.803 254.895 210.119 251.77 209.045 251.027C207.971 250.284 206.595 245.412 206.595 245.412C206.595 245.412 177.691 224.766 173.562 218.779L173.08 218.063C167.258 208.937 160.693 184.438 159.413 179.524C159.275 178.974 159.192 178.671 159.192 178.671C159.192 178.671 159.674 161.397 167.285 161.92C174.498 162.416 178.008 199.564 185.481 210.947C187.876 214.594 214.027 240.305 215.597 242.012C217.166 243.719 228.287 245.081 229.36 246.705C230.434 248.329 222.313 254.358 219.065 254.62Z" fill="#B97964"/>
<path opacity="0.2" d="M173.08 218.063C167.257 208.937 160.692 184.438 159.412 179.524L168.441 163.985C168.441 163.985 176.617 196.536 173.08 218.063Z" fill="black"/>
<path d="M118.025 153.263C116.896 153.263 115.809 153.125 114.707 152.987C103.366 151.542 115.877 127.332 142.001 110.099C163.886 95.675 183.472 94.1059 191.207 100.988C192.7 102.282 193.781 103.986 194.317 105.888C197.566 117.477 153.508 155.148 118.025 153.263Z" fill="#6F9200"/>
<path opacity="0.2" d="M145.937 119.514C152.888 114.559 164.422 106.177 177.993 107.856C191.565 109.535 172.488 129.795 152.393 140.05C132.298 150.304 126.668 149.134 125.718 146.243C124.122 141.316 135.917 126.712 145.937 119.514Z" fill="black"/>
<path d="M134.266 133.993C134.266 133.993 131.279 139.664 134.266 148.211C134.266 148.211 123.97 150.524 122.209 160.599C120.447 170.674 135.752 170.357 141.161 168.596C146.571 166.834 139.785 149.491 139.785 149.491C139.785 149.491 149.062 143.532 150.893 137.985C152.723 132.438 134.266 133.993 134.266 133.993Z" fill="#263238"/>
<path d="M152.145 252.72C145.635 266.401 96.5943 269.98 92.8093 260.263C89.0242 250.545 115.024 215.599 116.111 199.619C117.199 183.639 162.262 171.72 162.262 171.72C162.262 171.72 170.327 214.525 152.145 252.72Z" fill="#6F9200"/>
<path opacity="0.4" d="M152.145 252.72C145.635 266.401 96.5943 269.98 92.8093 260.263C89.0242 250.545 115.024 215.599 116.111 199.619C117.199 183.639 162.262 171.72 162.262 171.72C162.262 171.72 170.327 214.525 152.145 252.72Z" fill="white"/>
<path d="M96.9244 308.877L118.437 308.615L117.405 320.218L90.2627 316.405L96.9244 308.877Z" fill="#B97964"/>
<path opacity="0.2" d="M96.9244 308.877L118.437 308.615L117.405 320.218L90.2627 316.405L96.9244 308.877Z" fill="black"/>
<path d="M102.196 308.078C102.926 308.753 94.2819 317.479 94.2819 317.479C94.2819 317.479 83.5461 318.126 77.4349 322.517C71.3238 326.907 70.6907 320.934 76.0586 314.754L89.3682 299.49C93.2496 295.099 94.626 301.1 102.196 308.078Z" fill="#263238"/>
<path opacity="0.2" d="M102.196 308.078C102.926 308.753 94.2819 317.479 94.2819 317.479C94.2819 317.479 83.5461 318.126 77.4349 322.517C71.3238 326.907 70.6907 320.934 76.0586 314.754L89.3682 299.49C93.2496 295.099 94.626 301.1 102.196 308.078Z" fill="black"/>
<path d="M139.689 234.703L141.616 247.091C141.616 247.091 195.294 288.809 198.735 312.111C202.176 335.413 180.595 334.945 111.776 329.44L109.601 307.225L135.422 303.66C135.422 303.66 92.754 286.854 99.044 257.62C104.839 230.671 139.689 234.703 139.689 234.703Z" fill="#6F9200"/>
<path opacity="0.2" d="M139.689 234.703L141.616 247.091C141.616 247.091 195.294 288.809 198.735 312.111C202.176 335.413 180.595 334.945 111.776 329.44L109.601 307.225L135.422 303.66C135.422 303.66 92.754 286.854 99.044 257.62C104.839 230.671 139.689 234.703 139.689 234.703Z" fill="black"/>
<path d="M79.0728 316.722L100.586 316.46L99.5534 328.063L72.4111 324.265L79.0728 316.722Z" fill="#B97964"/>
<path d="M84.3445 315.937C85.074 316.612 76.4303 325.338 76.4303 325.338C76.4303 325.338 65.6945 325.985 59.5834 330.376C53.4722 334.766 52.8391 328.793 58.207 322.613L71.5304 307.418C75.3567 302.958 76.7331 308.959 84.3445 315.937Z" fill="#263238"/>
<path d="M139.689 234.703L97.7915 227.821C99.0715 228.028 107.22 209.997 109.064 203.583C111.638 194.719 113.634 177.762 111.817 166.793V166.71C111.643 165.603 111.699 164.472 111.981 163.388C112.264 162.304 112.767 161.29 113.46 160.409C114.152 159.528 115.019 158.799 116.005 158.268C116.992 157.737 118.078 157.415 119.194 157.323C122.539 157.062 125.883 156.938 129.256 156.924C135.909 156.846 142.56 157.237 149.158 158.094C157.637 159.47 167.23 162.003 167.23 162.003C167.23 162.003 168.606 162.567 167.946 171.637C167.395 180.24 164.174 208.18 139.689 234.703Z" fill="#263238"/>
<path d="M155.366 149.643C155.366 149.643 149.97 153.125 149.048 155.437C148.99 155.58 148.944 155.728 148.91 155.878C148.643 157.191 148.459 158.52 148.36 159.856C149.929 164.467 144.024 167.109 144.024 167.109C133.509 163.957 131.045 158.851 131.045 158.851C139.702 155.465 141.354 138.866 141.354 138.866L145.552 142.1L155.366 149.643Z" fill="#B97964"/>
<path opacity="0.2" d="M155.366 149.643C155.366 149.643 149.97 153.125 149.048 155.437C148.99 155.58 148.944 155.727 148.911 155.878C146.627 154.131 144.805 151.852 143.606 149.239C142.406 146.626 141.865 143.759 142.029 140.889L145.538 142.073L155.366 149.643Z" fill="black"/>
<path d="M161.367 110.733C161.367 110.733 172.268 107.677 177.553 116.486C182.838 125.295 178.613 131.97 174.952 135.15" stroke="#263238" stroke-width="0.34575" stroke-linecap="round" stroke-linejoin="round"/>
<path d="M165.716 110.251C165.716 110.251 174.608 110.526 177.058 118.041C179.508 125.556 177.691 133.993 164.491 143.077C158.036 147.523 142.001 138.838 142.001 138.838L140.721 142.72C138.578 141.168 136.632 139.36 134.927 137.338C129.738 131.254 131.073 111.104 145.47 107.154C160.514 103.039 165.716 110.251 165.716 110.251Z" fill="#263238"/>
<path d="M157.224 112.769C168.538 114.311 171.346 120.849 170.589 132.617C169.639 147.303 165.001 157.213 151.319 152.175C132.683 145.335 138.464 110.209 157.224 112.769Z" fill="#B97964"/>
<path d="M163.363 130.979C164.04 132.79 164.932 134.514 166.019 136.113C165.627 136.537 165.124 136.844 164.568 136.999C164.011 137.155 163.423 137.153 162.867 136.994L163.363 130.979Z" fill="#A24E3F"/>
<path d="M156.563 129.121C156.453 130.043 155.861 130.745 155.187 130.676C154.512 130.607 154.155 129.795 154.251 128.859C154.347 127.924 154.953 127.235 155.627 127.304C156.302 127.373 156.673 128.185 156.563 129.121Z" fill="#263238"/>
<path d="M155.379 127.318L157.485 126.754C157.485 126.754 156.288 128.35 155.379 127.318Z" fill="#263238"/>
<path d="M168.18 130.222C168.07 131.158 167.478 131.86 166.803 131.791C166.129 131.722 165.771 130.91 165.868 129.974C165.964 129.038 166.57 128.336 167.244 128.419C167.918 128.502 168.276 129.3 168.18 130.222Z" fill="#263238"/>
<path d="M166.982 128.488L169.088 127.923C169.088 127.923 167.891 129.451 166.982 128.488Z" fill="#263238"/>
<path d="M157.527 121.303C156.649 121.07 155.73 121.042 154.84 121.221C153.949 121.4 153.112 121.781 152.393 122.335" stroke="#263238" stroke-width="0.501116" stroke-linecap="round" stroke-linejoin="round"/>
<path d="M165.799 121.936C166.597 121.845 167.406 121.937 168.164 122.204C168.923 122.471 169.61 122.906 170.176 123.478" stroke="#263238" stroke-width="0.501116" stroke-linecap="round" stroke-linejoin="round"/>
<path d="M142.276 130.126C142.276 130.126 148.828 121.565 149.007 114.284C149.007 114.284 172.653 108.186 170.657 131.076C170.657 131.076 175.598 111.187 156.233 108.09C136.867 104.993 132.394 131.667 141.285 141.508C141.285 141.508 138.216 135.494 142.276 130.126Z" fill="#263238"/>
<path d="M143.804 132.768C143.872 131.446 143.413 130.151 142.529 129.165C141.644 128.18 140.405 127.585 139.083 127.511C135.532 127.414 132.876 134.392 141.354 137.297C142.579 137.709 143.446 136.581 143.804 132.768Z" fill="#B97964"/>
<path d="M162.262 140.366C161.778 141.712 161.396 143.092 161.119 144.495H160.362C156.949 144.33 155.421 143.119 154.76 141.853C154.451 141.219 154.296 140.521 154.306 139.816C154.303 139.416 154.354 139.018 154.458 138.632C156.524 139.66 158.785 140.237 161.092 140.325C161.807 140.366 162.262 140.366 162.262 140.366Z" fill="#263238"/>
<path d="M161.091 140.297L160.72 141.508C157.513 141.343 155.214 140.806 154.306 139.788C154.303 139.388 154.354 138.99 154.457 138.604C156.523 139.633 158.785 140.21 161.091 140.297Z" fill="white"/>
<path d="M160.362 144.468C156.949 144.303 155.421 143.091 154.76 141.825C156.057 141.908 157.33 142.22 158.518 142.747C159.301 143.109 159.947 143.712 160.362 144.468Z" fill="#DE5753"/>
<path d="M97.7917 227.794C78.5224 255.156 82.5139 283.62 135.105 306.798L93.6213 313.529L94.7086 328.573C94.7086 328.573 135.711 332.702 169.033 332.702C183.513 332.702 190.601 308.023 171.607 286.744C152.613 265.465 128.444 250.986 128.444 250.986C135.174 246.182 139.689 234.662 139.689 234.662L97.7917 227.794Z" fill="#6F9200"/>
<path d="M129.311 156.167C132.418 178.574 130.308 201.395 123.145 222.853C111.225 257.414 84.3857 290.571 84.3857 290.571C84.3857 290.571 76.5541 252.032 96.5942 227.064C96.5942 227.064 111.198 199.702 110.152 168.816C109.601 152.836 129.311 156.167 129.311 156.167Z" fill="#6F9200"/>
<path opacity="0.6" d="M123.158 222.853C111.225 257.414 84.3858 290.584 84.3858 290.584C84.3858 290.584 76.5404 252.046 96.5943 227.064C102.788 214.527 106.995 201.103 109.064 187.273C109.97 181.165 110.334 174.988 110.152 168.816C110.075 167.205 110.26 165.591 110.702 164.04C113.882 153.552 129.311 156.167 129.311 156.167C132.418 178.573 130.313 201.394 123.158 222.853Z" fill="white"/>
<path d="M153.218 158.521C153.218 158.521 162.619 177.666 160.362 208.29C158.105 238.915 152.104 252.72 152.104 252.72C152.104 252.72 177.03 219.136 168.111 162.223L153.218 158.521Z" fill="#6F9200"/>
<path opacity="0.6" d="M153.218 158.521C153.218 158.521 162.619 177.666 160.362 208.29C158.105 238.915 152.104 252.72 152.104 252.72C152.104 252.72 177.03 219.136 168.111 162.223L153.218 158.521Z" fill="white"/>
<path d="M159.192 105.888C159.192 105.888 143.295 96.9412 135.711 98.3864C128.127 99.8316 131.045 104.883 131.045 104.883C130.473 104.848 129.9 104.933 129.362 105.132C128.825 105.331 128.335 105.64 127.923 106.038C127.511 106.437 127.187 106.917 126.971 107.448C126.755 107.979 126.652 108.549 126.668 109.122C126.489 113.554 130.701 125.185 130.701 125.185L159.192 105.888Z" fill="#6F9200"/>
<path opacity="0.2" d="M159.192 105.888C159.192 105.888 143.295 96.9412 135.711 98.3864C128.127 99.8316 131.045 104.883 131.045 104.883C130.473 104.848 129.9 104.933 129.362 105.132C128.825 105.331 128.335 105.64 127.923 106.038C127.511 106.437 127.187 106.917 126.971 107.448C126.755 107.979 126.652 108.549 126.668 109.122C126.489 113.554 130.701 125.185 130.701 125.185L159.192 105.888Z" fill="white"/>
<path d="M191.207 100.96L188.812 105.86C188.812 105.86 167.492 104.676 148.525 117.642C137.062 125.546 127.652 136.074 121.08 148.349L118.025 153.263C116.896 153.263 115.809 153.125 114.707 152.987C103.366 151.542 115.877 127.332 142.001 110.099C163.886 95.6749 183.472 94.0783 191.207 100.96Z" fill="#6F9200"/>
<path d="M205.081 200.156C205.493 199.127 205.637 198.01 205.5 196.91C205.363 195.81 204.948 194.762 204.296 193.866C202.066 190.411 196.038 188.98 196.038 188.98C196.038 188.98 195.487 196.701 197.855 199.55C200.222 202.4 205.081 200.156 205.081 200.156Z" fill="#6F9200"/>
<path d="M215.417 201.312C215.417 201.312 214.179 193.66 226.649 194.128C226.649 194.128 224.928 204.505 215.417 201.312Z" fill="#6F9200"/>
<path opacity="0.1" d="M205.081 200.156C205.493 199.127 205.637 198.01 205.5 196.91C205.363 195.81 204.948 194.762 204.296 193.866C202.066 190.411 196.038 188.98 196.038 188.98C196.038 188.98 195.487 196.701 197.855 199.55C200.222 202.4 205.081 200.156 205.081 200.156Z" fill="white"/>
<path opacity="0.1" d="M215.417 201.312C215.417 201.312 214.179 193.66 226.649 194.128C226.649 194.128 224.928 204.505 215.417 201.312Z" fill="white"/>
<path d="M218.239 198.683C218.123 198.544 217.957 198.455 217.777 198.437C217.597 198.419 217.416 198.473 217.276 198.587C216.263 199.405 215.34 200.327 214.523 201.34C213.677 202.326 212.947 203.407 212.348 204.561C211.779 205.66 211.318 206.813 210.972 208.001C210.614 207.203 210.228 206.419 209.816 205.648C208.204 202.493 205.987 199.687 203.291 197.39C203.154 197.284 202.983 197.232 202.81 197.245C202.638 197.257 202.476 197.333 202.356 197.458C202.29 197.52 202.237 197.595 202.201 197.678C202.165 197.761 202.147 197.85 202.147 197.94C202.147 198.03 202.165 198.12 202.201 198.203C202.237 198.285 202.29 198.36 202.356 198.422C204.738 200.72 206.65 203.459 207.985 206.487C209.375 209.487 210.343 212.664 210.862 215.929C211.361 219.17 211.394 222.466 210.958 225.716C210.732 227.317 210.387 228.9 209.926 230.45C209.501 231.946 208.924 233.394 208.205 234.772V234.882C208.198 234.914 208.198 234.947 208.205 234.979C207.988 235.439 207.962 235.966 208.134 236.445C208.306 236.924 208.66 237.315 209.12 237.532C209.58 237.749 210.108 237.775 210.587 237.603C211.065 237.431 211.456 237.076 211.674 236.616C212.451 234.932 213.046 233.17 213.449 231.359C213.855 229.611 214.126 227.835 214.261 226.046C214.525 222.5 214.275 218.935 213.518 215.461C213.236 214.181 212.882 212.917 212.458 211.676C212.49 210.652 212.624 209.633 212.857 208.635C213.12 207.483 213.503 206.362 214 205.29C214.487 204.21 215.096 203.189 215.817 202.248C216.532 201.3 217.344 200.428 218.239 199.647C218.365 199.518 218.436 199.345 218.436 199.165C218.436 198.985 218.365 198.812 218.239 198.683Z" fill="#6F9200"/>
<path opacity="0.3" d="M218.239 198.683C218.123 198.544 217.957 198.455 217.777 198.437C217.597 198.419 217.416 198.473 217.276 198.587C216.263 199.405 215.34 200.327 214.523 201.34C213.677 202.326 212.947 203.407 212.348 204.561C211.779 205.66 211.318 206.813 210.972 208.001C210.614 207.203 210.228 206.419 209.816 205.648C208.204 202.493 205.987 199.687 203.291 197.39C203.154 197.284 202.983 197.232 202.81 197.245C202.638 197.257 202.476 197.333 202.356 197.458C202.29 197.52 202.237 197.595 202.201 197.678C202.165 197.761 202.147 197.85 202.147 197.94C202.147 198.03 202.165 198.12 202.201 198.203C202.237 198.285 202.29 198.36 202.356 198.422C204.738 200.72 206.65 203.459 207.985 206.487C209.375 209.487 210.343 212.664 210.862 215.929C211.361 219.17 211.394 222.466 210.958 225.716C210.732 227.317 210.387 228.9 209.926 230.45C209.501 231.946 208.924 233.394 208.205 234.772V234.882C208.198 234.914 208.198 234.947 208.205 234.979C207.988 235.439 207.962 235.966 208.134 236.445C208.306 236.924 208.66 237.315 209.12 237.532C209.58 237.749 210.108 237.775 210.587 237.603C211.065 237.431 211.456 237.076 211.674 236.616C212.451 234.932 213.046 233.17 213.449 231.359C213.855 229.611 214.126 227.835 214.261 226.046C214.525 222.5 214.275 218.935 213.518 215.461C213.236 214.181 212.882 212.917 212.458 211.676C212.49 210.652 212.624 209.633 212.857 208.635C213.12 207.483 213.503 206.362 214 205.29C214.487 204.21 215.096 203.189 215.817 202.248C216.532 201.3 217.344 200.428 218.239 199.647C218.365 199.518 218.436 199.345 218.436 199.165C218.436 198.985 218.365 198.812 218.239 198.683Z" fill="white"/>
<path d="M190.436 246.857C191.366 245.414 192.391 244.034 193.505 242.728C195.648 240.208 198.192 238.06 201.034 236.369L203.525 234.827L204.393 234.29C205.712 233.533 206.961 232.658 208.123 231.675C209.224 230.712 210.339 229.487 211.797 229.487C214.33 229.487 215.541 231.51 217.055 233.272C218.45 235.156 220.131 236.809 222.038 238.172C224.791 239.755 229.484 245.632 229.36 246.705C229.236 247.779 217.124 256.491 207.049 254.633C200.934 253.514 195.212 250.835 190.436 246.857Z" fill="#6F9200"/>
<path opacity="0.2" d="M120.777 191.801C116.501 191.642 112.399 190.063 109.119 187.314C110.025 181.206 110.388 175.03 110.206 168.857C110.129 167.246 110.315 165.633 110.757 164.081C115.671 170.839 130.412 192.077 120.777 191.801Z" fill="black"/>
<path d="M116.758 158.534C123.847 157.915 138.285 204.051 143.708 209.103C149.131 214.154 195.006 244.889 195.006 244.889C197.167 244.693 199.341 244.693 201.502 244.889C204.035 245.26 215.596 248.522 215.596 248.522C215.596 248.522 211.261 256.189 206.925 257.771C202.59 259.354 190.973 254.62 189.597 250.642C189.597 250.642 144.08 227.587 134.142 221.05C124.205 214.512 113.634 183.474 110.978 174.431C108.321 165.389 112.519 158.892 116.758 158.534Z" fill="#B97964"/>
</svg>
