<svg width="970" height="977" viewBox="0 0 970 977" fill="none" xmlns="http://www.w3.org/2000/svg">
<g opacity="0.8" filter="url(#filter0_d_59_174)">
<path fill-rule="evenodd" clip-rule="evenodd" d="M957.978 473.836C957.978 731.11 746.435 939.672 485.484 939.672C224.532 939.672 12.9893 731.11 12.9893 473.836C12.9893 216.562 224.532 8 485.484 8C746.435 8 957.978 216.562 957.978 473.836ZM485.484 906.255C727.716 906.255 924.084 712.654 924.084 473.836C924.084 235.018 727.716 41.4172 485.484 41.4172C243.252 41.4172 46.8842 235.018 46.8842 473.836C46.8842 712.654 243.252 906.255 485.484 906.255Z" fill="#1D744A"/>
<path d="M924.084 473.836C924.084 712.654 727.716 906.255 485.484 906.255C243.252 906.255 46.8842 712.654 46.8842 473.836C46.8842 235.018 243.252 41.4172 485.484 41.4172C727.716 41.4172 924.084 235.018 924.084 473.836Z" fill="#609A17"/>
<path fill-rule="evenodd" clip-rule="evenodd" d="M957.978 473.836C957.978 731.11 746.435 939.672 485.484 939.672C224.532 939.672 12.9893 731.11 12.9893 473.836C12.9893 216.562 224.532 8 485.484 8C746.435 8 957.978 216.562 957.978 473.836ZM485.484 906.255C727.716 906.255 924.084 712.654 924.084 473.836C924.084 235.018 727.716 41.4172 485.484 41.4172C243.252 41.4172 46.8842 235.018 46.8842 473.836C46.8842 712.654 243.252 906.255 485.484 906.255Z" stroke="#022A41" stroke-width="16"/>
<path d="M924.084 473.836C924.084 712.654 727.716 906.255 485.484 906.255C243.252 906.255 46.8842 712.654 46.8842 473.836C46.8842 235.018 243.252 41.4172 485.484 41.4172C727.716 41.4172 924.084 235.018 924.084 473.836Z" stroke="#022A41" stroke-width="16"/>
</g>
<g opacity="0.8">
<path d="M102.409 328.27C99.6389 328.427 94.0991 330.593 94.0991 337.241C94.0991 343.889 99.5759 345.11 102.314 344.889L173.986 345.267C176.189 345.33 180.596 343.737 180.596 336.863C180.596 329.989 176.189 328.27 173.986 328.27H102.409Z" fill="#022A41"/>
<path d="M95.673 371.424C92.9031 371.581 87.3633 373.747 87.3633 380.395C87.3633 387.042 92.8401 388.264 95.5786 388.043L182.994 388.421C185.198 388.484 189.604 386.891 189.604 380.017C189.604 373.143 185.198 371.424 182.994 371.424H95.673Z" fill="#022A41"/>
<path d="M95.673 416.089C92.9031 416.246 87.3633 418.412 87.3633 425.059C87.3633 431.707 92.8401 432.929 95.5786 432.708L144.253 433.086C146.457 433.149 150.863 431.556 150.863 424.682C150.863 417.807 146.457 416.089 144.253 416.089H95.673Z" fill="#022A41"/>
<path d="M118.673 476.762C115.903 476.919 110.363 479.085 110.363 485.733C110.363 492.38 115.84 493.602 118.579 493.381L182.994 493.759C185.198 493.822 189.604 492.229 189.604 485.355C189.604 478.48 185.198 476.762 182.994 476.762H118.673Z" fill="#022A41"/>
<path d="M112.863 526.64C110.093 526.797 104.554 528.963 104.554 535.611C104.554 542.259 110.03 543.48 112.769 543.259L202.17 543.637C204.373 543.7 208.78 542.107 208.78 535.233C208.78 528.359 204.373 526.64 202.17 526.64H112.863Z" fill="#022A41"/>
<path d="M119.363 564.463C116.593 564.621 111.054 566.786 111.054 573.434C111.054 580.082 116.53 581.303 119.269 581.083L218.56 581.461C220.763 581.524 225.17 579.931 225.17 573.056C225.17 566.182 220.763 564.463 218.56 564.463H119.363Z" fill="#022A41"/>
<path d="M147.06 610.493C144.29 610.65 138.75 612.815 138.75 619.463C138.75 626.111 144.227 627.332 146.966 627.112L190.753 627.49C192.957 627.553 197.363 625.96 197.363 619.086C197.363 612.211 192.957 610.493 190.753 610.493H147.06Z" fill="#022A41"/>
<path d="M801.363 328.578C798.593 328.735 793.054 330.901 793.054 337.549C793.054 344.197 798.53 345.418 801.269 345.198L865.7 345.575C867.903 345.638 872.31 344.046 872.31 337.171C872.31 330.297 867.903 328.578 865.7 328.578H801.363Z" fill="#022A41"/>
<path d="M783.458 373.281C780.688 373.438 775.148 375.604 775.148 382.252C775.148 388.899 780.625 390.121 783.363 389.9L874.648 390.278C876.851 390.341 881.258 388.748 881.258 381.874C881.258 374.999 876.851 373.281 874.648 373.281H783.458Z" fill="#022A41"/>
<path d="M829.51 416.361C826.74 416.518 821.201 418.684 821.201 425.331C821.201 431.979 826.677 433.201 829.416 432.98L879.753 433.358C881.957 433.421 886.363 431.828 886.363 424.954C886.363 418.079 881.957 416.361 879.753 416.361H829.51Z" fill="#022A41"/>
<path d="M858.173 460.303C855.403 460.46 849.863 462.626 849.863 469.273C849.863 475.921 855.34 477.143 858.079 476.922L882.106 477.3C884.31 477.363 888.716 475.77 888.716 468.896C888.716 462.021 884.31 460.303 882.106 460.303H858.173Z" fill="#022A41"/>
<path d="M786.673 460.303C783.903 460.46 778.363 462.626 778.363 469.273C778.363 475.921 783.84 477.143 786.579 476.922L831.391 477.3C833.594 477.363 838.001 475.77 838.001 468.896C838.001 462.021 833.594 460.303 831.391 460.303H786.673Z" fill="#022A41"/>
<path d="M771.348 525.766C768.578 525.923 763.038 528.089 763.038 534.737C763.038 541.385 768.515 542.606 771.253 542.385H873.753C875.957 542.448 880.363 540.856 880.363 533.981C880.363 527.107 875.957 525.388 873.753 525.388L771.348 525.766Z" fill="#022A41"/>
<path d="M778.363 564.396C775.593 564.554 770.054 566.719 770.054 573.367C770.054 580.015 775.53 581.236 778.269 581.016H862.459C864.663 581.079 869.069 579.486 869.069 572.612C869.069 565.737 864.663 564.018 862.459 564.018L778.363 564.396Z" fill="#022A41"/>
<path d="M787.363 611.171C784.593 611.328 779.054 613.493 779.054 620.141C779.054 626.789 784.53 628.01 787.269 627.79H846.054C848.257 627.853 852.664 626.26 852.664 619.386C852.664 612.511 848.257 610.793 846.054 610.793L787.363 611.171Z" fill="#022A41"/>
</g>
<path opacity="0.8" d="M165.862 719.927C239.07 816.821 355.165 879.427 485.863 879.427C619.019 879.427 737.016 814.445 809.947 714.427" stroke="#022A41" stroke-width="9" stroke-linecap="round" stroke-dasharray="46 46"/>
<path opacity="0.8" d="M167.383 233.927C240.672 138.172 356.066 76.4268 485.863 76.4268C629.392 76.4268 755.309 151.928 826.158 265.427" stroke="#022A41" stroke-width="9" stroke-linecap="round" stroke-dasharray="46 46"/>
<path d="M314.537 618.776L304.719 724.07C304.6 725.35 304.799 726.634 305.487 727.719C320.378 751.195 404.343 772.149 452.658 781.304C457.155 782.156 461.184 778.48 460.823 773.917L448.537 618.776H314.537Z" fill="#996C63"/>
<path d="M318.537 354.026L345.037 398.026C346.486 400.364 347.502 402.605 348.144 404.734C363.061 429.968 397.571 413.143 381.829 382.504C381.543 381.994 381.278 381.5 381.037 381.026L356.537 326.526C356.117 324.772 355.89 322.527 356.052 320.026C319.403 313.306 315.771 339.893 318.537 354.026Z" fill="#FCE7AF"/>
<path d="M442.537 511.526C453.068 495.772 494.537 466.526 507.537 439.526C511.507 426.863 507.744 409.818 502.72 392.915C501.534 388.924 500.278 384.942 499.037 381.026L490.275 353.82C489.809 352.371 488.706 351.213 487.281 350.675L478.024 347.182L455.537 338.696L410.037 321.526C408.594 322.922 407.134 324.608 405.796 326.526C398.623 336.818 394.985 353.804 416.537 368.53C419.28 370.405 422.432 372.243 426.037 374.026L440.753 383.548C442.177 384.47 443.037 386.05 443.037 387.746V405.932C443.037 408.313 441.356 410.351 439.047 410.931C426.247 414.142 408.946 421.331 394.565 433.558L296.603 470.371C296.603 470.371 295.084 470.96 292.647 471.53C300.329 494.422 313.875 507.5 322.537 511.526L300.055 616.357C299.788 617.602 300.738 618.776 302.011 618.776H314.537H448.537H459.151C460.395 618.776 461.338 617.653 461.121 616.427L442.537 511.526Z" fill="#FCE7AF"/>
<path d="M287.037 371.026V389.026L306.477 411.647L314.537 421.026C325.415 435.53 354.371 425.382 348.144 404.734C346.977 402.76 345.93 400.529 345.037 398.026L318.537 354.026C318.305 353.101 318.102 352.058 317.945 350.927C302.81 345.327 291.033 361.993 287.037 371.026Z" fill="#FCE7AF"/>
<path d="M356.537 326.526L381.037 381.026C381.314 381.522 381.578 382.015 381.829 382.504C386.694 391.162 397.949 404.448 410.037 398.026C422.837 391.226 419.703 375.529 416.537 368.53C394.985 353.804 398.623 336.818 405.796 326.526C402.801 319.45 400.408 307.667 405.796 300.121C367.815 282.998 357.131 310.59 356.537 326.526Z" fill="#FCE7AF"/>
<path d="M405.796 326.526C407.134 324.608 408.594 322.922 410.037 321.526L455.537 338.696C454.37 323.139 451.037 290.526 422.037 293.026C413.713 293.304 408.658 296.115 405.796 300.121C400.408 307.667 402.801 319.45 405.796 326.526Z" fill="#FCE7AF"/>
<path d="M616.118 321.87C606.906 298.092 575.156 306.104 575.156 306.104L525.736 325.253L503.357 333.924L504.621 337.187L523.228 385.208L524.492 388.472L546.871 379.801L596.291 360.653C596.291 360.653 625.331 345.648 616.118 321.87Z" fill="#D4D4D4"/>
<path d="M575.156 306.104C575.156 306.104 606.906 298.092 616.118 321.87C625.331 345.648 596.291 360.653 596.291 360.653L546.871 379.801L562.948 421.295C564.345 424.9 568.4 426.69 572.004 425.294L662.795 390.116C682.192 382.6 699.958 370.897 711.502 353.592C725.849 332.085 741.502 300.873 732.209 276.89C722.95 252.993 690.495 240.318 665.388 233.936C644.99 228.751 623.716 232.059 604.091 239.663L513.657 274.702C510.052 276.099 508.262 280.154 509.658 283.758L525.736 325.253L575.156 306.104Z" fill="#D4D4D4"/>
<path d="M443.037 387.746C443.037 386.05 442.177 384.47 440.753 383.548L426.037 374.026C422.432 372.243 419.28 370.405 416.537 368.53C419.703 375.529 422.837 391.226 410.037 398.026C397.949 404.448 386.694 391.162 381.829 382.504C397.571 413.143 363.061 429.968 348.144 404.734C354.371 425.382 325.415 435.53 314.537 421.026L306.477 411.647L287.037 418.952L277.996 422.35C277.996 422.35 251.602 433.113 260.815 456.89C267.825 474.983 284.889 473.347 292.647 471.53C295.084 470.96 296.603 470.371 296.603 470.371L394.565 433.558C408.946 421.331 426.247 414.142 439.047 410.931C441.356 410.351 443.037 408.313 443.037 405.932V387.746Z" fill="#8C7373"/>
<path d="M487.281 350.675C488.706 351.213 489.809 352.371 490.275 353.82L499.037 381.026C500.278 384.942 501.534 388.924 502.72 392.915L523.228 385.208L504.621 337.187L478.024 347.182L487.281 350.675Z" fill="#8C7373"/>
<path d="M322.537 511.526L338.037 521.026M322.537 511.526L300.055 616.357C299.788 617.602 300.738 618.776 302.011 618.776H314.537M322.537 511.526C313.875 507.5 300.329 494.422 292.647 471.53M287.037 389.026V371.026C291.033 361.993 302.81 345.327 317.945 350.927C318.102 352.058 318.305 353.101 318.537 354.026M287.037 389.026L306.477 411.647M287.037 389.026V418.952M345.037 398.026L318.537 354.026M345.037 398.026C345.93 400.529 346.977 402.76 348.144 404.734M345.037 398.026C346.486 400.364 347.502 402.605 348.144 404.734M318.537 354.026C315.771 339.893 319.403 313.306 356.052 320.026C355.89 322.527 356.117 324.772 356.537 326.526M381.037 381.026L356.537 326.526M381.037 381.026C381.278 381.5 381.543 381.994 381.829 382.504M381.037 381.026C381.314 381.522 381.578 382.015 381.829 382.504M356.537 326.526C357.131 310.59 367.815 282.998 405.796 300.121M442.537 511.526C453.068 495.772 494.537 466.526 507.537 439.526C511.507 426.863 507.744 409.818 502.72 392.915M442.537 511.526L427.537 521.026M442.537 511.526L461.121 616.427C461.338 617.653 460.395 618.776 459.151 618.776H448.537M367.537 492.026C366.945 465.789 379.057 446.744 394.565 433.558M416.537 368.53C419.28 370.405 422.432 372.243 426.037 374.026L440.753 383.548C442.177 384.47 443.037 386.05 443.037 387.746V405.932C443.037 408.313 441.356 410.351 439.047 410.931C426.247 414.142 408.946 421.331 394.565 433.558M416.537 368.53C419.703 375.529 422.837 391.226 410.037 398.026C397.949 404.448 386.694 391.162 381.829 382.504M416.537 368.53C394.985 353.804 398.623 336.818 405.796 326.526M405.796 326.526C407.134 324.608 408.594 322.922 410.037 321.526L455.537 338.696M405.796 326.526C402.801 319.45 400.408 307.667 405.796 300.121M455.537 338.696C454.37 323.139 451.037 290.526 422.037 293.026C413.713 293.304 408.658 296.115 405.796 300.121M455.537 338.696L478.024 347.182M314.537 618.776L304.719 724.07C304.6 725.35 304.799 726.634 305.487 727.719C320.378 751.195 404.343 772.149 452.658 781.304C457.155 782.157 461.184 778.48 460.823 773.917L448.537 618.776M314.537 618.776H448.537M504.621 337.187L523.228 385.208M504.621 337.187L503.357 333.924L525.736 325.253M504.621 337.187L478.024 347.182M523.228 385.208L524.492 388.472L546.871 379.801M523.228 385.208L502.72 392.915M525.736 325.253L575.156 306.104C575.156 306.104 606.906 298.092 616.118 321.87C625.331 345.648 596.291 360.653 596.291 360.653L546.871 379.801M525.736 325.253L509.658 283.758C508.262 280.154 510.052 276.099 513.657 274.702L604.091 239.663C623.716 232.059 644.99 228.751 665.388 233.936C690.495 240.318 722.95 252.993 732.209 276.89C741.502 300.873 725.849 332.085 711.502 353.592C699.958 370.897 682.192 382.6 662.795 390.116L572.004 425.294C568.4 426.69 564.345 424.9 562.948 421.295L546.871 379.801M502.72 392.915C501.534 388.924 500.278 384.942 499.037 381.026L490.275 353.82C489.809 352.371 488.706 351.213 487.281 350.675L478.024 347.182M306.477 411.647L314.537 421.026C325.415 435.53 354.371 425.382 348.144 404.734M306.477 411.647L287.037 418.952M394.565 433.558L296.603 470.371C296.603 470.371 295.084 470.96 292.647 471.53M287.037 418.952L277.996 422.35C277.996 422.35 251.602 433.113 260.815 456.89C267.825 474.983 284.889 473.347 292.647 471.53M348.144 404.734C363.061 429.968 397.571 413.143 381.829 382.504" stroke="#18384A" stroke-width="16" stroke-linecap="round"/>
<defs>
<filter id="filter0_d_59_174" x="0.989258" y="0" width="968.989" height="976.672" filterUnits="userSpaceOnUse" color-interpolation-filters="sRGB">
<feFlood flood-opacity="0" result="BackgroundImageFix"/>
<feColorMatrix in="SourceAlpha" type="matrix" values="0 0 0 0 0 0 0 0 0 0 0 0 0 0 0 0 0 0 127 0" result="hardAlpha"/>
<feOffset dy="25"/>
<feGaussianBlur stdDeviation="2"/>
<feComposite in2="hardAlpha" operator="out"/>
<feColorMatrix type="matrix" values="0 0 0 0 0 0 0 0 0 0 0 0 0 0 0 0 0 0 0.25 0"/>
<feBlend mode="normal" in2="BackgroundImageFix" result="effect1_dropShadow_59_174"/>
<feBlend mode="normal" in="SourceGraphic" in2="effect1_dropShadow_59_174" result="shape"/>
</filter>
</defs>
</svg>
