<svg width="970" height="977" viewBox="0 0 970 977" fill="none" xmlns="http://www.w3.org/2000/svg">
<g opacity="0.8" filter="url(#filter0_d_73_548)">
<path fill-rule="evenodd" clip-rule="evenodd" d="M957.925 473.836C957.925 731.11 746.382 939.672 485.43 939.672C224.479 939.672 12.9355 731.11 12.9355 473.836C12.9355 216.562 224.479 8 485.43 8C746.382 8 957.925 216.562 957.925 473.836ZM485.43 906.255C727.662 906.255 924.03 712.654 924.03 473.836C924.03 235.018 727.662 41.4172 485.43 41.4172C243.198 41.4172 46.8304 235.018 46.8304 473.836C46.8304 712.654 243.198 906.255 485.43 906.255Z" fill="#BDA41F"/>
<path d="M924.03 473.836C924.03 712.654 727.662 906.255 485.43 906.255C243.198 906.255 46.8304 712.654 46.8304 473.836C46.8304 235.018 243.198 41.4172 485.43 41.4172C727.662 41.4172 924.03 235.018 924.03 473.836Z" fill="#FABC65"/>
<path fill-rule="evenodd" clip-rule="evenodd" d="M957.925 473.836C957.925 731.11 746.382 939.672 485.43 939.672C224.479 939.672 12.9355 731.11 12.9355 473.836C12.9355 216.562 224.479 8 485.43 8C746.382 8 957.925 216.562 957.925 473.836ZM485.43 906.255C727.662 906.255 924.03 712.654 924.03 473.836C924.03 235.018 727.662 41.4172 485.43 41.4172C243.198 41.4172 46.8304 235.018 46.8304 473.836C46.8304 712.654 243.198 906.255 485.43 906.255Z" stroke="#023044" stroke-width="16"/>
<path d="M924.03 473.836C924.03 712.654 727.662 906.255 485.43 906.255C243.198 906.255 46.8304 712.654 46.8304 473.836C46.8304 235.018 243.198 41.4172 485.43 41.4172C727.662 41.4172 924.03 235.018 924.03 473.836Z" stroke="#023044" stroke-width="16"/>
</g>
<g opacity="0.8">
<path d="M102.355 328.27C99.5852 328.427 94.0453 330.593 94.0453 337.241C94.0453 343.889 99.5222 345.11 102.261 344.889L173.932 345.267C176.135 345.33 180.542 343.737 180.542 336.863C180.542 329.989 176.135 328.27 173.932 328.27H102.355Z" fill="#023044"/>
<path d="M95.6193 371.424C92.8494 371.581 87.3096 373.747 87.3096 380.395C87.3096 387.042 92.7864 388.264 95.5249 388.043L182.941 388.421C185.144 388.484 189.551 386.891 189.551 380.017C189.551 373.143 185.144 371.424 182.941 371.424H95.6193Z" fill="#023044"/>
<path d="M95.6193 416.089C92.8494 416.246 87.3096 418.412 87.3096 425.059C87.3096 431.707 92.7864 432.929 95.5249 432.708L144.2 433.086C146.403 433.149 150.81 431.556 150.81 424.682C150.81 417.807 146.403 416.089 144.2 416.089H95.6193Z" fill="#023044"/>
<path d="M118.619 476.762C115.849 476.919 110.31 479.085 110.31 485.733C110.31 492.38 115.786 493.602 118.525 493.381L182.941 493.759C185.144 493.822 189.551 492.229 189.551 485.355C189.551 478.48 185.144 476.762 182.941 476.762H118.619Z" fill="#023044"/>
<path d="M112.81 526.64C110.04 526.797 104.5 528.963 104.5 535.611C104.5 542.259 109.977 543.48 112.715 543.259L202.116 543.637C204.32 543.7 208.726 542.107 208.726 535.233C208.726 528.359 204.32 526.64 202.116 526.64H112.81Z" fill="#023044"/>
<path d="M119.31 564.463C116.54 564.621 111 566.786 111 573.434C111 580.082 116.477 581.303 119.215 581.083L218.506 581.461C220.71 581.524 225.116 579.931 225.116 573.056C225.116 566.182 220.71 564.463 218.506 564.463H119.31Z" fill="#023044"/>
<path d="M147.006 610.493C144.236 610.65 138.697 612.815 138.697 619.463C138.697 626.111 144.173 627.332 146.912 627.112L190.7 627.49C192.903 627.553 197.31 625.96 197.31 619.086C197.31 612.211 192.903 610.493 190.7 610.493H147.006Z" fill="#023044"/>
<path d="M801.31 328.578C798.54 328.735 793 330.901 793 337.549C793 344.197 798.477 345.418 801.215 345.198L865.646 345.575C867.849 345.638 872.256 344.046 872.256 337.171C872.256 330.297 867.849 328.578 865.646 328.578H801.31Z" fill="#023044"/>
<path d="M783.404 373.281C780.634 373.438 775.094 375.604 775.094 382.252C775.094 388.899 780.571 390.121 783.31 389.9L874.594 390.278C876.798 390.341 881.204 388.748 881.204 381.874C881.204 374.999 876.798 373.281 874.594 373.281H783.404Z" fill="#023044"/>
<path d="M829.456 416.361C826.687 416.518 821.147 418.684 821.147 425.331C821.147 431.979 826.624 433.201 829.362 432.98L879.7 433.358C881.903 433.421 886.31 431.828 886.31 424.954C886.31 418.079 881.903 416.361 879.7 416.361H829.456Z" fill="#023044"/>
<path d="M858.119 460.303C855.349 460.46 849.81 462.626 849.81 469.273C849.81 475.921 855.286 477.143 858.025 476.922L882.053 477.3C884.256 477.363 888.663 475.77 888.663 468.896C888.663 462.021 884.256 460.303 882.053 460.303H858.119Z" fill="#023044"/>
<path d="M786.619 460.303C783.849 460.46 778.31 462.626 778.31 469.273C778.31 475.921 783.786 477.143 786.525 476.922L831.337 477.3C833.541 477.363 837.947 475.77 837.947 468.896C837.947 462.021 833.541 460.303 831.337 460.303H786.619Z" fill="#023044"/>
<path d="M771.294 525.766C768.524 525.923 762.984 528.089 762.984 534.737C762.984 541.385 768.461 542.606 771.2 542.385H873.7C875.903 542.448 880.31 540.856 880.31 533.981C880.31 527.107 875.903 525.388 873.7 525.388L771.294 525.766Z" fill="#023044"/>
<path d="M778.31 564.396C775.54 564.554 770 566.719 770 573.367C770 580.015 775.477 581.236 778.215 581.016H862.405C864.609 581.079 869.015 579.486 869.015 572.612C869.015 565.737 864.609 564.018 862.405 564.018L778.31 564.396Z" fill="#023044"/>
<path d="M787.31 611.171C784.54 611.328 779 613.493 779 620.141C779 626.789 784.477 628.01 787.215 627.79H846C848.203 627.853 852.61 626.26 852.61 619.386C852.61 612.511 848.203 610.793 846 610.793L787.31 611.171Z" fill="#023044"/>
</g>
<path opacity="0.8" d="M165.808 719.927C239.016 816.821 355.111 879.427 485.81 879.427C618.965 879.427 736.962 814.445 809.893 714.427" stroke="#023044" stroke-width="9" stroke-linecap="round" stroke-dasharray="46 46"/>
<path opacity="0.8" d="M167.329 233.927C240.619 138.172 356.012 76.4268 485.81 76.4268C629.339 76.4268 755.255 151.928 826.104 265.427" stroke="#023044" stroke-width="9" stroke-linecap="round" stroke-dasharray="46 46"/>
<path d="M272.936 500.577C270.174 500.577 267.936 502.815 267.936 505.577V617.716C267.936 620.477 270.174 622.716 272.936 622.716H316.882V500.577H272.936Z" fill="#005CB0"/>
<path d="M316.882 500.577V622.716V639.652C316.882 640.757 317.777 641.652 318.882 641.652H345.353C356.399 641.652 365.353 632.698 365.353 621.652V606.62V513.832V502.114C365.353 491.068 356.399 482.114 345.353 482.114H318.882C317.777 482.114 316.882 483.009 316.882 484.114V500.577Z" fill="#0687FD"/>
<path d="M420.952 507.204L365.353 513.832V606.62L417.626 622.5C417.626 622.5 463.341 631.874 507.44 656.112C551.539 680.35 598.046 649.069 615.787 636.918L727.936 566.38C722.613 537.219 686.751 541.921 669.485 547.918L569.946 582.95C569.326 575.702 566.127 568.944 562.564 566.38C549.099 558.648 517.514 540.248 498.886 528.508C480.258 516.767 439.168 509.414 420.952 507.204Z" fill="#BD8E84"/>
<path d="M415.25 364.235C415.25 440.58 477.375 502.47 554.01 502.47C591.42 502.47 625.372 487.722 650.328 463.744C653.893 460.318 657.275 456.704 660.456 452.918L653.809 446.823L650.477 443.768L639.072 431.933L629.422 423.006C627.04 420.802 625.381 417.935 624.661 414.778L622.312 404.481C621.473 400.807 621.956 396.955 623.675 393.599L630.976 379.342C632.234 376.887 634.103 374.794 636.406 373.265L650.354 364.001C655.39 360.656 658.127 354.789 657.447 348.798L656.824 343.319C656.137 337.276 658.928 331.364 664.037 328.036L680.257 318.248L684.069 315.948C683.377 314.098 682.646 312.268 681.878 310.457L681.866 310.428C662.958 265.895 621.292 233.287 571.393 227.074L596.977 256.958C598.718 259.01 599.915 261.464 600.46 264.095L605.807 289.91L609.241 305.302C610.091 309.113 609.522 313.101 607.64 316.525L606.162 319.213C602.387 326.081 594.198 329.245 586.761 326.711L585.879 326.41C583.062 325.45 580.567 323.734 578.668 321.45L572.637 314.199C569.567 310.509 565.007 308.373 560.196 308.373H549.987C545.857 308.373 541.884 309.948 538.883 312.776L531.027 320.18C527.801 323.22 525.973 327.449 525.973 331.873V339.722C525.973 347.375 531.382 353.969 538.91 355.495L549.346 357.609C552.391 358.226 555.192 359.705 557.415 361.868L567.632 371.809C571.835 375.899 573.479 381.94 571.923 387.585L569.204 397.454C568.286 400.784 566.318 403.731 563.59 405.861L550.208 416.31L544.723 420.5C539.435 424.538 537.178 431.396 539.039 437.77L540.988 444.443C542.567 449.852 541.013 455.687 536.95 459.604C532.124 464.257 524.81 465.217 518.939 461.967L507.886 455.85C504.821 454.153 502.393 451.509 500.968 448.317L495.051 435.054C494.133 432.996 493.659 430.769 493.659 428.517V413.343C493.659 412.168 493.788 410.998 494.043 409.851L496.188 400.235C497.545 394.153 495.257 387.838 490.314 384.021L487.311 381.703C482.465 377.962 480.162 371.812 481.365 365.823L481.918 363.067C482.743 358.959 485.143 355.333 488.608 352.96L491.407 351.042C495.791 348.04 498.411 343.079 498.411 337.779V329.401C498.411 326.483 497.615 323.621 496.108 321.119L490.597 311.968C488.305 308.163 484.538 305.47 480.186 304.524L465.91 301.421C462.631 300.708 459.656 298.996 457.399 296.522L451.365 289.91L443.223 280.988C425.663 304.143 415.25 332.978 415.25 364.235Z" fill="#005CB0"/>
<path fill-rule="evenodd" clip-rule="evenodd" d="M681.878 310.457L681.866 310.428L680.257 318.248L684.069 315.948C683.377 314.098 682.646 312.268 681.878 310.457Z" fill="#005CB0"/>
<path d="M656.824 343.319L657.447 348.798C658.127 354.789 655.39 360.656 650.354 364.001L636.406 373.265C634.103 374.794 632.234 376.887 630.976 379.342L623.675 393.599C621.956 396.955 621.473 400.807 622.312 404.481L624.661 414.778C625.381 417.935 627.04 420.802 629.422 423.006L639.072 431.933L650.477 443.768L653.809 446.823L660.456 452.918C680.627 428.915 692.77 397.988 692.77 364.235C692.77 347.25 689.695 330.98 684.069 315.948L680.257 318.248L664.037 328.036C658.928 331.364 656.137 337.276 656.824 343.319Z" fill="#6F9200"/>
<path d="M549.346 357.609L538.91 355.495C531.382 353.969 525.973 347.375 525.973 339.722V331.873C525.973 327.449 527.801 323.22 531.027 320.18L538.883 312.776C541.884 309.948 545.857 308.373 549.987 308.373H560.196C565.007 308.373 569.567 310.509 572.637 314.199L578.668 321.45C580.567 323.734 583.062 325.45 585.879 326.41L586.761 326.711C594.198 329.245 602.387 326.081 606.162 319.213L607.64 316.525C609.522 313.101 610.091 309.113 609.241 305.302L605.807 289.91L600.46 264.095C599.915 261.464 598.718 259.01 596.977 256.958L571.393 227.074C569.97 226.897 568.539 226.741 567.103 226.607C562.838 226.21 558.516 226.004 554.148 226C554.102 226 554.056 226 554.01 226C508.751 226 468.553 247.586 443.223 280.988L451.365 289.91L457.399 296.522C459.656 298.996 462.631 300.708 465.91 301.421L480.186 304.524C484.538 305.47 488.305 308.163 490.597 311.968L496.108 321.119C497.615 323.621 498.411 326.483 498.411 329.401V337.779C498.411 343.079 495.791 348.04 491.407 351.042L488.608 352.96C485.143 355.333 482.743 358.959 481.918 363.067L481.365 365.823C480.162 371.812 482.465 377.962 487.311 381.703L490.314 384.021C495.257 387.838 497.545 394.153 496.188 400.235L494.043 409.851C493.788 410.998 493.659 412.168 493.659 413.343V428.517C493.659 430.769 494.133 432.996 495.051 435.054L500.968 448.317C502.393 451.509 504.821 454.153 507.886 455.85L518.939 461.967C524.81 465.217 532.124 464.257 536.95 459.604C541.013 455.687 542.567 449.852 540.988 444.443L539.039 437.77C537.178 431.396 539.435 424.538 544.723 420.5L550.208 416.31L563.59 405.861C566.318 403.731 568.286 400.784 569.204 397.454L571.923 387.585C573.479 381.94 571.835 375.899 567.632 371.809L557.415 361.868C555.192 359.705 552.391 358.226 549.346 357.609Z" fill="#6F9200"/>
<path d="M316.882 622.716H272.936C270.174 622.716 267.936 620.477 267.936 617.716V505.577C267.936 502.815 270.174 500.577 272.936 500.577H316.882M316.882 622.716V500.577M316.882 622.716V639.652C316.882 640.757 317.777 641.652 318.882 641.652H345.353C356.399 641.652 365.353 632.698 365.353 621.652V606.62M316.882 500.577V484.114C316.882 483.009 317.777 482.114 318.882 482.114H345.353C356.399 482.114 365.353 491.068 365.353 502.114V513.832M365.353 513.832L420.952 507.204C439.168 509.414 480.258 516.767 498.886 528.508C517.514 540.248 549.099 558.648 562.564 566.38C566.127 568.944 569.326 575.702 569.946 582.95M365.353 513.832V606.62M464.671 578.216L545.456 609.461C548.941 610.565 563.189 604.855 567.791 595.732C569.759 591.829 570.318 587.301 569.946 582.95M569.946 582.95L669.485 547.918C686.751 541.921 722.613 537.219 727.936 566.38L615.787 636.918C598.046 649.069 551.539 680.35 507.44 656.112C463.341 631.874 417.626 622.5 417.626 622.5L365.353 606.62M692.77 364.235C692.77 397.988 680.627 428.915 660.456 452.918M692.77 364.235C692.77 347.25 689.695 330.98 684.069 315.948M692.77 364.235C692.77 403.312 676.494 438.602 650.328 463.744M692.77 364.235C692.77 345.16 688.892 326.987 681.878 310.457M571.393 227.074L596.977 256.958C598.718 259.01 599.915 261.464 600.46 264.095L605.807 289.91L609.241 305.302C610.091 309.113 609.522 313.101 607.64 316.525L606.162 319.213C602.387 326.081 594.198 329.245 586.761 326.711L585.879 326.41C583.062 325.45 580.567 323.734 578.668 321.45L572.637 314.199C569.567 310.509 565.007 308.373 560.196 308.373H549.987C545.857 308.373 541.884 309.948 538.883 312.776L531.027 320.18C527.801 323.22 525.973 327.449 525.973 331.873V339.722C525.973 347.375 531.382 353.969 538.91 355.495L549.346 357.609C552.391 358.226 555.192 359.705 557.415 361.868L567.632 371.809C571.835 375.899 573.479 381.94 571.923 387.585L569.204 397.454C568.286 400.784 566.318 403.731 563.59 405.861L550.208 416.31L544.723 420.5C539.435 424.538 537.178 431.396 539.039 437.77L540.988 444.443C542.567 449.852 541.013 455.687 536.95 459.604C532.124 464.257 524.81 465.217 518.939 461.967L507.886 455.85C504.821 454.153 502.393 451.509 500.968 448.317L495.051 435.054C494.133 432.996 493.659 430.769 493.659 428.517V413.343C493.659 412.168 493.788 410.998 494.043 409.851L496.188 400.235C497.545 394.153 495.257 387.838 490.314 384.021L487.311 381.703C482.465 377.962 480.162 371.812 481.365 365.823L481.918 363.067C482.743 358.959 485.143 355.333 488.608 352.96L491.407 351.042C495.791 348.04 498.411 343.079 498.411 337.779V329.401C498.411 326.483 497.615 323.621 496.108 321.119L490.597 311.968C488.305 308.163 484.538 305.47 480.186 304.524L465.91 301.421C462.631 300.708 459.656 298.996 457.399 296.522L451.365 289.91L443.223 280.988M571.393 227.074C621.292 233.287 662.958 265.895 681.866 310.428M571.393 227.074C569.97 226.897 568.539 226.741 567.103 226.607M684.069 315.948C683.377 314.098 682.646 312.268 681.878 310.457M684.069 315.948L680.257 318.248M660.456 452.918C657.275 456.704 653.893 460.318 650.328 463.744M660.456 452.918L653.809 446.823L650.477 443.768L639.072 431.933L629.422 423.006C627.04 420.802 625.381 417.935 624.661 414.778L622.312 404.481C621.473 400.807 621.956 396.955 623.675 393.599L630.976 379.342C632.234 376.887 634.103 374.794 636.406 373.265L650.354 364.001C655.39 360.656 658.127 354.789 657.447 348.798L656.824 343.319C656.137 337.276 658.928 331.364 664.037 328.036L680.257 318.248M443.223 280.988C425.663 304.143 415.25 332.978 415.25 364.235C415.25 440.58 477.375 502.47 554.01 502.47C591.42 502.47 625.372 487.722 650.328 463.744M443.223 280.988C468.553 247.586 508.751 226 554.01 226C554.056 226 554.102 226 554.148 226C558.516 226.004 562.838 226.21 567.103 226.607M681.866 310.428C681.87 310.437 681.874 310.447 681.878 310.457M681.866 310.428L681.878 310.457M681.866 310.428L680.257 318.248M681.866 310.428C662.419 264.625 618.896 231.436 567.103 226.607" stroke="#023044" stroke-width="16"/>
<defs>
<filter id="filter0_d_73_548" x="0.935547" y="0" width="968.989" height="976.672" filterUnits="userSpaceOnUse" color-interpolation-filters="sRGB">
<feFlood flood-opacity="0" result="BackgroundImageFix"/>
<feColorMatrix in="SourceAlpha" type="matrix" values="0 0 0 0 0 0 0 0 0 0 0 0 0 0 0 0 0 0 127 0" result="hardAlpha"/>
<feOffset dy="25"/>
<feGaussianBlur stdDeviation="2"/>
<feComposite in2="hardAlpha" operator="out"/>
<feColorMatrix type="matrix" values="0 0 0 0 0 0 0 0 0 0 0 0 0 0 0 0 0 0 0.25 0"/>
<feBlend mode="normal" in2="BackgroundImageFix" result="effect1_dropShadow_73_548"/>
<feBlend mode="normal" in="SourceGraphic" in2="effect1_dropShadow_73_548" result="shape"/>
</filter>
</defs>
</svg>
