<svg width="970" height="977" viewBox="0 0 970 977" fill="none" xmlns="http://www.w3.org/2000/svg">
<g opacity="0.8" filter="url(#filter0_d_71_164)">
<path fill-rule="evenodd" clip-rule="evenodd" d="M957.968 473.836C957.968 731.11 746.425 939.672 485.473 939.672C224.522 939.672 12.9785 731.11 12.9785 473.836C12.9785 216.562 224.522 8 485.473 8C746.425 8 957.968 216.562 957.968 473.836ZM485.473 906.255C727.705 906.255 924.073 712.654 924.073 473.836C924.073 235.018 727.705 41.4172 485.473 41.4172C243.241 41.4172 46.8734 235.018 46.8734 473.836C46.8734 712.654 243.241 906.255 485.473 906.255Z" fill="#1F7CBD"/>
<path d="M924.073 473.836C924.073 712.654 727.705 906.255 485.473 906.255C243.241 906.255 46.8734 712.654 46.8734 473.836C46.8734 235.018 243.241 41.4172 485.473 41.4172C727.705 41.4172 924.073 235.018 924.073 473.836Z" fill="#179A68"/>
<path fill-rule="evenodd" clip-rule="evenodd" d="M957.968 473.836C957.968 731.11 746.425 939.672 485.473 939.672C224.522 939.672 12.9785 731.11 12.9785 473.836C12.9785 216.562 224.522 8 485.473 8C746.425 8 957.968 216.562 957.968 473.836ZM485.473 906.255C727.705 906.255 924.073 712.654 924.073 473.836C924.073 235.018 727.705 41.4172 485.473 41.4172C243.241 41.4172 46.8734 235.018 46.8734 473.836C46.8734 712.654 243.241 906.255 485.473 906.255Z" stroke="#022A41" stroke-width="16"/>
<path d="M924.073 473.836C924.073 712.654 727.705 906.255 485.473 906.255C243.241 906.255 46.8734 712.654 46.8734 473.836C46.8734 235.018 243.241 41.4172 485.473 41.4172C727.705 41.4172 924.073 235.018 924.073 473.836Z" stroke="#022A41" stroke-width="16"/>
</g>
<g opacity="0.8">
<path d="M102.398 328.27C99.6281 328.427 94.0883 330.593 94.0883 337.241C94.0883 343.889 99.5652 345.11 102.304 344.889L173.975 345.267C176.178 345.33 180.585 343.737 180.585 336.863C180.585 329.989 176.178 328.27 173.975 328.27H102.398Z" fill="#023044"/>
<path d="M95.6623 371.424C92.8924 371.581 87.3525 373.747 87.3525 380.395C87.3525 387.042 92.8294 388.264 95.5678 388.043L182.984 388.421C185.187 388.484 189.594 386.891 189.594 380.017C189.594 373.143 185.187 371.424 182.984 371.424H95.6623Z" fill="#023044"/>
<path d="M95.6623 416.089C92.8924 416.246 87.3525 418.412 87.3525 425.059C87.3525 431.707 92.8294 432.929 95.5678 432.708L144.243 433.086C146.446 433.149 150.853 431.556 150.853 424.682C150.853 417.807 146.446 416.089 144.243 416.089H95.6623Z" fill="#023044"/>
<path d="M112.853 526.64C110.083 526.797 104.543 528.963 104.543 535.611C104.543 542.259 110.02 543.48 112.758 543.259L202.159 543.637C204.363 543.7 208.769 542.107 208.769 535.233C208.769 528.359 204.363 526.64 202.159 526.64H112.853Z" fill="#023044"/>
<path d="M119.353 564.463C116.583 564.621 111.043 566.786 111.043 573.434C111.043 580.082 116.52 581.303 119.258 581.083L218.549 581.461C220.753 581.524 225.159 579.931 225.159 573.056C225.159 566.182 220.753 564.463 218.549 564.463H119.353Z" fill="#023044"/>
<path d="M147.049 610.493C144.279 610.65 138.74 612.815 138.74 619.463C138.74 626.111 144.216 627.332 146.955 627.112L190.743 627.49C192.946 627.553 197.353 625.96 197.353 619.086C197.353 612.211 192.946 610.493 190.743 610.493H147.049Z" fill="#023044"/>
<path d="M801.353 328.578C798.583 328.735 793.043 330.901 793.043 337.549C793.043 344.197 798.52 345.418 801.258 345.198L865.689 345.575C867.892 345.638 872.299 344.046 872.299 337.171C872.299 330.297 867.892 328.578 865.689 328.578H801.353Z" fill="#023044"/>
<path d="M783.447 373.281C780.677 373.438 775.137 375.604 775.137 382.252C775.137 388.899 780.614 390.121 783.353 389.9L874.637 390.278C876.841 390.341 881.247 388.748 881.247 381.874C881.247 374.999 876.841 373.281 874.637 373.281H783.447Z" fill="#023044"/>
<path d="M829.499 416.361C826.73 416.518 821.19 418.684 821.19 425.331C821.19 431.979 826.667 433.201 829.405 432.98L879.743 433.358C881.946 433.421 886.353 431.828 886.353 424.954C886.353 418.079 881.946 416.361 879.743 416.361H829.499Z" fill="#023044"/>
<path d="M771.337 525.766C768.567 525.923 763.027 528.089 763.027 534.737C763.027 541.385 768.504 542.606 771.243 542.385H873.743C875.946 542.448 880.353 540.856 880.353 533.981C880.353 527.107 875.946 525.388 873.743 525.388L771.337 525.766Z" fill="#023044"/>
<path d="M778.353 564.396C775.583 564.554 770.043 566.719 770.043 573.367C770.043 580.015 775.52 581.236 778.258 581.016H862.448C864.652 581.079 869.058 579.486 869.058 572.612C869.058 565.737 864.652 564.018 862.448 564.018L778.353 564.396Z" fill="#023044"/>
<path d="M787.353 611.171C784.583 611.328 779.043 613.493 779.043 620.141C779.043 626.789 784.52 628.01 787.258 627.79H846.043C848.246 627.853 852.653 626.26 852.653 619.386C852.653 612.511 848.246 610.793 846.043 610.793L787.353 611.171Z" fill="#023044"/>
</g>
<path opacity="0.8" d="M165.851 719.927C239.059 816.821 355.154 879.427 485.853 879.427C619.008 879.427 737.005 814.445 809.936 714.427" stroke="#09434B" stroke-width="9" stroke-linecap="round" stroke-dasharray="46 46"/>
<path opacity="0.8" d="M167.372 233.927C240.661 138.172 356.055 76.4268 485.853 76.4268C629.381 76.4268 755.298 151.928 826.147 265.427" stroke="#09434B" stroke-width="9" stroke-linecap="round" stroke-dasharray="46 46"/>
<path d="M627.628 584.249C627.628 611.273 616.406 637.351 593.942 652.373C566.042 671.03 524.439 693.013 483.303 693.013C450.531 693.013 408.475 671.649 378.226 653.169C352.737 637.597 338.979 609.161 338.979 579.293V529.178V463.013C338.979 463.013 338.979 318.513 483.303 318.513C627.628 318.513 627.628 463.013 627.628 463.013V529.178V584.249Z" fill="#E7A99C" stroke="#18384A" stroke-width="16"/>
<path d="M780.979 443.013C780.979 417.079 708.254 407.881 624.367 393.013C612.948 390.989 601.322 389.161 589.645 387.555C576.842 385.794 563.977 384.3 551.255 383.105C527.746 380.898 504.723 379.716 483.479 379.77C463.376 379.821 441.672 380.997 419.479 383.105C406.901 384.301 394.167 385.796 381.479 387.555C369.889 389.162 358.338 390.99 346.979 393.013C262.679 408.022 188.979 417.474 188.979 443.013C188.978 476.513 339.479 499.013 339.479 499.013L344.479 422.891C376.605 416.885 438.912 406.443 483.479 406.513C527.012 406.581 587.46 416.728 620.185 422.891L627.979 499.013C627.979 499.013 780.979 471.013 780.979 443.013Z" fill="#6F9200"/>
<path fill-rule="evenodd" clip-rule="evenodd" d="M346.979 339.513V301.845C346.979 291.978 351.989 282.779 360.431 277.67C375.985 268.258 401.72 253.425 419.479 247.002C431.206 242.76 439.359 235.406 447.163 228.366C457.426 219.109 467.086 210.395 483.479 210.013C500.752 209.61 511.089 218.661 522.12 228.318C530.377 235.547 539.022 243.115 551.255 247.313C569.266 253.494 595.218 268.289 610.87 277.691C619.342 282.78 624.367 291.99 624.367 301.873V339.513H346.979Z" fill="#6F9200"/>
<path d="M346.979 393.013C358.338 390.99 369.889 389.162 381.479 387.555C394.167 385.796 406.901 384.301 419.479 383.105C441.672 380.997 463.376 379.821 483.479 379.77C504.723 379.716 527.746 380.898 551.255 383.105C563.977 384.3 576.842 385.794 589.645 387.555C601.322 389.161 612.948 390.989 624.367 393.013V339.513H346.979V393.013Z" fill="#673729"/>
<path d="M188.979 443.013L196.979 443.013L188.979 443.013ZM483.479 379.77L483.499 387.77L483.479 379.77ZM339.479 499.013L338.296 506.925L346.892 508.21L347.461 499.537L339.479 499.013ZM627.979 499.013L620.02 499.828L620.902 508.441L629.419 506.882L627.979 499.013ZM344.479 422.891L343.008 415.027L342.85 415.057L342.693 415.093L344.479 422.891ZM620.185 422.891L621.807 415.057L621.736 415.042L621.665 415.029L620.185 422.891ZM483.479 406.513L483.491 398.513L483.479 406.513ZM346.979 393.013L348.381 400.889L346.979 393.013ZM624.367 393.013L622.971 400.89L624.367 393.013ZM483.479 210.013L483.292 202.015L483.292 202.015L483.479 210.013ZM381.479 387.555L382.577 395.479L381.479 387.555ZM589.645 387.555L588.555 395.481L589.645 387.555ZM551.255 247.313L548.659 254.88L551.255 247.313ZM419.479 247.002L416.758 239.479L416.758 239.479L419.479 247.002ZM419.479 383.105L420.235 391.07L419.479 383.105ZM551.255 383.105L552.003 375.141L551.255 383.105ZM467.106 250.635C469.112 246.698 467.548 241.881 463.611 239.874C459.675 237.868 454.857 239.433 452.851 243.369L467.106 250.635ZM415.881 278.867C411.935 280.854 410.346 285.663 412.333 289.61C414.319 293.556 419.129 295.145 423.076 293.159L415.881 278.867ZM548.11 293.369C552.173 295.106 556.874 293.221 558.611 289.158C560.348 285.095 558.463 280.394 554.4 278.657L548.11 293.369ZM517.441 244.12C515.85 239.998 511.218 237.947 507.097 239.539C502.975 241.13 500.924 245.762 502.516 249.884L517.441 244.12ZM447.163 228.366L441.805 222.426L441.805 222.426L447.163 228.366ZM522.12 228.318L516.85 234.337L516.85 234.337L522.12 228.318ZM610.87 277.691L614.989 270.833L610.87 277.691ZM180.979 443.013C180.978 450.376 185.117 456.364 190.002 460.9C194.95 465.495 201.63 469.53 209.012 473.098C223.832 480.262 243.244 486.37 262.21 491.316C281.268 496.287 300.279 500.185 314.495 502.838C321.612 504.166 327.545 505.185 331.706 505.873C333.787 506.218 335.426 506.479 336.548 506.655C337.109 506.743 337.542 506.81 337.836 506.855C337.983 506.878 338.096 506.895 338.173 506.907C338.211 506.912 338.241 506.917 338.261 506.92C338.272 506.921 338.28 506.923 338.285 506.923C338.288 506.924 338.291 506.924 338.292 506.924C338.294 506.925 338.296 506.925 339.479 499.013C340.661 491.101 340.662 491.101 340.661 491.101C340.66 491.101 340.66 491.101 340.658 491.1C340.654 491.1 340.649 491.099 340.641 491.098C340.625 491.095 340.6 491.092 340.566 491.086C340.498 491.076 340.395 491.061 340.257 491.04C339.982 490.997 339.57 490.934 339.029 490.849C337.947 490.679 336.352 490.424 334.317 490.088C330.248 489.415 324.423 488.415 317.43 487.11C303.428 484.497 284.814 480.677 266.247 475.834C247.588 470.968 229.375 465.17 215.976 458.693C209.248 455.441 204.171 452.223 200.889 449.175C197.543 446.068 196.979 444.025 196.979 443.013L180.979 443.013ZM772.979 443.013C772.979 442.801 773.005 444.247 769.319 447.283C765.915 450.086 760.658 453.137 753.744 456.301C739.995 462.591 721.366 468.581 702.361 473.798C683.436 478.993 664.472 483.333 650.214 486.377C643.092 487.897 637.16 489.092 633.013 489.905C630.94 490.311 629.314 490.622 628.21 490.831C627.658 490.935 627.237 491.014 626.955 491.067C626.814 491.093 626.708 491.112 626.638 491.125C626.603 491.132 626.577 491.136 626.561 491.14C626.552 491.141 626.546 491.142 626.543 491.143C626.541 491.143 626.54 491.143 626.539 491.144C626.538 491.144 626.538 491.144 627.979 499.013C629.419 506.882 629.42 506.882 629.422 506.882C629.423 506.881 629.426 506.881 629.428 506.88C629.434 506.879 629.442 506.878 629.452 506.876C629.472 506.872 629.502 506.867 629.541 506.86C629.618 506.846 629.731 506.825 629.88 506.797C630.177 506.742 630.615 506.66 631.183 506.552C632.32 506.337 633.981 506.019 636.092 505.606C640.313 504.778 646.333 503.566 653.555 502.024C667.985 498.943 687.272 494.532 706.596 489.228C725.841 483.945 745.462 477.685 760.401 470.85C767.83 467.451 774.527 463.721 779.49 459.634C784.171 455.779 788.979 450.225 788.979 443.013H772.979ZM336.496 422.366L331.496 498.489L347.461 499.537L352.461 423.415L336.496 422.366ZM635.937 498.198L628.143 422.076L612.226 423.706L620.02 499.828L635.937 498.198ZM342.693 415.093L283.193 428.715L286.764 444.311L346.264 430.689L342.693 415.093ZM618.563 430.725L684.357 444.347L687.6 428.679L621.807 415.057L618.563 430.725ZM196.979 443.013C196.979 441.083 198.268 437.786 205.788 433.479C213.049 429.32 224.04 425.486 238.355 421.813C266.931 414.481 305.896 408.453 348.381 400.889L345.576 385.137C303.762 392.581 263.727 398.785 234.378 406.315C219.73 410.074 207.027 414.33 197.835 419.595C188.902 424.712 180.979 432.173 180.979 443.013L196.979 443.013ZM788.979 443.013C788.979 432.172 781.251 424.641 772.336 419.44C763.224 414.125 750.637 409.862 736.13 406.117C707.065 398.615 667.365 392.509 625.763 385.136L622.971 400.89C665.257 408.385 703.862 414.312 732.131 421.609C746.291 425.264 757.128 429.092 764.274 433.26C771.615 437.543 772.979 440.886 772.979 443.013H788.979ZM348.381 400.889C359.638 398.885 371.088 397.073 382.577 395.479L380.38 379.631C368.69 381.252 357.037 383.096 345.576 385.137L348.381 400.889ZM625.763 385.136C614.241 383.093 602.513 381.25 590.735 379.63L588.555 395.481C600.131 397.073 611.655 398.884 622.971 400.89L625.763 385.136ZM548.659 254.88C565.751 260.746 591.012 275.095 606.751 284.549L614.989 270.833C599.424 261.484 572.78 246.242 553.852 239.747L548.659 254.88ZM364.573 284.515C380.209 275.052 405.296 260.638 422.199 254.525L416.758 239.479C398.143 246.211 371.761 261.463 356.289 270.826L364.573 284.515ZM382.577 395.479C395.156 393.735 407.776 392.254 420.235 391.07L418.722 375.141C406.026 376.348 393.178 377.856 380.38 379.631L382.577 395.479ZM420.235 391.07C442.227 388.98 463.683 387.82 483.499 387.77L483.458 371.77C463.069 371.821 441.116 373.013 418.722 375.141L420.235 391.07ZM590.735 379.63C577.822 377.854 564.843 376.346 552.003 375.141L550.508 391.07C563.112 392.254 575.862 393.735 588.555 395.481L590.735 379.63ZM552.003 375.141C528.284 372.914 505.002 371.715 483.458 371.77L483.499 387.77C504.444 387.716 527.207 388.883 550.508 391.07L552.003 375.141ZM452.851 243.369C448.011 252.864 443.697 259.088 438.381 264.173C433.018 269.301 426.235 273.656 415.881 278.867L423.076 293.159C434.023 287.648 442.415 282.454 449.439 275.736C456.51 268.974 461.796 261.053 467.106 250.635L452.851 243.369ZM554.4 278.657C542.365 273.511 534.995 269.173 529.747 264.198C524.631 259.347 521.028 253.408 517.441 244.12L502.516 249.884C506.601 260.465 511.302 268.758 518.739 275.809C526.044 282.735 535.476 287.967 548.11 293.369L554.4 278.657ZM354.979 393.013V339.513H338.979V393.013H354.979ZM354.979 339.513V301.845H338.979V339.513H354.979ZM616.367 301.873V339.513H632.367V301.873H616.367ZM616.367 339.513V393.013H632.367V339.513H616.367ZM346.979 347.513H624.367V331.513H346.979V347.513ZM422.199 254.525C435.59 249.682 444.805 241.267 452.522 234.306L441.805 222.426C433.912 229.545 426.821 235.839 416.758 239.479L422.199 254.525ZM452.522 234.306C462.921 224.926 470.566 218.316 483.665 218.011L483.292 202.015C463.606 202.474 451.93 213.292 441.805 222.426L452.522 234.306ZM483.665 218.011C497.479 217.689 505.654 224.535 516.85 234.337L527.389 222.298C516.524 212.786 504.025 201.532 483.292 202.015L483.665 218.011ZM516.85 234.337C525.009 241.48 534.741 250.104 548.659 254.88L553.852 239.747C543.303 236.127 535.744 229.613 527.389 222.298L516.85 234.337ZM345.949 430.755C378.11 424.742 439.738 414.445 483.466 414.513L483.491 398.513C438.085 398.442 375.1 409.027 343.008 415.027L345.949 430.755ZM483.466 414.513C526.172 414.579 585.953 424.585 618.704 430.753L621.665 415.029C588.967 408.871 527.852 398.582 483.491 398.513L483.466 414.513ZM606.751 284.549C612.726 288.138 616.367 294.694 616.367 301.873H632.367C632.367 289.287 625.958 277.422 614.989 270.833L606.751 284.549ZM356.289 270.826C345.369 277.434 338.979 289.277 338.979 301.845H354.979C354.979 294.679 358.609 288.124 364.573 284.515L356.289 270.826Z" fill="#18384A"/>
<g opacity="0.4">
<path d="M612.979 429.513L618.979 495.513L619.979 545.013L618.979 594.013C617.869 603.169 615.479 616.013 604.979 631.013C596.579 643.013 577.479 654.013 550.979 668.013C595.479 630.013 601.479 610.013 603.979 594.013V495.513L596.479 426.781L612.979 429.513Z" fill="white"/>
<path d="M615.979 383.513V298.5C616.145 293.333 608.4 282.1 596 278.5C597 281.667 603.5 292.1 603.5 298.5C603.5 304.9 603.167 356.513 603.5 381.513L615.979 383.513Z" fill="white"/>
<path d="M603.5 298.5C603.5 292.1 597 281.667 596 278.5L571 264L545 252.5C545 252.5 551.053 266.259 557 269.487C574.5 278.987 603.5 298.5 603.5 298.5Z" fill="white"/>
</g>
<defs>
<filter id="filter0_d_71_164" x="0.978516" y="0" width="968.989" height="976.672" filterUnits="userSpaceOnUse" color-interpolation-filters="sRGB">
<feFlood flood-opacity="0" result="BackgroundImageFix"/>
<feColorMatrix in="SourceAlpha" type="matrix" values="0 0 0 0 0 0 0 0 0 0 0 0 0 0 0 0 0 0 127 0" result="hardAlpha"/>
<feOffset dy="25"/>
<feGaussianBlur stdDeviation="2"/>
<feComposite in2="hardAlpha" operator="out"/>
<feColorMatrix type="matrix" values="0 0 0 0 0 0 0 0 0 0 0 0 0 0 0 0 0 0 0.25 0"/>
<feBlend mode="normal" in2="BackgroundImageFix" result="effect1_dropShadow_71_164"/>
<feBlend mode="normal" in="SourceGraphic" in2="effect1_dropShadow_71_164" result="shape"/>
</filter>
</defs>
</svg>
