<svg width="970" height="977" viewBox="0 0 970 977" fill="none" xmlns="http://www.w3.org/2000/svg">
<g opacity="0.8" filter="url(#filter0_d_73_375)">
<path fill-rule="evenodd" clip-rule="evenodd" d="M957.946 473.836C957.946 731.11 746.403 939.672 485.452 939.672C224.5 939.672 12.957 731.11 12.957 473.836C12.957 216.562 224.5 8 485.452 8C746.403 8 957.946 216.562 957.946 473.836ZM485.452 906.255C727.684 906.255 924.051 712.654 924.051 473.836C924.051 235.018 727.684 41.4172 485.452 41.4172C243.22 41.4172 46.8519 235.018 46.8519 473.836C46.8519 712.654 243.22 906.255 485.452 906.255Z" fill="#F9A42D"/>
<path d="M924.051 473.836C924.051 712.654 727.684 906.255 485.452 906.255C243.22 906.255 46.8519 712.654 46.8519 473.836C46.8519 235.018 243.22 41.4172 485.452 41.4172C727.684 41.4172 924.051 235.018 924.051 473.836Z" fill="#B3544E"/>
<path fill-rule="evenodd" clip-rule="evenodd" d="M957.946 473.836C957.946 731.11 746.403 939.672 485.452 939.672C224.5 939.672 12.957 731.11 12.957 473.836C12.957 216.562 224.5 8 485.452 8C746.403 8 957.946 216.562 957.946 473.836ZM485.452 906.255C727.684 906.255 924.051 712.654 924.051 473.836C924.051 235.018 727.684 41.4172 485.452 41.4172C243.22 41.4172 46.8519 235.018 46.8519 473.836C46.8519 712.654 243.22 906.255 485.452 906.255Z" stroke="#023044" stroke-width="16"/>
<path d="M924.051 473.836C924.051 712.654 727.684 906.255 485.452 906.255C243.22 906.255 46.8519 712.654 46.8519 473.836C46.8519 235.018 243.22 41.4172 485.452 41.4172C727.684 41.4172 924.051 235.018 924.051 473.836Z" stroke="#023044" stroke-width="16"/>
</g>
<g opacity="0.8">
<path d="M102.377 328.27C99.6066 328.427 94.0668 330.593 94.0668 337.241C94.0668 343.889 99.5437 345.11 102.282 344.889L173.954 345.267C176.157 345.33 180.564 343.737 180.564 336.863C180.564 329.989 176.157 328.27 173.954 328.27H102.377Z" fill="#023044"/>
<path d="M95.6408 371.424C92.8709 371.581 87.3311 373.747 87.3311 380.395C87.3311 387.042 92.8079 388.264 95.5463 388.043L182.962 388.421C185.165 388.484 189.572 386.891 189.572 380.017C189.572 373.143 185.165 371.424 182.962 371.424H95.6408Z" fill="#023044"/>
<path d="M95.6408 416.089C92.8709 416.246 87.3311 418.412 87.3311 425.059C87.3311 431.707 92.8079 432.929 95.5463 432.708L144.221 433.086C146.424 433.149 150.831 431.556 150.831 424.682C150.831 417.807 146.424 416.089 144.221 416.089H95.6408Z" fill="#023044"/>
<path d="M118.641 476.762C115.871 476.919 110.331 479.085 110.331 485.733C110.331 492.38 115.808 493.602 118.546 493.381L182.962 493.759C185.165 493.822 189.572 492.229 189.572 485.355C189.572 478.48 185.165 476.762 182.962 476.762H118.641Z" fill="#023044"/>
<path d="M112.831 526.64C110.061 526.797 104.521 528.963 104.521 535.611C104.521 542.259 109.998 543.48 112.737 543.259L202.138 543.637C204.341 543.7 208.748 542.107 208.748 535.233C208.748 528.359 204.341 526.64 202.138 526.64H112.831Z" fill="#023044"/>
<path d="M119.331 564.463C116.561 564.621 111.021 566.786 111.021 573.434C111.021 580.082 116.498 581.303 119.237 581.083L218.528 581.461C220.731 581.524 225.138 579.931 225.138 573.056C225.138 566.182 220.731 564.463 218.528 564.463H119.331Z" fill="#023044"/>
<path d="M147.028 610.493C144.258 610.65 138.718 612.815 138.718 619.463C138.718 626.111 144.195 627.332 146.933 627.112L190.721 627.49C192.924 627.553 197.331 625.96 197.331 619.086C197.331 612.211 192.924 610.493 190.721 610.493H147.028Z" fill="#023044"/>
<path d="M801.331 328.578C798.561 328.735 793.021 330.901 793.021 337.549C793.021 344.197 798.498 345.418 801.237 345.198L865.668 345.575C867.871 345.638 872.278 344.046 872.278 337.171C872.278 330.297 867.871 328.578 865.668 328.578H801.331Z" fill="#023044"/>
<path d="M783.425 373.281C780.656 373.438 775.116 375.604 775.116 382.252C775.116 388.899 780.593 390.121 783.331 389.9L874.616 390.278C876.819 390.341 881.226 388.748 881.226 381.874C881.226 374.999 876.819 373.281 874.616 373.281H783.425Z" fill="#023044"/>
<path d="M829.478 416.361C826.708 416.518 821.168 418.684 821.168 425.331C821.168 431.979 826.645 433.201 829.384 432.98L879.721 433.358C881.924 433.421 886.331 431.828 886.331 424.954C886.331 418.079 881.924 416.361 879.721 416.361H829.478Z" fill="#023044"/>
<path d="M858.141 460.303C855.371 460.46 849.831 462.626 849.831 469.273C849.831 475.921 855.308 477.143 858.046 476.922L882.074 477.3C884.277 477.363 888.684 475.77 888.684 468.896C888.684 462.021 884.277 460.303 882.074 460.303H858.141Z" fill="#023044"/>
<path d="M786.641 460.303C783.871 460.46 778.331 462.626 778.331 469.273C778.331 475.921 783.808 477.143 786.546 476.922L831.359 477.3C833.562 477.363 837.969 475.77 837.969 468.896C837.969 462.021 833.562 460.303 831.359 460.303H786.641Z" fill="#023044"/>
<path d="M771.315 525.766C768.546 525.923 763.006 528.089 763.006 534.737C763.006 541.385 768.483 542.606 771.221 542.385H873.721C875.924 542.448 880.331 540.856 880.331 533.981C880.331 527.107 875.924 525.388 873.721 525.388L771.315 525.766Z" fill="#023044"/>
<path d="M778.331 564.396C775.561 564.554 770.021 566.719 770.021 573.367C770.021 580.015 775.498 581.236 778.237 581.016H862.427C864.63 581.079 869.037 579.486 869.037 572.612C869.037 565.737 864.63 564.018 862.427 564.018L778.331 564.396Z" fill="#023044"/>
<path d="M787.331 611.171C784.561 611.328 779.021 613.493 779.021 620.141C779.021 626.789 784.498 628.01 787.237 627.79H846.021C848.225 627.853 852.631 626.26 852.631 619.386C852.631 612.511 848.225 610.793 846.021 610.793L787.331 611.171Z" fill="#023044"/>
</g>
<path opacity="0.8" d="M165.83 719.927C239.038 816.821 355.132 879.427 485.831 879.427C618.986 879.427 736.983 814.445 809.915 714.427" stroke="#023044" stroke-width="9" stroke-linecap="round" stroke-dasharray="46 46"/>
<path opacity="0.8" d="M167.351 233.927C240.64 138.172 356.034 76.4268 485.831 76.4268C629.36 76.4268 755.277 151.928 826.125 265.427" stroke="#023044" stroke-width="9" stroke-linecap="round" stroke-dasharray="46 46"/>
<path d="M507.206 604.488C508.189 606.298 510.936 605.62 510.963 603.56L511.491 563.329L512.479 487.927C512.515 485.203 511.964 482.514 510.877 480.039L449.25 496.552C449.637 498.078 450.214 499.556 450.971 500.949L488.049 569.217L507.206 604.488Z" fill="#D9D9D9"/>
<path fill-rule="evenodd" clip-rule="evenodd" d="M630.207 578.511C582.71 660.777 477.517 688.964 395.251 641.467C312.984 593.971 284.798 488.777 332.294 406.511C379.791 324.244 484.984 296.058 567.251 343.554C649.517 391.051 677.703 496.244 630.207 578.511ZM442.751 559.195C405.922 537.932 393.304 490.839 414.567 454.011C422.586 440.121 434.278 429.676 447.709 423.192L447.188 385.773C447.16 383.755 449.8 382.971 450.879 384.677L470.807 416.219C487.157 413.969 504.351 416.936 519.751 425.827C556.579 447.09 569.197 494.182 547.935 531.011C539.265 546.027 526.302 557.018 511.491 563.329L510.963 603.56C510.936 605.62 508.189 606.298 507.206 604.488L488.049 569.217C472.807 570.581 457.01 567.427 442.751 559.195Z" fill="#CFEBFF"/>
<path fill-rule="evenodd" clip-rule="evenodd" d="M372.251 681.304C476.518 741.503 609.845 705.779 670.044 601.511C726.53 503.675 698.561 380.255 608.758 315.669C602.854 311.423 596.683 307.431 590.251 303.717C583.818 300.004 577.276 296.655 570.646 293.665C469.811 248.187 348.942 285.675 292.457 383.511C232.258 487.779 267.983 621.105 372.251 681.304ZM395.251 641.467C477.517 688.964 582.71 660.777 630.207 578.511C677.703 496.244 649.517 391.051 567.251 343.554C484.984 296.058 379.791 324.244 332.294 406.511C284.798 488.777 312.984 593.971 395.251 641.467Z" fill="#F9A42D"/>
<path d="M570.646 293.665C577.276 296.655 583.818 300.004 590.251 303.717C596.683 307.431 602.854 311.423 608.758 315.669L621.51 293.583L630.307 278.346C631.411 276.433 630.756 273.987 628.842 272.882L597.659 254.878C595.746 253.774 593.299 254.429 592.195 256.342L583.619 271.196L570.646 293.665Z" fill="#B16904"/>
<path d="M547.935 531.011C569.197 494.182 556.579 447.09 519.751 425.827C504.351 416.936 487.157 413.969 470.807 416.219L509.544 477.53C510.052 478.335 510.498 479.174 510.877 480.039C511.964 482.514 512.515 485.203 512.479 487.927L511.491 563.329C526.302 557.018 539.265 546.027 547.935 531.011Z" fill="#FFD59B"/>
<path d="M414.567 454.011C393.304 490.839 405.922 537.932 442.751 559.195C457.01 567.427 472.807 570.581 488.049 569.217L450.971 500.949C450.214 499.556 449.637 498.078 449.25 496.552C448.886 495.116 448.689 493.637 448.669 492.146L447.709 423.192C434.278 429.676 422.586 440.121 414.567 454.011Z" fill="#FFD59B"/>
<path d="M450.879 384.677C449.8 382.971 447.16 383.755 447.188 385.773L447.709 423.192L448.669 492.146C448.689 493.637 448.886 495.116 449.25 496.552L510.877 480.039C510.498 479.174 510.052 478.335 509.544 477.53L470.807 416.219L450.879 384.677Z" fill="#B3544E"/>
<path d="M547.935 531.011C569.197 494.182 556.579 447.09 519.751 425.827M547.935 531.011L568.719 543.011M547.935 531.011C539.265 546.027 526.302 557.018 511.491 563.329M442.751 559.195C405.922 537.932 393.304 490.839 414.567 454.011M442.751 559.195L430.751 579.979M442.751 559.195C457.01 567.427 472.807 570.581 488.049 569.217M414.567 454.011L393.782 442.011M414.567 454.011C422.586 440.121 434.278 429.676 447.709 423.192M519.751 425.827L531.751 405.042M519.751 425.827C504.351 416.936 487.157 413.969 470.807 416.219M470.807 416.219L509.544 477.53C510.052 478.335 510.498 479.174 510.877 480.039M470.807 416.219L450.879 384.677C449.8 382.971 447.16 383.755 447.188 385.773L447.709 423.192M447.709 423.192L448.669 492.146C448.689 493.637 448.886 495.116 449.25 496.552M488.049 569.217L450.971 500.949C450.214 499.556 449.637 498.078 449.25 496.552M488.049 569.217L507.206 604.488C508.189 606.298 510.936 605.62 510.963 603.56L511.491 563.329M511.491 563.329L512.479 487.927C512.515 485.203 511.964 482.514 510.877 480.039M630.207 578.511C582.71 660.777 477.517 688.964 395.251 641.467M630.207 578.511C677.703 496.244 649.517 391.051 567.251 343.554M630.207 578.511L609.422 566.511M395.251 641.467C312.984 593.971 284.798 488.777 332.294 406.511M395.251 641.467L407.251 620.683M332.294 406.511C379.791 324.244 484.984 296.058 567.251 343.554M332.294 406.511L353.079 418.511M567.251 343.554L555.251 364.339M570.646 293.665C469.811 248.187 348.942 285.675 292.457 383.511C232.258 487.779 267.983 621.105 372.251 681.304C476.518 741.503 609.845 705.779 670.044 601.511C726.53 503.675 698.561 380.255 608.758 315.669M570.646 293.665C577.276 296.655 583.818 300.004 590.251 303.717C596.683 307.431 602.854 311.423 608.758 315.669M570.646 293.665L583.619 271.196M608.758 315.669L621.51 293.583M621.51 293.583C642.487 296.062 663.901 286.152 675.132 266.698C690.182 240.631 681.251 207.3 655.184 192.25C629.117 177.2 595.785 186.131 580.735 212.198C569.698 231.316 571.559 254.341 583.619 271.196M621.51 293.583L630.307 278.346C631.411 276.433 630.756 273.987 628.842 272.882L597.659 254.878C595.746 253.774 593.299 254.429 592.195 256.342L583.619 271.196M449.25 496.552L510.877 480.039" stroke="#023044" stroke-width="16" stroke-linecap="round"/>
<defs>
<filter id="filter0_d_73_375" x="0.957031" y="0" width="968.989" height="976.672" filterUnits="userSpaceOnUse" color-interpolation-filters="sRGB">
<feFlood flood-opacity="0" result="BackgroundImageFix"/>
<feColorMatrix in="SourceAlpha" type="matrix" values="0 0 0 0 0 0 0 0 0 0 0 0 0 0 0 0 0 0 127 0" result="hardAlpha"/>
<feOffset dy="25"/>
<feGaussianBlur stdDeviation="2"/>
<feComposite in2="hardAlpha" operator="out"/>
<feColorMatrix type="matrix" values="0 0 0 0 0 0 0 0 0 0 0 0 0 0 0 0 0 0 0.25 0"/>
<feBlend mode="normal" in2="BackgroundImageFix" result="effect1_dropShadow_73_375"/>
<feBlend mode="normal" in="SourceGraphic" in2="effect1_dropShadow_73_375" result="shape"/>
</filter>
</defs>
</svg>
