<svg width="970" height="977" viewBox="0 0 970 977" fill="none" xmlns="http://www.w3.org/2000/svg">
<g opacity="0.8" filter="url(#filter0_d_72_297)">
<path fill-rule="evenodd" clip-rule="evenodd" d="M957.957 473.836C957.957 731.11 746.414 939.672 485.462 939.672C224.511 939.672 12.9678 731.11 12.9678 473.836C12.9678 216.562 224.511 8 485.462 8C746.414 8 957.957 216.562 957.957 473.836ZM485.462 906.255C727.694 906.255 924.062 712.654 924.062 473.836C924.062 235.018 727.694 41.4172 485.462 41.4172C243.23 41.4172 46.8627 235.018 46.8627 473.836C46.8627 712.654 243.23 906.255 485.462 906.255Z" fill="#1F7CBD"/>
<path d="M924.062 473.836C924.062 712.654 727.694 906.255 485.462 906.255C243.23 906.255 46.8627 712.654 46.8627 473.836C46.8627 235.018 243.23 41.4172 485.462 41.4172C727.694 41.4172 924.062 235.018 924.062 473.836Z" fill="#FCF4DF"/>
<path fill-rule="evenodd" clip-rule="evenodd" d="M957.957 473.836C957.957 731.11 746.414 939.672 485.462 939.672C224.511 939.672 12.9678 731.11 12.9678 473.836C12.9678 216.562 224.511 8 485.462 8C746.414 8 957.957 216.562 957.957 473.836ZM485.462 906.255C727.694 906.255 924.062 712.654 924.062 473.836C924.062 235.018 727.694 41.4172 485.462 41.4172C243.23 41.4172 46.8627 235.018 46.8627 473.836C46.8627 712.654 243.23 906.255 485.462 906.255Z" stroke="#022A41" stroke-width="16"/>
<path d="M924.062 473.836C924.062 712.654 727.694 906.255 485.462 906.255C243.23 906.255 46.8627 712.654 46.8627 473.836C46.8627 235.018 243.23 41.4172 485.462 41.4172C727.694 41.4172 924.062 235.018 924.062 473.836Z" stroke="#022A41" stroke-width="16"/>
</g>
<g opacity="0.8">
<path d="M102.387 328.27C99.6174 328.427 94.0776 330.593 94.0776 337.241C94.0776 343.889 99.5544 345.11 102.293 344.889L173.964 345.267C176.168 345.33 180.574 343.737 180.574 336.863C180.574 329.989 176.168 328.27 173.964 328.27H102.387Z" fill="#023044"/>
<path d="M95.6515 371.424C92.8816 371.581 87.3418 373.747 87.3418 380.395C87.3418 387.042 92.8187 388.264 95.5571 388.043L182.973 388.421C185.176 388.484 189.583 386.891 189.583 380.017C189.583 373.143 185.176 371.424 182.973 371.424H95.6515Z" fill="#023044"/>
<path d="M95.6515 416.089C92.8816 416.246 87.3418 418.412 87.3418 425.059C87.3418 431.707 92.8187 432.929 95.5571 432.708L144.232 433.086C146.435 433.149 150.842 431.556 150.842 424.682C150.842 417.807 146.435 416.089 144.232 416.089H95.6515Z" fill="#023044"/>
<path d="M118.652 476.762C115.882 476.919 110.342 479.085 110.342 485.733C110.342 492.38 115.819 493.602 118.557 493.381L182.973 493.759C185.176 493.822 189.583 492.229 189.583 485.355C189.583 478.48 185.176 476.762 182.973 476.762H118.652Z" fill="#023044"/>
<path d="M112.842 526.64C110.072 526.797 104.532 528.963 104.532 535.611C104.532 542.259 110.009 543.48 112.747 543.259L202.149 543.637C204.352 543.7 208.759 542.107 208.759 535.233C208.759 528.359 204.352 526.64 202.149 526.64H112.842Z" fill="#023044"/>
<path d="M119.342 564.463C116.572 564.621 111.032 566.786 111.032 573.434C111.032 580.082 116.509 581.303 119.247 581.083L218.539 581.461C220.742 581.524 225.149 579.931 225.149 573.056C225.149 566.182 220.742 564.463 218.539 564.463H119.342Z" fill="#023044"/>
<path d="M147.039 610.493C144.269 610.65 138.729 612.815 138.729 619.463C138.729 626.111 144.206 627.332 146.944 627.112L190.732 627.49C192.935 627.553 197.342 625.96 197.342 619.086C197.342 612.211 192.935 610.493 190.732 610.493H147.039Z" fill="#023044"/>
<path d="M801.342 328.578C798.572 328.735 793.032 330.901 793.032 337.549C793.032 344.197 798.509 345.418 801.247 345.198L865.678 345.575C867.882 345.638 872.288 344.046 872.288 337.171C872.288 330.297 867.882 328.578 865.678 328.578H801.342Z" fill="#023044"/>
<path d="M783.436 373.281C780.666 373.438 775.127 375.604 775.127 382.252C775.127 388.899 780.603 390.121 783.342 389.9L874.627 390.278C876.83 390.341 881.237 388.748 881.237 381.874C881.237 374.999 876.83 373.281 874.627 373.281H783.436Z" fill="#023044"/>
<path d="M829.489 416.361C826.719 416.518 821.179 418.684 821.179 425.331C821.179 431.979 826.656 433.201 829.394 432.98L879.732 433.358C881.935 433.421 886.342 431.828 886.342 424.954C886.342 418.079 881.935 416.361 879.732 416.361H829.489Z" fill="#023044"/>
<path d="M858.151 460.303C855.382 460.46 849.842 462.626 849.842 469.273C849.842 475.921 855.319 477.143 858.057 476.922L882.085 477.3C884.288 477.363 888.695 475.77 888.695 468.896C888.695 462.021 884.288 460.303 882.085 460.303H858.151Z" fill="#023044"/>
<path d="M786.651 460.303C783.882 460.46 778.342 462.626 778.342 469.273C778.342 475.921 783.819 477.143 786.557 476.922L831.37 477.3C833.573 477.363 837.98 475.77 837.98 468.896C837.98 462.021 833.573 460.303 831.37 460.303H786.651Z" fill="#023044"/>
<path d="M771.326 525.766C768.556 525.923 763.017 528.089 763.017 534.737C763.017 541.385 768.493 542.606 771.232 542.385H873.732C875.935 542.448 880.342 540.856 880.342 533.981C880.342 527.107 875.935 525.388 873.732 525.388L771.326 525.766Z" fill="#023044"/>
<path d="M778.342 564.396C775.572 564.554 770.032 566.719 770.032 573.367C770.032 580.015 775.509 581.236 778.247 581.016H862.438C864.641 581.079 869.048 579.486 869.048 572.612C869.048 565.737 864.641 564.018 862.438 564.018L778.342 564.396Z" fill="#023044"/>
<path d="M787.342 611.171C784.572 611.328 779.032 613.493 779.032 620.141C779.032 626.789 784.509 628.01 787.247 627.79H846.032C848.235 627.853 852.642 626.26 852.642 619.386C852.642 612.511 848.235 610.793 846.032 610.793L787.342 611.171Z" fill="#023044"/>
</g>
<path opacity="0.8" d="M165.841 719.927C239.049 816.821 355.143 879.427 485.842 879.427C618.997 879.427 736.994 814.445 809.926 714.427" stroke="#023044" stroke-width="9" stroke-linecap="round" stroke-dasharray="46 46"/>
<path opacity="0.8" d="M167.361 233.927C240.651 138.172 356.045 76.4268 485.842 76.4268C629.371 76.4268 755.288 151.928 826.136 265.427" stroke="#023044" stroke-width="9" stroke-linecap="round" stroke-dasharray="46 46"/>
<path d="M302.355 583.342C302.355 606.509 307.546 629.881 322.055 647.942C360.29 695.535 418.975 725.999 484.775 725.999C550.576 725.999 609.26 695.535 647.495 647.942C662.005 629.881 667.196 606.509 667.196 583.342V546.021V473.375C667.196 473.375 667.196 314.719 484.775 314.719C302.355 314.719 302.355 473.375 302.355 473.375V546.021V583.342Z" fill="#996C63" stroke="#023044" stroke-width="17.5674"/>
<path opacity="0.3" fill-rule="evenodd" clip-rule="evenodd" d="M311.489 536.508L311.489 346.561H658.446V524.98L502.535 530.16L491.89 520.54C486.414 515.592 478.07 515.634 472.644 520.637L460.813 531.547L311.489 536.508Z" fill="#F01D1D"/>
<path d="M286.236 399.263C286.236 289.506 427.325 247.195 484.968 247.195C542.611 247.195 683.699 289.506 683.699 399.263C683.699 415.531 681.745 431.342 678.057 446.475H520.103C520.103 446.475 528.866 389.954 509.206 352.066C506.841 347.509 500.778 349.461 500.554 354.59C498.263 407.049 484.968 446.475 484.968 446.475H291.878C288.191 431.342 286.236 415.531 286.236 399.263Z" fill="#1E1E1E" stroke="#023044" stroke-width="17.5674"/>
<path d="M559.11 229.598C549.719 264.877 569.629 322.569 569.629 322.569C569.629 322.569 618.425 283.73 628.046 248.069C631.148 236.573 630.893 222.754 629.118 209.29L596.353 222.835L576.957 195.314C569.034 206.234 562.154 218.166 559.11 229.598Z" fill="#FCF4DF"/>
<path d="M614.813 153.942C614.813 153.942 593.587 172.397 576.957 195.314L596.353 222.835L629.118 209.29C625.364 180.823 614.813 153.942 614.813 153.942Z" fill="#B3544E"/>
<path d="M576.957 195.314C569.034 206.234 562.154 218.166 559.11 229.598C549.719 264.877 569.629 322.569 569.629 322.569C569.629 322.569 618.425 283.73 628.046 248.069C631.148 236.573 630.893 222.754 629.118 209.29M576.957 195.314C593.587 172.397 614.813 153.942 614.813 153.942C614.813 153.942 625.364 180.823 629.118 209.29M576.957 195.314L596.353 222.835L629.118 209.29" stroke="#023044" stroke-width="17.5674"/>
<path opacity="0.3" d="M345.526 606.778L405.914 587.563" stroke="#F01D1D" stroke-width="17.5674" stroke-linecap="round"/>
<path opacity="0.3" d="M624.409 606.778L564.021 587.563" stroke="#F01D1D" stroke-width="17.5674" stroke-linecap="round"/>
<path opacity="0.3" d="M361.996 633.129L422.384 613.915" stroke="#F01D1D" stroke-width="17.5674" stroke-linecap="round"/>
<path opacity="0.3" d="M607.94 633.129L547.552 613.915" stroke="#F01D1D" stroke-width="17.5674" stroke-linecap="round"/>
<defs>
<filter id="filter0_d_72_297" x="0.967773" y="0" width="968.989" height="976.672" filterUnits="userSpaceOnUse" color-interpolation-filters="sRGB">
<feFlood flood-opacity="0" result="BackgroundImageFix"/>
<feColorMatrix in="SourceAlpha" type="matrix" values="0 0 0 0 0 0 0 0 0 0 0 0 0 0 0 0 0 0 127 0" result="hardAlpha"/>
<feOffset dy="25"/>
<feGaussianBlur stdDeviation="2"/>
<feComposite in2="hardAlpha" operator="out"/>
<feColorMatrix type="matrix" values="0 0 0 0 0 0 0 0 0 0 0 0 0 0 0 0 0 0 0.25 0"/>
<feBlend mode="normal" in2="BackgroundImageFix" result="effect1_dropShadow_72_297"/>
<feBlend mode="normal" in="SourceGraphic" in2="effect1_dropShadow_72_297" result="shape"/>
</filter>
</defs>
</svg>
