<svg width="969" height="977" viewBox="0 0 969 977" fill="none" xmlns="http://www.w3.org/2000/svg">
<g opacity="0.8" filter="url(#filter0_d_66_148)">
<path fill-rule="evenodd" clip-rule="evenodd" d="M956.989 473.836C956.989 731.11 745.446 939.672 484.495 939.672C223.543 939.672 12 731.11 12 473.836C12 216.562 223.543 8 484.495 8C745.446 8 956.989 216.562 956.989 473.836ZM484.495 906.255C726.727 906.255 923.094 712.654 923.094 473.836C923.094 235.018 726.727 41.4172 484.495 41.4172C242.263 41.4172 45.8949 235.018 45.8949 473.836C45.8949 712.654 242.263 906.255 484.495 906.255Z" fill="#396B8D"/>
<path d="M923.094 473.836C923.094 712.654 726.727 906.255 484.495 906.255C242.263 906.255 45.8949 712.654 45.8949 473.836C45.8949 235.018 242.263 41.4172 484.495 41.4172C726.727 41.4172 923.094 235.018 923.094 473.836Z" fill="#D3741C"/>
<path fill-rule="evenodd" clip-rule="evenodd" d="M956.989 473.836C956.989 731.11 745.446 939.672 484.495 939.672C223.543 939.672 12 731.11 12 473.836C12 216.562 223.543 8 484.495 8C745.446 8 956.989 216.562 956.989 473.836ZM484.495 906.255C726.727 906.255 923.094 712.654 923.094 473.836C923.094 235.018 726.727 41.4172 484.495 41.4172C242.263 41.4172 45.8949 235.018 45.8949 473.836C45.8949 712.654 242.263 906.255 484.495 906.255Z" stroke="#022A41" stroke-width="16"/>
<path d="M923.094 473.836C923.094 712.654 726.727 906.255 484.495 906.255C242.263 906.255 45.8949 712.654 45.8949 473.836C45.8949 235.018 242.263 41.4172 484.495 41.4172C726.727 41.4172 923.094 235.018 923.094 473.836Z" stroke="#022A41" stroke-width="16"/>
</g>
<g opacity="0.8">
<path d="M101.42 328.27C98.6496 328.427 93.1098 330.593 93.1098 337.241C93.1098 343.889 98.5867 345.11 101.325 344.889L172.996 345.267C175.2 345.33 179.607 343.737 179.607 336.863C179.607 329.989 175.2 328.27 172.996 328.27H101.42Z" fill="#023044"/>
<path d="M94.6837 371.424C91.9138 371.581 86.374 373.747 86.374 380.395C86.374 387.042 91.8509 388.264 94.5893 388.043L182.005 388.421C184.208 388.484 188.615 386.891 188.615 380.017C188.615 373.143 184.208 371.424 182.005 371.424H94.6837Z" fill="#023044"/>
<path d="M94.6837 416.089C91.9138 416.246 86.374 418.412 86.374 425.059C86.374 431.707 91.8509 432.929 94.5893 432.708L143.264 433.086C145.467 433.149 149.874 431.556 149.874 424.682C149.874 417.807 145.467 416.089 143.264 416.089H94.6837Z" fill="#023044"/>
<path d="M117.684 476.762C114.914 476.919 109.374 479.085 109.374 485.733C109.374 492.38 114.851 493.602 117.589 493.381L182.005 493.759C184.208 493.822 188.615 492.229 188.615 485.355C188.615 478.48 184.208 476.762 182.005 476.762H117.684Z" fill="#023044"/>
<path d="M111.874 526.64C109.104 526.797 103.564 528.963 103.564 535.611C103.564 542.259 109.041 543.48 111.78 543.259L201.181 543.637C203.384 543.7 207.791 542.107 207.791 535.233C207.791 528.359 203.384 526.64 201.181 526.64H111.874Z" fill="#023044"/>
<path d="M118.374 564.463C115.604 564.621 110.064 566.786 110.064 573.434C110.064 580.082 115.541 581.303 118.28 581.083L217.571 581.461C219.774 581.524 224.181 579.931 224.181 573.056C224.181 566.182 219.774 564.463 217.571 564.463H118.374Z" fill="#023044"/>
<path d="M146.071 610.493C143.301 610.65 137.761 612.815 137.761 619.463C137.761 626.111 143.238 627.332 145.976 627.112L189.764 627.49C191.967 627.553 196.374 625.96 196.374 619.086C196.374 612.211 191.967 610.493 189.764 610.493H146.071Z" fill="#023044"/>
<path d="M800.374 328.578C797.604 328.735 792.064 330.901 792.064 337.549C792.064 344.197 797.541 345.418 800.28 345.198L864.711 345.575C866.914 345.638 871.32 344.046 871.32 337.171C871.32 330.297 866.914 328.578 864.711 328.578H800.374Z" fill="#023044"/>
<path d="M782.468 373.281C779.699 373.438 774.159 375.604 774.159 382.252C774.159 388.899 779.636 390.121 782.374 389.9L873.659 390.278C875.862 390.341 880.269 388.748 880.269 381.874C880.269 374.999 875.862 373.281 873.659 373.281H782.468Z" fill="#023044"/>
<path d="M828.521 416.361C825.751 416.518 820.211 418.684 820.211 425.331C820.211 431.979 825.688 433.201 828.427 432.98L878.764 433.358C880.967 433.421 885.374 431.828 885.374 424.954C885.374 418.079 880.967 416.361 878.764 416.361H828.521Z" fill="#023044"/>
<path d="M857.184 460.303C854.414 460.46 848.874 462.626 848.874 469.273C848.874 475.921 854.351 477.143 857.089 476.922L881.117 477.3C883.32 477.363 887.727 475.77 887.727 468.896C887.727 462.021 883.32 460.303 881.117 460.303H857.184Z" fill="#023044"/>
<path d="M785.684 460.303C782.914 460.46 777.374 462.626 777.374 469.273C777.374 475.921 782.851 477.143 785.589 476.922L830.402 477.3C832.605 477.363 837.012 475.77 837.012 468.896C837.012 462.021 832.605 460.303 830.402 460.303H785.684Z" fill="#023044"/>
<path d="M770.358 525.766C767.589 525.923 762.049 528.089 762.049 534.737C762.049 541.385 767.526 542.606 770.264 542.385H872.764C874.967 542.448 879.374 540.856 879.374 533.981C879.374 527.107 874.967 525.388 872.764 525.388L770.358 525.766Z" fill="#023044"/>
<path d="M777.374 564.396C774.604 564.554 769.064 566.719 769.064 573.367C769.064 580.015 774.541 581.236 777.28 581.016H861.47C863.673 581.079 868.08 579.486 868.08 572.612C868.08 565.737 863.673 564.018 861.47 564.018L777.374 564.396Z" fill="#023044"/>
<path d="M786.374 611.171C783.604 611.328 778.064 613.493 778.064 620.141C778.064 626.789 783.541 628.01 786.28 627.79H845.064C847.268 627.853 851.674 626.26 851.674 619.386C851.674 612.511 847.268 610.793 845.064 610.793L786.374 611.171Z" fill="#023044"/>
</g>
<path opacity="0.8" d="M164.873 719.927C238.081 816.821 354.175 879.427 484.874 879.427C618.029 879.427 736.026 814.445 808.958 714.427" stroke="#022A41" stroke-width="9" stroke-linecap="round" stroke-dasharray="46 46"/>
<path opacity="0.8" d="M166.394 233.927C239.683 138.172 355.077 76.4268 484.874 76.4268C628.403 76.4268 754.32 151.928 825.169 265.427" stroke="#022A41" stroke-width="9" stroke-linecap="round" stroke-dasharray="46 46"/>
<path d="M317.68 461.155C317.68 482.255 322.409 503.542 335.623 519.991C370.447 563.338 423.896 591.084 483.825 591.084C543.754 591.084 597.203 563.338 632.026 519.991C645.241 503.542 649.97 482.255 649.97 461.155V427.165V361C649.97 361 649.97 216.5 483.825 216.5C317.68 216.5 317.68 361 317.68 361V427.165V461.155Z" fill="#F0BDB2"/>
<path d="M317.68 461.155C317.68 482.255 322.409 503.542 335.623 519.991C370.447 563.338 423.896 591.084 483.825 591.084C543.754 591.084 597.203 563.338 632.026 519.991C645.241 503.542 649.97 482.255 649.97 461.155V427.165V361C649.97 361 649.97 216.5 483.825 216.5C317.68 216.5 317.68 361 317.68 361V427.165V461.155Z" stroke="#022A41" stroke-width="16"/>
<path d="M529.897 667.443C526.813 679.992 515.014 693.566 504.211 700.022C491.539 749.298 629.902 823.381 646.809 806.474C663.716 789.567 619.671 689.966 529.897 667.443Z" fill="#FABC65"/>
<path d="M524.977 633.785C528.83 640.675 529.897 658.988 529.897 667.443L646.809 609.286C656.327 598.221 667.862 565.053 637.86 520.903L524.977 633.785Z" fill="#FABC65"/>
<path d="M436.833 668.516C436.833 660.258 437.549 641.046 441.235 634.27L327.869 520.903C301.083 568.054 311.104 599.471 319.463 609.286L436.833 668.516Z" fill="#FABC65"/>
<path d="M458.761 698.12C447.958 691.664 439.917 681.064 436.833 668.516C347.059 691.038 302.556 789.567 319.463 806.474C336.37 823.381 471.434 747.396 458.761 698.12Z" fill="#FABC65"/>
<path d="M524.977 633.785C516.805 619.168 501.176 609.286 483.24 609.286C465.106 609.286 449.331 619.387 441.235 634.27C437.549 641.046 436.833 660.258 436.833 668.516C439.917 681.064 447.958 691.664 458.761 698.12C465.921 702.399 474.293 704.858 483.24 704.858C490.763 704.858 497.88 703.119 504.211 700.022C515.014 693.566 526.813 679.992 529.897 667.443C529.897 658.988 528.83 640.675 524.977 633.785Z" fill="#FABC65"/>
<path d="M529.897 667.443C529.897 658.988 528.83 640.675 524.977 633.785M529.897 667.443C529.897 671.005 530.636 664.104 529.897 667.443ZM529.897 667.443C526.813 679.992 515.014 693.566 504.211 700.022M529.897 667.443C619.671 689.966 663.716 789.567 646.809 806.474C629.902 823.381 491.539 749.298 504.211 700.022M529.897 667.443L646.809 609.286C656.327 598.221 667.862 565.053 637.86 520.903L524.977 633.785M436.833 668.516C435.932 664.849 436.833 672.46 436.833 668.516ZM436.833 668.516C436.833 660.258 437.549 641.046 441.235 634.27M436.833 668.516C439.917 681.064 447.958 691.664 458.761 698.12M436.833 668.516C347.059 691.038 302.556 789.567 319.463 806.474C336.37 823.381 471.434 747.396 458.761 698.12M436.833 668.516L319.463 609.286C311.104 599.471 301.083 568.054 327.869 520.903L441.235 634.27M524.977 633.785C516.805 619.168 501.176 609.286 483.24 609.286C465.106 609.286 449.331 619.387 441.235 634.27M458.761 698.12C465.921 702.399 474.293 704.858 483.24 704.858C490.763 704.858 497.88 703.119 504.211 700.022" stroke="#022A41" stroke-width="16"/>
<path fill-rule="evenodd" clip-rule="evenodd" d="M462.5 155.501C462.5 155.501 466 161 484 161C502 161 505.5 155.501 505.5 155.501C503.015 155.265 502.299 154.12 501.438 152.743C499.88 150.251 497.847 147 484 147C470.153 147 468.12 150.251 466.562 152.743C465.701 154.12 464.985 155.265 462.5 155.501Z" fill="#D9D9D9"/>
<path d="M484 305.5C423.798 305.5 400.774 314.185 380.489 321.837C372.301 324.925 364.56 327.845 355 329.958C355 329.958 414.5 368 484 368C553.5 368 613 329.958 613 329.958C603.44 327.845 595.699 324.925 587.511 321.837C567.226 314.185 544.202 305.5 484 305.5Z" fill="#606C38"/>
<path d="M306.739 309.723C306.273 313.277 303.097 315.763 299.903 317.389C293.715 320.541 291.039 328.535 289.882 335.951C288.888 342.321 295.64 346.858 301.733 344.754C310 341.899 322.106 338.063 337.5 334.126C360.898 250.977 377.822 208.564 484 161C466 161 462.5 155.501 462.5 155.501C375.818 163.742 318.217 222.283 306.739 309.723Z" fill="#8C7373"/>
<path fill-rule="evenodd" clip-rule="evenodd" d="M613 329.958C619.227 331.334 625.068 332.736 630.5 334.126C604.83 251.487 578.213 210.979 484 161C377.822 208.564 360.898 250.977 337.5 334.126C342.932 332.736 348.773 331.334 355 329.958C364.56 327.845 372.301 324.925 380.489 321.837C400.774 314.185 423.798 305.5 484 305.5C544.202 305.5 567.226 314.185 587.511 321.837C595.699 324.925 603.44 327.845 613 329.958Z" fill="#879C41"/>
<path d="M666.267 344.754C672.36 346.858 679.112 342.321 678.118 335.951C676.961 328.535 674.285 320.541 668.097 317.389C664.903 315.763 661.727 313.277 661.261 309.723C649.783 222.283 592.182 163.742 505.5 155.501C505.5 155.501 502 161 484 161C578.213 210.979 604.83 251.487 630.5 334.126C645.894 338.063 658 341.899 666.267 344.754Z" fill="#8C7373"/>
<path d="M355 329.958C355 329.958 414.5 368 484 368C553.5 368 613 329.958 613 329.958M355 329.958C348.773 331.334 342.932 332.736 337.5 334.126M355 329.958C364.56 327.845 372.301 324.925 380.489 321.837C400.774 314.185 423.798 305.5 484 305.5C544.202 305.5 567.226 314.185 587.511 321.837C595.699 324.925 603.44 327.845 613 329.958M613 329.958C619.227 331.334 625.068 332.736 630.5 334.126M462.5 155.501C375.818 163.742 318.217 222.283 306.739 309.723C306.273 313.277 303.097 315.763 299.903 317.389C293.715 320.541 291.039 328.535 289.882 335.951C288.888 342.321 295.64 346.858 301.733 344.754C310 341.899 322.106 338.063 337.5 334.126M462.5 155.501C462.5 155.501 466 161 484 161M462.5 155.501C464.985 155.265 465.701 154.12 466.562 152.743C468.12 150.251 470.153 147 484 147C497.847 147 499.88 150.251 501.438 152.743C502.299 154.12 503.015 155.265 505.5 155.501M505.5 155.501C592.182 163.742 649.783 222.283 661.261 309.723C661.727 313.277 664.903 315.763 668.097 317.389C674.285 320.541 676.961 328.535 678.118 335.951C679.112 342.321 672.36 346.858 666.267 344.754C658 341.899 645.894 338.063 630.5 334.126M505.5 155.501C505.5 155.501 502 161 484 161M484 161C377.822 208.564 360.898 250.977 337.5 334.126M484 161C578.213 210.979 604.83 251.487 630.5 334.126" stroke="#022A41" stroke-width="16"/>
<defs>
<filter id="filter0_d_66_148" x="0" y="0" width="968.989" height="976.672" filterUnits="userSpaceOnUse" color-interpolation-filters="sRGB">
<feFlood flood-opacity="0" result="BackgroundImageFix"/>
<feColorMatrix in="SourceAlpha" type="matrix" values="0 0 0 0 0 0 0 0 0 0 0 0 0 0 0 0 0 0 127 0" result="hardAlpha"/>
<feOffset dy="25"/>
<feGaussianBlur stdDeviation="2"/>
<feComposite in2="hardAlpha" operator="out"/>
<feColorMatrix type="matrix" values="0 0 0 0 0 0 0 0 0 0 0 0 0 0 0 0 0 0 0.25 0"/>
<feBlend mode="normal" in2="BackgroundImageFix" result="effect1_dropShadow_66_148"/>
<feBlend mode="normal" in="SourceGraphic" in2="effect1_dropShadow_66_148" result="shape"/>
</filter>
</defs>
</svg>
