<svg width="131" height="189" viewBox="0 0 131 189" fill="none" xmlns="http://www.w3.org/2000/svg">
<path d="M-65.1383 321.739C-54.7133 310.55 -43.6669 297.538 -32.4403 283.317M95.415 48.3082L100.543 2.85211M95.415 48.3082C95.415 48.3082 107.719 40.1171 109.339 22.9891C110.959 5.86111 100.543 2.85211 100.543 2.85211M95.415 48.3082C95.415 48.3082 88.276 45.6721 87.5816 25.3037C86.8872 4.93527 100.543 2.85211 100.543 2.85211M95.415 48.3082C94.448 58.1907 91.4072 70.0264 86.7154 83.2272M85.4378 86.7459C75.3984 77.8262 55.2513 57.651 54.9785 48.3082M85.4378 86.7459C85.4378 86.7459 83.7874 71.0641 73.048 58.1086C62.3086 45.1531 54.9785 48.3082 54.9785 48.3082M85.4378 86.7459C85.4378 86.7459 70.1501 84.3605 58.7288 71.0641C47.3075 57.7676 54.9785 48.3082 54.9785 48.3082M85.4378 86.7459C85.8763 85.5627 86.3023 84.3896 86.7154 83.2272M85.4378 86.7459C79.6864 102.266 71.7819 119.538 62.3758 137.657M86.7154 83.2272L126.745 48.3082M86.7154 83.2272C86.7154 83.2272 91.3977 65.2095 104.243 53.6764C117.089 42.1434 126.745 48.3082 126.745 48.3082M86.7154 83.2272C86.7154 83.2272 96.0459 86.0386 114.301 73.2801C132.556 60.5216 126.745 48.3082 126.745 48.3082M62.3758 137.657L39.466 84.8719M62.3758 137.657C62.3758 137.657 41.0289 134.446 35.3748 112.147C29.7207 89.8468 39.466 84.8719 39.466 84.8719M62.3758 137.657C62.3758 137.657 66.6856 124.808 58.7288 102.941C50.772 81.0752 39.466 84.8719 39.466 84.8719M62.3758 137.657C60.918 140.465 59.424 143.293 57.8964 146.139M57.8964 146.139C80.0656 140.078 91.265 135.406 109.125 124.808M57.8964 146.139C57.8964 146.139 66.6519 130.367 83.1364 121.92C99.6209 113.473 109.125 124.808 109.125 124.808M57.8964 146.139C57.8964 146.139 65.1832 153.041 87.1539 146.904C109.125 140.767 109.125 124.808 109.125 124.808M57.8964 146.139C50.9212 159.131 43.2444 172.478 35.0969 185.856M35.0969 185.856C35.0969 185.856 37.9355 167.033 31.2464 149.331C24.5572 131.63 14.3498 134.446 14.3498 134.446M35.0969 185.856C35.0969 185.856 19.4658 187.162 13.1429 167.033C6.81994 146.904 14.3498 134.446 14.3498 134.446M35.0969 185.856C23.7051 167.368 18.6208 156.376 14.3498 134.446M35.0969 185.856C34.2861 187.187 33.4706 188.519 32.6507 189.85M32.6507 189.85C58.6555 186.37 72.2284 183.281 92.5524 173.394M32.6507 189.85C32.6507 189.85 40.051 173.227 65.5598 170.13C91.0686 167.033 92.5524 173.394 92.5524 173.394M32.6507 189.85C32.6507 189.85 38.5405 198.369 67.443 194.109C96.3455 189.85 92.5524 173.394 92.5524 173.394M32.6507 189.85C23.3056 205.029 13.3846 220.207 3.22457 234.917M3.22457 234.917L-14.6159 173.394M3.22457 234.917C3.22457 234.917 -14.6159 234.917 -20.6504 207.263C-26.6849 179.609 -14.6159 173.394 -14.6159 173.394M3.22457 234.917C3.22457 234.917 9.18546 220.831 4.8957 196.602C0.605937 172.373 -14.6159 173.394 -14.6159 173.394M3.22457 234.917C1.81332 236.96 0.397453 238.994 -1.02211 241.018M-27.8518 277.45C-31.2061 275.747 -43.5808 236.805 -46.3976 218.125M-27.8518 277.45C-27.8518 277.45 -48.8606 277.45 -52.4321 249.504C-56.0036 221.559 -46.3976 218.125 -46.3976 218.125M-27.8518 277.45C-27.8518 277.45 -21.5662 260.68 -27.8518 239.044C-34.1374 217.409 -46.3976 218.125 -46.3976 218.125M-27.8518 277.45C-29.3839 279.427 -30.9138 281.383 -32.4403 283.317M-27.8518 277.45C-18.9108 265.913 -9.89406 253.666 -1.02211 241.018M-32.4403 283.317C-6.94575 286.885 7.11914 286.844 31.6487 283.317M-32.4403 283.317C-32.4403 283.317 -18.8925 270.667 5.7003 270.223C30.2931 269.779 31.6487 283.317 31.6487 283.317M-32.4403 283.317C-32.4403 283.317 -32.4457 296.428 0.470389 295.568C33.3865 294.707 31.6487 283.317 31.6487 283.317M-1.02211 241.018H68.8615M-1.02211 241.018C-1.02211 241.018 17.8582 226.091 45.7292 226.372C73.6002 226.653 68.8615 241.018 68.8615 241.018M-1.02211 241.018C-1.02211 241.018 7.31041 256.412 35.2694 256.545C63.2284 256.677 68.8615 241.018 68.8615 241.018" stroke="#6F9200" stroke-width="5.12037"/>
</svg>
