<svg width="343" height="62" viewBox="0 0 343 62" fill="none" xmlns="http://www.w3.org/2000/svg">
<g clip-path="url(#clip0_612_2270)">
<ellipse cx="31" cy="31" rx="30" ry="30" fill="#FEFAE0"/>
<path d="M27.4579 23.6007C26.7101 17.2018 25.6389 13.1947 23.1668 5.77234M27.4579 23.6007C23.7852 21.6316 21.7715 19.139 21.1973 15.3494C20.738 12.3178 22.3189 7.70152 23.1668 5.77234M27.4579 23.6007C28.7197 21.769 30.3164 18.7375 29.3506 13.914C28.3848 9.09052 25.9975 7.67873 23.1668 5.77234M27.4579 23.6007C27.7368 24.8236 28.6379 26.979 29.9857 29.7871M29.9857 29.7871C29.5323 28.8308 29.3506 22.3252 37.6239 18.239M29.9857 29.7871C30.4256 30.7036 30.913 31.6896 31.4419 32.7353M37.6239 18.239C38.8679 19.6362 41.0882 23.1036 39.5314 26.6794C37.9746 30.2552 32.8501 31.9354 31.4419 32.7353M37.6239 18.239C37.1962 25.0496 32.5257 26.9957 31.4419 32.7353M31.4419 32.7353C31.6761 33.1984 31.9184 33.6731 32.1683 34.1588M32.1683 34.1588C24.3524 30.1093 20.4604 32.8337 15.3076 27.5704M32.1683 34.1588C30.8255 34.7274 24.5219 36.3613 20.66 35.074C17.5705 34.0442 15.8045 29.6425 15.3076 27.5704M32.1683 34.1588C29.1317 29.646 26.3164 27.7741 23.1848 26.9957C20.0532 26.2172 17.0318 27.1582 15.3076 27.5704M32.1683 34.1588C33.3192 36.3953 34.6313 38.8625 36.0529 41.4779M36.0529 41.4779C35.3882 37.8268 39.698 32.5567 44.9804 29.7871M36.0529 41.4779C36.1391 41.6366 36.2258 41.7959 36.3129 41.9557M44.9804 29.7871C46.3967 31.0694 49.2615 33.2229 47.3155 38.0971C45.3695 42.9712 38.9112 44.4626 38.0359 45.0954M44.9804 29.7871C44.202 38.6659 39.5314 39.061 38.0359 45.0954M38.0359 45.0954C37.9347 44.9121 37.8338 44.7294 37.7334 44.5472M38.0359 45.0954C38.8051 48.6293 38.6301 51.97 37.4763 55.3388M36.8874 43.0075C37.1659 43.5161 37.448 44.0296 37.7334 44.5472M36.8874 43.0075C36.7849 42.6836 36.598 42.3226 36.3129 41.9557M36.8874 43.0075C36.6941 42.6545 36.5026 42.3039 36.3129 41.9557M22.2642 40.0266C22.5578 41.7656 24.0264 46.8549 28.6336 47.2344C33.2408 47.6138 36.7099 45.0955 37.7334 44.5472M22.2642 40.0266C27.4579 44.5472 32.0501 42.9219 37.7334 44.5472M22.2642 40.0266C30.7931 38.0307 34.8487 40.0719 36.3129 41.9557" stroke="#6F9200" stroke-width="1.79208" stroke-linecap="round"/>
</g>
<rect x="1" y="1" width="60.0001" height="60" rx="30" stroke="#6F9200" stroke-width="1.94603"/>
<path d="M71.1743 29.4634C70.5606 29.4634 70.0621 29.3228 69.6785 29.0416C69.3206 28.7603 69.1033 28.3896 69.0266 27.9294C68.9498 27.4436 69.0393 26.9066 69.295 26.3186L79.42 3.88254C79.7524 3.14107 80.1487 2.61692 80.6089 2.3101C81.0947 1.97772 81.6444 1.81152 82.2581 1.81152C82.8461 1.81152 83.3703 1.97772 83.8305 2.3101C84.3163 2.61692 84.7254 3.14107 85.0578 3.88254L95.2211 26.3186C95.5024 26.9066 95.6047 27.4436 95.528 27.9294C95.4513 28.4151 95.2339 28.7987 94.876 29.0799C94.518 29.3356 94.045 29.4634 93.4569 29.4634C92.741 29.4634 92.1785 29.2972 91.7694 28.9649C91.3859 28.6069 91.0407 28.07 90.7339 27.3541L88.241 21.5629L90.3121 22.9052H74.1274L76.1984 21.5629L73.7439 27.3541C73.4115 28.0955 73.0663 28.6325 72.7084 28.9649C72.3504 29.2972 71.8391 29.4634 71.1743 29.4634ZM82.1814 7.44929L76.8121 20.2206L75.8149 18.9933H88.6246L87.6657 20.2206L82.2581 7.44929H82.1814Z" fill="#6F9200"/>
<path d="M101.44 29.4634C100.673 29.4634 100.084 29.2589 99.6754 28.8498C99.2663 28.4151 99.0618 27.8015 99.0618 27.0089V12.5118C99.0618 11.7192 99.2663 11.1183 99.6754 10.7092C100.084 10.3001 100.66 10.0956 101.401 10.0956C102.143 10.0956 102.718 10.3001 103.127 10.7092C103.536 11.1183 103.741 11.7192 103.741 12.5118V15.3115L103.319 14.1609C103.83 12.8825 104.623 11.8726 105.697 11.1311C106.771 10.3896 108.049 10.0189 109.532 10.0189C111.04 10.0189 112.281 10.3768 113.252 11.0927C114.224 11.8087 114.901 12.9081 115.285 14.391H114.748C115.259 13.0359 116.103 11.9748 117.279 11.2078C118.455 10.4152 119.81 10.0189 121.344 10.0189C122.776 10.0189 123.952 10.3001 124.873 10.8626C125.819 11.4251 126.522 12.2817 126.982 13.4322C127.442 14.5572 127.673 15.989 127.673 17.7277V27.0089C127.673 27.8015 127.455 28.4151 127.021 28.8498C126.611 29.2589 126.023 29.4634 125.256 29.4634C124.489 29.4634 123.901 29.2589 123.492 28.8498C123.083 28.4151 122.879 27.8015 122.879 27.0089V17.9194C122.879 16.4876 122.636 15.4393 122.15 14.7746C121.69 14.1098 120.897 13.7774 119.772 13.7774C118.519 13.7774 117.535 14.2248 116.819 15.1197C116.103 15.989 115.745 17.2035 115.745 18.7632V27.0089C115.745 27.8015 115.54 28.4151 115.131 28.8498C114.722 29.2589 114.134 29.4634 113.367 29.4634C112.6 29.4634 111.999 29.2589 111.565 28.8498C111.156 28.4151 110.951 27.8015 110.951 27.0089V17.9194C110.951 16.4876 110.708 15.4393 110.222 14.7746C109.762 14.1098 108.982 13.7774 107.883 13.7774C106.63 13.7774 105.646 14.2248 104.93 15.1197C104.214 15.989 103.856 17.2035 103.856 18.7632V27.0089C103.856 28.6453 103.05 29.4634 101.44 29.4634Z" fill="#6F9200"/>
<path d="M79.8155 60.1885C78.2302 60.1885 76.8368 59.7922 75.6351 58.9995C74.4589 58.2069 73.6791 57.1459 73.2956 55.8163L73.7174 54.8575V57.6572C73.7174 58.4498 73.5129 59.0635 73.1038 59.4981C72.6947 59.9072 72.1194 60.1118 71.378 60.1118C70.6109 60.1118 70.0228 59.9072 69.6138 59.4981C69.2047 59.0635 69.0001 58.4498 69.0001 57.6572V34.876C69.0001 34.0834 69.2047 33.4826 69.6138 33.0735C70.0228 32.6644 70.6109 32.4598 71.378 32.4598C72.145 32.4598 72.7331 32.6644 73.1422 33.0735C73.5768 33.4826 73.7942 34.0834 73.7942 34.876V44.8476H73.3339C73.743 43.5948 74.5356 42.5848 75.7118 41.8178C76.8879 41.0507 78.2558 40.6672 79.8155 40.6672C81.4774 40.6672 82.922 41.0635 84.1493 41.8561C85.3765 42.6487 86.3353 43.7737 87.0257 45.2311C87.716 46.6629 88.0612 48.3888 88.0612 50.4087C88.0612 52.403 87.716 54.1416 87.0257 55.6245C86.3353 57.0819 85.3638 58.2069 84.1109 58.9995C82.8836 59.7922 81.4518 60.1885 79.8155 60.1885ZM78.4731 56.545C79.4192 56.545 80.2501 56.3149 80.966 55.8547C81.6819 55.3944 82.2317 54.7169 82.6152 53.822C83.0243 52.9015 83.2288 51.7638 83.2288 50.4087C83.2288 48.3632 82.7941 46.8419 81.9248 45.8447C81.0555 44.822 79.9049 44.3107 78.4731 44.3107C77.5271 44.3107 76.6961 44.5408 75.9802 45.001C75.2643 45.4357 74.7018 46.1132 74.2927 47.0337C73.9092 47.9285 73.7174 49.0535 73.7174 50.4087C73.7174 52.4285 74.1521 53.9626 75.0214 55.0109C75.8907 56.0336 77.0413 56.545 78.4731 56.545Z" fill="#6F9200"/>
<path d="M94.3743 60.0734C93.6073 60.0734 93.0192 59.8433 92.6101 59.3831C92.201 58.9228 91.9965 58.2836 91.9965 57.4655V43.3902C91.9965 42.5465 92.201 41.9073 92.6101 41.4726C93.0192 41.0124 93.6073 40.7823 94.3743 40.7823C95.1414 40.7823 95.7294 41.0124 96.1385 41.4726C96.5732 41.9073 96.7905 42.5465 96.7905 43.3902V57.4655C96.7905 58.2836 96.586 58.9228 96.1769 59.3831C95.7678 59.8433 95.1669 60.0734 94.3743 60.0734Z" fill="#6F9200"/>
<path d="M110.363 60.1885C108.701 60.1885 107.307 59.9072 106.182 59.3447C105.083 58.7822 104.265 57.964 103.728 56.8902C103.191 55.7907 102.922 54.4356 102.922 52.8248V44.6558H100.928C100.314 44.6558 99.8414 44.5024 99.509 44.1956C99.1767 43.8632 99.0105 43.4158 99.0105 42.8533C99.0105 42.2652 99.1767 41.8178 99.509 41.511C99.8414 41.2041 100.314 41.0507 100.928 41.0507H102.922V37.5607C102.922 36.7681 103.127 36.1672 103.536 35.7581C103.971 35.349 104.572 35.1445 105.339 35.1445C106.106 35.1445 106.694 35.349 107.103 35.7581C107.512 36.1672 107.716 36.7681 107.716 37.5607V41.0507H111.782C112.395 41.0507 112.868 41.2041 113.201 41.511C113.533 41.8178 113.699 42.2652 113.699 42.8533C113.699 43.4158 113.533 43.8632 113.201 44.1956C112.868 44.5024 112.395 44.6558 111.782 44.6558H107.716V52.5564C107.716 53.7836 107.985 54.7041 108.522 55.3177C109.059 55.9314 109.928 56.2382 111.13 56.2382C111.564 56.2382 111.948 56.1998 112.28 56.1231C112.613 56.0464 112.907 55.9953 113.162 55.9697C113.469 55.9441 113.725 56.0464 113.929 56.2765C114.134 56.4811 114.236 56.9157 114.236 57.5805C114.236 58.0919 114.147 58.5521 113.968 58.9612C113.814 59.3447 113.52 59.6132 113.086 59.7666C112.753 59.8689 112.319 59.9583 111.782 60.035C111.245 60.1373 110.772 60.1885 110.363 60.1885Z" fill="#6F9200"/>
<path d="M123.279 60.1885C121.72 60.1885 120.428 59.9072 119.406 59.3447C118.383 58.7566 117.616 57.8873 117.105 56.7368C116.619 55.5862 116.376 54.1544 116.376 52.4413V43.1601C116.376 42.3419 116.58 41.7411 116.99 41.3575C117.399 40.9485 117.987 40.7439 118.754 40.7439C119.521 40.7439 120.109 40.9485 120.518 41.3575C120.953 41.7411 121.17 42.3419 121.17 43.1601V52.518C121.17 53.8476 121.438 54.8319 121.975 55.4711C122.512 56.1103 123.369 56.4299 124.545 56.4299C125.823 56.4299 126.872 55.9953 127.69 55.126C128.508 54.2311 128.917 53.055 128.917 51.5976V43.1601C128.917 42.3419 129.122 41.7411 129.531 41.3575C129.94 40.9485 130.528 40.7439 131.295 40.7439C132.062 40.7439 132.65 40.9485 133.059 41.3575C133.494 41.7411 133.711 42.3419 133.711 43.1601V57.6572C133.711 59.2936 132.931 60.1118 131.372 60.1118C130.63 60.1118 130.055 59.9072 129.646 59.4981C129.237 59.0635 129.032 58.4498 129.032 57.6572V54.7424L129.569 55.893C129.032 57.2737 128.214 58.3348 127.115 59.0762C126.041 59.8177 124.762 60.1885 123.279 60.1885Z" fill="#6F9200"/>
<path d="M145.566 60.1885C144.466 60.1885 143.303 60.0734 142.076 59.8433C140.849 59.6132 139.749 59.2169 138.778 58.6544C138.368 58.3987 138.074 58.1047 137.895 57.7723C137.742 57.4143 137.678 57.0691 137.704 56.7368C137.755 56.3788 137.883 56.072 138.087 55.8163C138.317 55.5606 138.599 55.3944 138.931 55.3177C139.289 55.241 139.672 55.3049 140.082 55.5095C141.104 55.9953 142.063 56.3405 142.958 56.545C143.853 56.724 144.735 56.8135 145.604 56.8135C146.832 56.8135 147.739 56.6089 148.327 56.1998C148.941 55.7652 149.248 55.2027 149.248 54.5123C149.248 53.9243 149.043 53.4768 148.634 53.17C148.251 52.8376 147.662 52.5947 146.87 52.4413L143.035 51.7126C141.449 51.4058 140.235 50.8305 139.391 49.9868C138.573 49.1175 138.164 48.0053 138.164 46.6501C138.164 45.4229 138.496 44.3618 139.161 43.4669C139.851 42.572 140.797 41.8817 141.999 41.3959C143.201 40.9101 144.582 40.6672 146.141 40.6672C147.266 40.6672 148.314 40.795 149.286 41.0507C150.283 41.2808 151.242 41.6516 152.162 42.1629C152.546 42.3675 152.802 42.6359 152.93 42.9683C153.083 43.3007 153.121 43.6459 153.045 44.0038C152.968 44.3362 152.814 44.643 152.584 44.9243C152.354 45.18 152.06 45.3462 151.702 45.4229C151.37 45.474 150.986 45.3973 150.552 45.1928C149.759 44.7837 148.992 44.4896 148.251 44.3107C147.535 44.1317 146.844 44.0422 146.18 44.0422C144.927 44.0422 143.993 44.2595 143.38 44.6942C142.792 45.1288 142.498 45.7041 142.498 46.42C142.498 46.957 142.677 47.4044 143.035 47.7624C143.393 48.1203 143.942 48.3632 144.684 48.491L148.519 49.2197C150.181 49.5266 151.434 50.0891 152.278 50.9072C153.147 51.7254 153.582 52.8248 153.582 54.2055C153.582 56.072 152.853 57.5422 151.395 58.616C149.938 59.6643 147.995 60.1885 145.566 60.1885Z" fill="#6F9200"/>
<path d="M91.9965 37.1095L96.7905 33.6043C96.7905 33.6043 94.3743 32.4068 93.0575 34.0132C91.7407 35.6196 91.9965 37.1095 91.9965 37.1095Z" fill="#6F9200"/>
<path d="M96.7905 33.6043L91.9965 37.1095C91.9965 37.1095 93.4802 37.0569 95.3121 36.6624C97.144 36.2678 96.7905 33.6043 96.7905 33.6043Z" fill="#6F9200"/>
<defs>
<clipPath id="clip0_612_2270">
<rect x="1" y="1" width="60.0001" height="60" rx="30" fill="white"/>
</clipPath>
</defs>
</svg>
