<svg width="154" height="62" viewBox="0 0 154 62" fill="none" xmlns="http://www.w3.org/2000/svg">
<g clip-path="url(#clip0_1150_3781)">
<ellipse cx="31" cy="31" rx="30" ry="30" fill="#2D2727"/>
<path d="M27.4579 23.6008C26.7101 17.2019 25.6389 13.1948 23.1668 5.77246M27.4579 23.6008C23.7852 21.6318 21.7715 19.1391 21.1973 15.3496C20.738 12.3179 22.3189 7.70165 23.1668 5.77246M27.4579 23.6008C28.7197 21.7691 30.3164 18.7376 29.3506 13.9141C28.3848 9.09064 25.9975 7.67885 23.1668 5.77246M27.4579 23.6008C27.7368 24.8237 28.6379 26.9791 29.9857 29.7872M29.9857 29.7872C29.5323 28.831 29.3506 22.3253 37.6239 18.2391M29.9857 29.7872C30.4256 30.7037 30.913 31.6897 31.4419 32.7355M37.6239 18.2391C38.8679 19.6363 41.0882 23.1037 39.5314 26.6795C37.9746 30.2553 32.8501 31.9355 31.4419 32.7355M37.6239 18.2391C37.1962 25.0497 32.5257 26.9958 31.4419 32.7355M31.4419 32.7355C31.6761 33.1985 31.9184 33.6733 32.1683 34.1589M32.1683 34.1589C24.3524 30.1094 20.4604 32.8339 15.3076 27.5705M32.1683 34.1589C30.8255 34.7275 24.5219 36.3614 20.66 35.0741C17.5705 34.0443 15.8045 29.6426 15.3076 27.5705M32.1683 34.1589C29.1317 29.6461 26.3164 27.7742 23.1848 26.9958C20.0532 26.2174 17.0318 27.1584 15.3076 27.5705M32.1683 34.1589C33.3192 36.3954 34.6313 38.8626 36.0529 41.478M36.0529 41.478C35.3882 37.8269 39.698 32.5568 44.9804 29.7872M36.0529 41.478C36.1391 41.6368 36.2258 41.796 36.3129 41.9558M44.9804 29.7872C46.3967 31.0696 49.2615 33.2231 47.3155 38.0972C45.3695 42.9714 38.9112 44.4627 38.0359 45.0955M44.9804 29.7872C44.202 38.666 39.5314 39.0612 38.0359 45.0955M38.0359 45.0955C37.9347 44.9123 37.8338 44.7295 37.7334 44.5473M38.0359 45.0955C38.8051 48.6294 38.6301 51.9701 37.4763 55.3389M36.8874 43.0076C37.1659 43.5163 37.448 44.0297 37.7334 44.5473M36.8874 43.0076C36.7849 42.6837 36.598 42.3228 36.3129 41.9558M36.8874 43.0076C36.6941 42.6547 36.5026 42.304 36.3129 41.9558M22.2642 40.0267C22.5578 41.7657 24.0264 46.8551 28.6336 47.2345C33.2408 47.6139 36.7099 45.0956 37.7334 44.5473M22.2642 40.0267C27.4579 44.5473 32.0501 42.922 37.7334 44.5473M22.2642 40.0267C30.7931 38.0308 34.8487 40.0721 36.3129 41.9558" stroke="#6F9200" stroke-width="1.79208" stroke-linecap="round"/>
</g>
<rect x="1" y="1" width="60.0001" height="60" rx="30" stroke="#6F9200" stroke-width="1.94603"/>
<path d="M71.1743 29.4634C70.5606 29.4634 70.0621 29.3228 69.6785 29.0416C69.3206 28.7603 69.1033 28.3896 69.0266 27.9294C68.9498 27.4436 69.0393 26.9066 69.295 26.3186L79.42 3.88254C79.7524 3.14107 80.1487 2.61692 80.6089 2.3101C81.0947 1.97772 81.6444 1.81152 82.2581 1.81152C82.8461 1.81152 83.3703 1.97772 83.8305 2.3101C84.3163 2.61692 84.7254 3.14107 85.0578 3.88254L95.2211 26.3186C95.5024 26.9066 95.6047 27.4436 95.528 27.9294C95.4513 28.4151 95.2339 28.7987 94.876 29.0799C94.518 29.3356 94.045 29.4634 93.4569 29.4634C92.741 29.4634 92.1785 29.2972 91.7694 28.9649C91.3859 28.6069 91.0407 28.07 90.7339 27.3541L88.241 21.5629L90.3121 22.9052H74.1274L76.1984 21.5629L73.7439 27.3541C73.4115 28.0955 73.0663 28.6325 72.7084 28.9649C72.3504 29.2972 71.8391 29.4634 71.1743 29.4634ZM82.1814 7.44929L76.8121 20.2206L75.8149 18.9933H88.6246L87.6657 20.2206L82.2581 7.44929H82.1814Z" fill="#6F9200"/>
<path d="M101.44 29.4634C100.673 29.4634 100.084 29.2589 99.6754 28.8498C99.2663 28.4151 99.0618 27.8015 99.0618 27.0089V12.5118C99.0618 11.7192 99.2663 11.1183 99.6754 10.7092C100.084 10.3001 100.66 10.0956 101.401 10.0956C102.143 10.0956 102.718 10.3001 103.127 10.7092C103.536 11.1183 103.741 11.7192 103.741 12.5118V15.3115L103.319 14.1609C103.83 12.8825 104.623 11.8726 105.697 11.1311C106.771 10.3896 108.049 10.0189 109.532 10.0189C111.04 10.0189 112.281 10.3768 113.252 11.0927C114.224 11.8087 114.901 12.9081 115.285 14.391H114.748C115.259 13.0359 116.103 11.9748 117.279 11.2078C118.455 10.4152 119.81 10.0189 121.344 10.0189C122.776 10.0189 123.952 10.3001 124.873 10.8626C125.819 11.4251 126.522 12.2817 126.982 13.4322C127.442 14.5572 127.673 15.989 127.673 17.7277V27.0089C127.673 27.8015 127.455 28.4151 127.021 28.8498C126.611 29.2589 126.023 29.4634 125.256 29.4634C124.489 29.4634 123.901 29.2589 123.492 28.8498C123.083 28.4151 122.879 27.8015 122.879 27.0089V17.9194C122.879 16.4876 122.636 15.4393 122.15 14.7746C121.69 14.1098 120.897 13.7774 119.772 13.7774C118.519 13.7774 117.535 14.2248 116.819 15.1197C116.103 15.989 115.745 17.2035 115.745 18.7632V27.0089C115.745 27.8015 115.54 28.4151 115.131 28.8498C114.722 29.2589 114.134 29.4634 113.367 29.4634C112.6 29.4634 111.999 29.2589 111.565 28.8498C111.156 28.4151 110.951 27.8015 110.951 27.0089V17.9194C110.951 16.4876 110.708 15.4393 110.222 14.7746C109.762 14.1098 108.982 13.7774 107.883 13.7774C106.63 13.7774 105.646 14.2248 104.93 15.1197C104.214 15.989 103.856 17.2035 103.856 18.7632V27.0089C103.856 28.6453 103.05 29.4634 101.44 29.4634Z" fill="#6F9200"/>
<path d="M79.8155 60.1883C78.2302 60.1883 76.8368 59.792 75.6351 58.9994C74.4589 58.2068 73.6791 57.1457 73.2956 55.8162L73.7174 54.8574V57.6571C73.7174 58.4497 73.5129 59.0633 73.1038 59.498C72.6947 59.9071 72.1194 60.1116 71.378 60.1116C70.6109 60.1116 70.0228 59.9071 69.6138 59.498C69.2047 59.0633 69.0001 58.4497 69.0001 57.6571V34.8759C69.0001 34.0833 69.2047 33.4824 69.6138 33.0734C70.0228 32.6643 70.6109 32.4597 71.378 32.4597C72.145 32.4597 72.7331 32.6643 73.1422 33.0734C73.5768 33.4824 73.7942 34.0833 73.7942 34.8759V44.8475H73.3339C73.743 43.5946 74.5356 42.5847 75.7118 41.8176C76.8879 41.0506 78.2558 40.6671 79.8155 40.6671C81.4774 40.6671 82.922 41.0634 84.1493 41.856C85.3765 42.6486 86.3353 43.7736 87.0257 45.231C87.716 46.6628 88.0612 48.3887 88.0612 50.4085C88.0612 52.4028 87.716 54.1415 87.0257 55.6244C86.3353 57.0818 85.3638 58.2068 84.1109 58.9994C82.8836 59.792 81.4518 60.1883 79.8155 60.1883ZM78.4731 56.5449C79.4192 56.5449 80.2501 56.3148 80.966 55.8545C81.6819 55.3943 82.2317 54.7168 82.6152 53.8219C83.0243 52.9014 83.2288 51.7636 83.2288 50.4085C83.2288 48.3631 82.7941 46.8418 81.9248 45.8446C81.0555 44.8219 79.9049 44.3105 78.4731 44.3105C77.5271 44.3105 76.6961 44.5407 75.9802 45.0009C75.2643 45.4355 74.7018 46.1131 74.2927 47.0335C73.9092 47.9284 73.7174 49.0534 73.7174 50.4085C73.7174 52.4284 74.1521 53.9625 75.0214 55.0108C75.8907 56.0335 77.0413 56.5449 78.4731 56.5449Z" fill="#6F9200"/>
<path d="M94.3743 60.0733C93.6073 60.0733 93.0192 59.8432 92.6101 59.3829C92.201 58.9227 91.9965 58.2835 91.9965 57.4653V43.3901C91.9965 42.5463 92.201 41.9071 92.6101 41.4725C93.0192 41.0123 93.6073 40.7821 94.3743 40.7821C95.1414 40.7821 95.7294 41.0123 96.1385 41.4725C96.5732 41.9071 96.7905 42.5463 96.7905 43.3901V57.4653C96.7905 58.2835 96.586 58.9227 96.1769 59.3829C95.7678 59.8432 95.1669 60.0733 94.3743 60.0733Z" fill="#6F9200"/>
<path d="M110.363 60.1883C108.701 60.1883 107.307 59.9071 106.182 59.3446C105.083 58.7821 104.265 57.9639 103.728 56.89C103.191 55.7906 102.922 54.4355 102.922 52.8247V44.6557H100.928C100.314 44.6557 99.8414 44.5023 99.509 44.1955C99.1767 43.8631 99.0105 43.4157 99.0105 42.8532C99.0105 42.2651 99.1767 41.8176 99.509 41.5108C99.8414 41.204 100.314 41.0506 100.928 41.0506H102.922V37.5606C102.922 36.7679 103.127 36.1671 103.536 35.758C103.971 35.3489 104.572 35.1444 105.339 35.1444C106.106 35.1444 106.694 35.3489 107.103 35.758C107.512 36.1671 107.716 36.7679 107.716 37.5606V41.0506H111.782C112.395 41.0506 112.868 41.204 113.201 41.5108C113.533 41.8176 113.699 42.2651 113.699 42.8532C113.699 43.4157 113.533 43.8631 113.201 44.1955C112.868 44.5023 112.395 44.6557 111.782 44.6557H107.716V52.5563C107.716 53.7835 107.985 54.704 108.522 55.3176C109.059 55.9312 109.928 56.2381 111.13 56.2381C111.564 56.2381 111.948 56.1997 112.28 56.123C112.613 56.0463 112.907 55.9952 113.162 55.9696C113.469 55.944 113.725 56.0463 113.929 56.2764C114.134 56.481 114.236 56.9156 114.236 57.5804C114.236 58.0917 114.147 58.552 113.968 58.9611C113.814 59.3446 113.52 59.6131 113.086 59.7665C112.753 59.8687 112.319 59.9582 111.782 60.0349C111.245 60.1372 110.772 60.1883 110.363 60.1883Z" fill="#6F9200"/>
<path d="M123.279 60.1883C121.72 60.1883 120.428 59.9071 119.406 59.3446C118.383 58.7565 117.616 57.8872 117.105 56.7366C116.619 55.5861 116.376 54.1543 116.376 52.4412V43.16C116.376 42.3418 116.58 41.7409 116.99 41.3574C117.399 40.9483 117.987 40.7438 118.754 40.7438C119.521 40.7438 120.109 40.9483 120.518 41.3574C120.953 41.7409 121.17 42.3418 121.17 43.16V52.5179C121.17 53.8474 121.438 54.8318 121.975 55.471C122.512 56.1102 123.369 56.4298 124.545 56.4298C125.823 56.4298 126.872 55.9952 127.69 55.1258C128.508 54.231 128.917 53.0548 128.917 51.5974V43.16C128.917 42.3418 129.122 41.7409 129.531 41.3574C129.94 40.9483 130.528 40.7438 131.295 40.7438C132.062 40.7438 132.65 40.9483 133.059 41.3574C133.494 41.7409 133.711 42.3418 133.711 43.16V57.6571C133.711 59.2935 132.931 60.1116 131.372 60.1116C130.63 60.1116 130.055 59.9071 129.646 59.498C129.237 59.0633 129.032 58.4497 129.032 57.6571V54.7423L129.569 55.8929C129.032 57.2736 128.214 58.3346 127.115 59.0761C126.041 59.8176 124.762 60.1883 123.279 60.1883Z" fill="#6F9200"/>
<path d="M145.566 60.1883C144.466 60.1883 143.303 60.0733 142.076 59.8432C140.849 59.6131 139.749 59.2167 138.778 58.6542C138.368 58.3986 138.074 58.1045 137.895 57.7721C137.742 57.4142 137.678 57.069 137.704 56.7366C137.755 56.3787 137.883 56.0719 138.087 55.8162C138.317 55.5605 138.599 55.3943 138.931 55.3176C139.289 55.2409 139.672 55.3048 140.082 55.5094C141.104 55.9952 142.063 56.3403 142.958 56.5449C143.853 56.7239 144.735 56.8133 145.604 56.8133C146.832 56.8133 147.739 56.6088 148.327 56.1997C148.941 55.7651 149.248 55.2026 149.248 54.5122C149.248 53.9241 149.043 53.4767 148.634 53.1699C148.251 52.8375 147.662 52.5946 146.87 52.4412L143.035 51.7125C141.449 51.4057 140.235 50.8304 139.391 49.9867C138.573 49.1173 138.164 48.0051 138.164 46.65C138.164 45.4227 138.496 44.3617 139.161 43.4668C139.851 42.5719 140.797 41.8816 141.999 41.3958C143.201 40.91 144.582 40.6671 146.141 40.6671C147.266 40.6671 148.314 40.7949 149.286 41.0506C150.283 41.2807 151.242 41.6515 152.162 42.1628C152.546 42.3674 152.802 42.6358 152.93 42.9682C153.083 43.3006 153.121 43.6458 153.045 44.0037C152.968 44.3361 152.814 44.6429 152.584 44.9242C152.354 45.1799 152.06 45.346 151.702 45.4227C151.37 45.4739 150.986 45.3972 150.552 45.1926C149.759 44.7835 148.992 44.4895 148.251 44.3105C147.535 44.1316 146.844 44.0421 146.18 44.0421C144.927 44.0421 143.993 44.2594 143.38 44.6941C142.792 45.1287 142.498 45.704 142.498 46.4199C142.498 46.9568 142.677 47.4043 143.035 47.7622C143.393 48.1202 143.942 48.3631 144.684 48.4909L148.519 49.2196C150.181 49.5264 151.434 50.0889 152.278 50.9071C153.147 51.7253 153.582 52.8247 153.582 54.2054C153.582 56.0719 152.853 57.542 151.395 58.6159C149.938 59.6642 147.995 60.1883 145.566 60.1883Z" fill="#6F9200"/>
<path d="M91.9965 37.1094L96.7905 33.6042C96.7905 33.6042 94.3743 32.4067 93.0575 34.0131C91.7407 35.6195 91.9965 37.1094 91.9965 37.1094Z" fill="#6F9200"/>
<path d="M96.7905 33.6042L91.9965 37.1094C91.9965 37.1094 93.4802 37.0568 95.3121 36.6623C97.144 36.2677 96.7905 33.6042 96.7905 33.6042Z" fill="#6F9200"/>
<defs>
<clipPath id="clip0_1150_3781">
<rect x="1" y="1" width="60.0001" height="60" rx="30" fill="white"/>
</clipPath>
</defs>
</svg>
