<svg width="343" height="54" viewBox="0 0 343 54" fill="none" xmlns="http://www.w3.org/2000/svg">
<g clip-path="url(#clip0_612_2270)">
<ellipse cx="27.0001" cy="27" rx="26.0001" ry="26" fill="#FEFAE0"/>
<path d="M23.9303 20.5874C23.2822 15.0416 22.3538 11.5688 20.2113 5.13611M23.9303 20.5874C20.7473 18.8809 19.002 16.7206 18.5044 13.4363C18.1063 10.8089 19.4765 6.80807 20.2113 5.13611M23.9303 20.5874C25.0239 18.9999 26.4077 16.3726 25.5707 12.1922C24.7336 8.01187 22.6646 6.78832 20.2113 5.13611M23.9303 20.5874C24.172 21.6472 24.953 23.5152 26.1211 25.949M26.1211 25.949C25.7281 25.1202 25.5707 19.4819 32.7408 15.9406M26.1211 25.949C26.5023 26.7432 26.9247 27.5978 27.3831 28.5041M32.7408 15.9406C33.819 17.1515 35.7432 20.1566 34.394 23.2556C33.0447 26.3547 28.6036 27.8108 27.3831 28.5041M32.7408 15.9406C32.3702 21.8431 28.3224 23.5297 27.3831 28.5041M27.3831 28.5041C27.5861 28.9054 27.7961 29.3169 28.0127 29.7378M28.0127 29.7378C21.2389 26.2282 17.8658 28.5894 13.4 24.0278M28.0127 29.7378C26.8489 30.2306 21.3858 31.6466 18.0388 30.531C15.3612 29.6384 13.8306 25.8236 13.4 24.0278M28.0127 29.7378C25.3809 25.8267 22.941 24.2043 20.2269 23.5297C17.5129 22.8551 14.8943 23.6706 13.4 24.0278M28.0127 29.7378C29.0101 31.676 30.1473 33.8143 31.3793 36.081M31.3793 36.081C30.8032 32.9167 34.5384 28.3492 39.1165 25.949M31.3793 36.081C31.454 36.2186 31.5292 36.3566 31.6046 36.4951M39.1165 25.949C40.3439 27.0603 42.8268 28.9267 41.1402 33.151C39.4537 37.3752 33.8565 38.6677 33.0979 39.2161M39.1165 25.949C38.4419 33.6439 34.394 33.9864 33.0979 39.2161M33.0979 39.2161C33.0102 39.0573 32.9228 38.899 32.8357 38.7411M33.0979 39.2161C33.7646 42.2789 33.6129 45.1741 32.6129 48.0938M32.1025 37.4067C32.3439 37.8475 32.5884 38.2924 32.8357 38.7411M32.1025 37.4067C32.0137 37.1259 31.8518 36.8131 31.6046 36.4951M32.1025 37.4067C31.935 37.1008 31.769 36.7969 31.6046 36.4951M19.4291 34.8232C19.6836 36.3303 20.9564 40.7411 24.9493 41.0699C28.9421 41.3988 31.9487 39.2163 32.8357 38.7411M19.4291 34.8232C23.9303 38.7411 27.9102 37.3325 32.8357 38.7411M19.4291 34.8232C26.8208 33.0934 30.3357 34.8625 31.6046 36.4951" stroke="#6F9200" stroke-width="1.55314" stroke-linecap="round"/>
</g>
<rect x="1" y="1" width="52.0002" height="52.0001" rx="26" stroke="#6F9200" stroke-width="1.68656"/>
<path d="M63.8992 45.3835C63.081 45.3835 62.4162 45.196 61.9048 44.821C61.4276 44.446 61.1378 43.9517 61.0355 43.3381C60.9333 42.6903 61.0526 41.9744 61.3935 41.1903L74.8935 11.2756C75.3367 10.287 75.8651 9.58814 76.4787 9.17905C77.1264 8.73587 77.8594 8.51428 78.6776 8.51428C79.4617 8.51428 80.1605 8.73587 80.7742 9.17905C81.4219 9.58814 81.9673 10.287 82.4105 11.2756L95.9616 41.1903C96.3366 41.9744 96.473 42.6903 96.3707 43.3381C96.2685 43.9858 95.9787 44.4971 95.5014 44.8721C95.0241 45.2131 94.3935 45.3835 93.6094 45.3835C92.6548 45.3835 91.9048 45.1619 91.3594 44.7187C90.848 44.2415 90.3878 43.5256 89.9787 42.571L86.6548 34.8494L89.4162 36.6392H67.8367L70.598 34.8494L67.3253 42.571C66.8821 43.5596 66.4219 44.2756 65.9446 44.7187C65.4673 45.1619 64.7855 45.3835 63.8992 45.3835ZM78.5753 16.0313L71.4162 33.0597L70.0867 31.4233H87.1662L85.8878 33.0597L78.6776 16.0313H78.5753Z" fill="#6F9200"/>
<path d="M104.253 45.3835C103.23 45.3835 102.446 45.1108 101.901 44.5653C101.355 43.9858 101.082 43.1676 101.082 42.1108V22.7813C101.082 21.7245 101.355 20.9233 101.901 20.3779C102.446 19.8324 103.213 19.5597 104.202 19.5597C105.19 19.5597 105.957 19.8324 106.503 20.3779C107.048 20.9233 107.321 21.7245 107.321 22.7813V26.5142L106.759 24.9801C107.44 23.2756 108.497 21.929 109.929 20.9404C111.361 19.9518 113.065 19.4574 115.043 19.4574C117.054 19.4574 118.707 19.9347 120.003 20.8893C121.298 21.8438 122.202 23.3097 122.713 25.287H121.997C122.679 23.4802 123.804 22.0654 125.372 21.0427C126.94 19.9858 128.747 19.4574 130.793 19.4574C132.702 19.4574 134.27 19.8324 135.497 20.5824C136.759 21.3324 137.696 22.4745 138.31 24.0086C138.923 25.5086 139.23 27.4176 139.23 29.7358V42.1108C139.23 43.1676 138.94 43.9858 138.361 44.5653C137.815 45.1108 137.031 45.3835 136.009 45.3835C134.986 45.3835 134.202 45.1108 133.656 44.5653C133.111 43.9858 132.838 43.1676 132.838 42.1108V29.9915C132.838 28.0824 132.514 26.6847 131.867 25.7983C131.253 24.912 130.196 24.4688 128.696 24.4688C127.026 24.4688 125.713 25.0654 124.759 26.2586C123.804 27.4176 123.327 29.037 123.327 31.1165V42.1108C123.327 43.1676 123.054 43.9858 122.509 44.5653C121.963 45.1108 121.179 45.3835 120.156 45.3835C119.134 45.3835 118.332 45.1108 117.753 44.5653C117.207 43.9858 116.935 43.1676 116.935 42.1108V29.9915C116.935 28.0824 116.611 26.6847 115.963 25.7983C115.349 24.912 114.31 24.4688 112.844 24.4688C111.173 24.4688 109.861 25.0654 108.906 26.2586C107.952 27.4176 107.475 29.037 107.475 31.1165V42.1108C107.475 44.2926 106.401 45.3835 104.253 45.3835Z" fill="#6F9200"/>
<path d="M157.646 45.4858C155.532 45.4858 153.674 44.9574 152.072 43.9006C150.504 42.8437 149.464 41.429 148.952 39.6562L149.515 38.3778V42.1108C149.515 43.1676 149.242 43.9858 148.697 44.5653C148.151 45.1108 147.384 45.3835 146.396 45.3835C145.373 45.3835 144.589 45.1108 144.043 44.5653C143.498 43.9858 143.225 43.1676 143.225 42.1108V11.7359C143.225 10.679 143.498 9.87792 144.043 9.33246C144.589 8.78701 145.373 8.51428 146.396 8.51428C147.418 8.51428 148.202 8.78701 148.748 9.33246C149.327 9.87792 149.617 10.679 149.617 11.7359V25.0313H149.004C149.549 23.3608 150.606 22.0142 152.174 20.9915C153.742 19.9688 155.566 19.4574 157.646 19.4574C159.861 19.4574 161.788 19.9858 163.424 21.0427C165.06 22.0995 166.339 23.5995 167.259 25.5426C168.18 27.4517 168.64 29.7529 168.64 32.446C168.64 35.1051 168.18 37.4233 167.259 39.4006C166.339 41.3437 165.043 42.8437 163.373 43.9006C161.736 44.9574 159.827 45.4858 157.646 45.4858ZM155.856 40.6278C157.117 40.6278 158.225 40.321 159.18 39.7074C160.134 39.0937 160.867 38.1903 161.378 36.9972C161.924 35.7699 162.197 34.2529 162.197 32.446C162.197 29.7188 161.617 27.6904 160.458 26.3608C159.299 24.9972 157.765 24.3154 155.856 24.3154C154.594 24.3154 153.486 24.6222 152.532 25.2358C151.577 25.8154 150.827 26.7188 150.282 27.9461C149.771 29.1392 149.515 30.6392 149.515 32.446C149.515 35.1392 150.094 37.1847 151.254 38.5824C152.413 39.946 153.947 40.6278 155.856 40.6278Z" fill="#6F9200"/>
<path d="M177.057 45.3324C176.035 45.3324 175.251 45.0256 174.705 44.4119C174.16 43.7983 173.887 42.946 173.887 41.8551V23.0881C173.887 21.9631 174.16 21.1108 174.705 20.5313C175.251 19.9177 176.035 19.6108 177.057 19.6108C178.08 19.6108 178.864 19.9177 179.41 20.5313C179.989 21.1108 180.279 21.9631 180.279 23.0881V41.8551C180.279 42.946 180.006 43.7983 179.461 44.4119C178.915 45.0256 178.114 45.3324 177.057 45.3324Z" fill="#6F9200"/>
<path d="M198.375 45.4858C196.159 45.4858 194.301 45.1108 192.801 44.3608C191.335 43.6108 190.245 42.5199 189.529 41.0881C188.813 39.6222 188.455 37.8153 188.455 35.6676V24.7756H185.796C184.978 24.7756 184.347 24.5711 183.904 24.162C183.46 23.7188 183.239 23.1222 183.239 22.3722C183.239 21.5881 183.46 20.9915 183.904 20.5824C184.347 20.1733 184.978 19.9688 185.796 19.9688H188.455V15.3154C188.455 14.2586 188.728 13.4575 189.273 12.912C189.853 12.3665 190.654 12.0938 191.676 12.0938C192.699 12.0938 193.483 12.3665 194.029 12.912C194.574 13.4575 194.847 14.2586 194.847 15.3154V19.9688H200.267C201.085 19.9688 201.716 20.1733 202.159 20.5824C202.603 20.9915 202.824 21.5881 202.824 22.3722C202.824 23.1222 202.603 23.7188 202.159 24.162C201.716 24.5711 201.085 24.7756 200.267 24.7756H194.847V35.3097C194.847 36.946 195.205 38.1733 195.921 38.9915C196.637 39.8097 197.796 40.2187 199.398 40.2187C199.978 40.2187 200.489 40.1676 200.932 40.0653C201.375 39.9631 201.767 39.8949 202.108 39.8608C202.517 39.8267 202.858 39.9631 203.131 40.2699C203.404 40.5426 203.54 41.1221 203.54 42.0085C203.54 42.6903 203.421 43.304 203.182 43.8494C202.978 44.3608 202.585 44.7187 202.006 44.9233C201.563 45.0596 200.983 45.179 200.267 45.2812C199.551 45.4176 198.921 45.4858 198.375 45.4858Z" fill="#6F9200"/>
<path d="M215.597 45.4858C213.518 45.4858 211.796 45.1108 210.433 44.3608C209.069 43.5767 208.046 42.4176 207.364 40.8835C206.717 39.3494 206.393 37.4403 206.393 35.1563V22.7813C206.393 21.6904 206.666 20.8892 207.211 20.3779C207.756 19.8324 208.541 19.5597 209.563 19.5597C210.586 19.5597 211.37 19.8324 211.916 20.3779C212.495 20.8892 212.785 21.6904 212.785 22.7813V35.2585C212.785 37.0313 213.143 38.3438 213.859 39.196C214.575 40.0483 215.717 40.4744 217.285 40.4744C218.989 40.4744 220.387 39.8949 221.478 38.7358C222.569 37.5426 223.114 35.9744 223.114 34.0313V22.7813C223.114 21.6904 223.387 20.8892 223.933 20.3779C224.478 19.8324 225.262 19.5597 226.285 19.5597C227.308 19.5597 228.092 19.8324 228.637 20.3779C229.217 20.8892 229.506 21.6904 229.506 22.7813V42.1108C229.506 44.2926 228.467 45.3835 226.387 45.3835C225.399 45.3835 224.631 45.1108 224.086 44.5653C223.541 43.9858 223.268 43.1676 223.268 42.1108V38.2244L223.984 39.7585C223.268 41.5994 222.177 43.0142 220.711 44.0028C219.279 44.9915 217.575 45.4858 215.597 45.4858Z" fill="#6F9200"/>
<path d="M245.313 45.4858C243.847 45.4858 242.296 45.3324 240.659 45.0255C239.023 44.7187 237.557 44.1903 236.262 43.4403C235.716 43.0994 235.324 42.7074 235.086 42.2642C234.881 41.7869 234.796 41.3267 234.83 40.8835C234.898 40.4062 235.068 39.9972 235.341 39.6562C235.648 39.3153 236.023 39.0937 236.466 38.9915C236.943 38.8892 237.455 38.9744 238 39.2472C239.364 39.8949 240.642 40.3551 241.836 40.6278C243.029 40.8665 244.205 40.9858 245.364 40.9858C247 40.9858 248.211 40.7131 248.995 40.1676C249.813 39.5881 250.222 38.8381 250.222 37.9176C250.222 37.1335 249.949 36.5369 249.404 36.1278C248.892 35.6847 248.108 35.3608 247.051 35.1563L241.938 34.1847C239.824 33.7756 238.205 33.0085 237.08 31.8835C235.989 30.7245 235.443 29.2415 235.443 27.4347C235.443 25.7983 235.887 24.3836 236.773 23.1904C237.693 21.9972 238.955 21.0767 240.557 20.429C242.159 19.7813 244 19.4574 246.08 19.4574C247.58 19.4574 248.978 19.6279 250.273 19.9688C251.603 20.2756 252.881 20.7699 254.108 21.4517C254.62 21.7245 254.961 22.0824 255.131 22.5256C255.336 22.9688 255.387 23.429 255.284 23.9063C255.182 24.3495 254.978 24.7586 254.671 25.1336C254.364 25.4745 253.972 25.6961 253.495 25.7983C253.051 25.8665 252.54 25.7642 251.961 25.4915C250.904 24.9461 249.881 24.554 248.892 24.3154C247.938 24.0767 247.017 23.9574 246.131 23.9574C244.461 23.9574 243.216 24.2472 242.398 24.8267C241.614 25.4063 241.222 26.1733 241.222 27.1279C241.222 27.8438 241.461 28.4404 241.938 28.9176C242.415 29.3949 243.148 29.7188 244.137 29.8892L249.25 30.8608C251.466 31.2699 253.137 32.0199 254.262 33.1108C255.421 34.2017 256 35.6676 256 37.5085C256 39.9972 255.029 41.9574 253.086 43.3892C251.142 44.7869 248.551 45.4858 245.313 45.4858Z" fill="#6F9200"/>
<path d="M173.887 14.7139L180.279 10.0402C180.279 10.0402 177.057 8.44356 175.302 10.5854C173.546 12.7273 173.887 14.7139 173.887 14.7139Z" fill="#6F9200"/>
<path d="M180.279 10.0402L173.887 14.7139C173.887 14.7139 175.865 14.6438 178.308 14.1177C180.75 13.5916 180.279 10.0402 180.279 10.0402Z" fill="#6F9200"/>
<defs>
<clipPath id="clip0_612_2270">
<rect x="1" y="1" width="52.0002" height="52.0001" rx="26" fill="white"/>
</clipPath>
</defs>
</svg>
