<svg width="970" height="977" viewBox="0 0 970 977" fill="none" xmlns="http://www.w3.org/2000/svg">
<g opacity="0.8" filter="url(#filter0_d_73_443)">
<path fill-rule="evenodd" clip-rule="evenodd" d="M957.935 473.836C957.935 731.11 746.392 939.672 485.441 939.672C224.489 939.672 12.9463 731.11 12.9463 473.836C12.9463 216.562 224.489 8 485.441 8C746.392 8 957.935 216.562 957.935 473.836ZM485.441 906.255C727.673 906.255 924.041 712.654 924.041 473.836C924.041 235.018 727.673 41.4172 485.441 41.4172C243.209 41.4172 46.8412 235.018 46.8412 473.836C46.8412 712.654 243.209 906.255 485.441 906.255Z" fill="#1FBD97"/>
<path d="M924.041 473.836C924.041 712.654 727.673 906.255 485.441 906.255C243.209 906.255 46.8412 712.654 46.8412 473.836C46.8412 235.018 243.209 41.4172 485.441 41.4172C727.673 41.4172 924.041 235.018 924.041 473.836Z" fill="#177B9A"/>
<path fill-rule="evenodd" clip-rule="evenodd" d="M957.935 473.836C957.935 731.11 746.392 939.672 485.441 939.672C224.489 939.672 12.9463 731.11 12.9463 473.836C12.9463 216.562 224.489 8 485.441 8C746.392 8 957.935 216.562 957.935 473.836ZM485.441 906.255C727.673 906.255 924.041 712.654 924.041 473.836C924.041 235.018 727.673 41.4172 485.441 41.4172C243.209 41.4172 46.8412 235.018 46.8412 473.836C46.8412 712.654 243.209 906.255 485.441 906.255Z" stroke="#023044" stroke-width="16"/>
<path d="M924.041 473.836C924.041 712.654 727.673 906.255 485.441 906.255C243.209 906.255 46.8412 712.654 46.8412 473.836C46.8412 235.018 243.209 41.4172 485.441 41.4172C727.673 41.4172 924.041 235.018 924.041 473.836Z" stroke="#023044" stroke-width="16"/>
</g>
<g opacity="0.8">
<path d="M102.366 328.27C99.5959 328.427 94.0561 330.593 94.0561 337.241C94.0561 343.889 99.5329 345.11 102.271 344.889L173.943 345.267C176.146 345.33 180.553 343.737 180.553 336.863C180.553 329.989 176.146 328.27 173.943 328.27H102.366Z" fill="#023044"/>
<path d="M95.63 371.424C92.8601 371.581 87.3203 373.747 87.3203 380.395C87.3203 387.042 92.7972 388.264 95.5356 388.043L182.951 388.421C185.155 388.484 189.561 386.891 189.561 380.017C189.561 373.143 185.155 371.424 182.951 371.424H95.63Z" fill="#023044"/>
<path d="M95.63 416.089C92.8601 416.246 87.3203 418.412 87.3203 425.059C87.3203 431.707 92.7972 432.929 95.5356 432.708L144.21 433.086C146.414 433.149 150.82 431.556 150.82 424.682C150.82 417.807 146.414 416.089 144.21 416.089H95.63Z" fill="#023044"/>
<path d="M118.63 476.762C115.86 476.919 110.32 479.085 110.32 485.733C110.32 492.38 115.797 493.602 118.536 493.381L182.951 493.759C185.155 493.822 189.561 492.229 189.561 485.355C189.561 478.48 185.155 476.762 182.951 476.762H118.63Z" fill="#023044"/>
<path d="M112.82 526.64C110.05 526.797 104.511 528.963 104.511 535.611C104.511 542.259 109.987 543.48 112.726 543.259L202.127 543.637C204.33 543.7 208.737 542.107 208.737 535.233C208.737 528.359 204.33 526.64 202.127 526.64H112.82Z" fill="#023044"/>
<path d="M119.32 564.463C116.55 564.621 111.011 566.786 111.011 573.434C111.011 580.082 116.487 581.303 119.226 581.083L218.517 581.461C220.72 581.524 225.127 579.931 225.127 573.056C225.127 566.182 220.72 564.463 218.517 564.463H119.32Z" fill="#023044"/>
<path d="M147.017 610.493C144.247 610.65 138.707 612.815 138.707 619.463C138.707 626.111 144.184 627.332 146.923 627.112L190.71 627.49C192.914 627.553 197.32 625.96 197.32 619.086C197.32 612.211 192.914 610.493 190.71 610.493H147.017Z" fill="#023044"/>
<path d="M801.32 328.578C798.55 328.735 793.011 330.901 793.011 337.549C793.011 344.197 798.487 345.418 801.226 345.198L865.657 345.575C867.86 345.638 872.267 344.046 872.267 337.171C872.267 330.297 867.86 328.578 865.657 328.578H801.32Z" fill="#023044"/>
<path d="M783.415 373.281C780.645 373.438 775.105 375.604 775.105 382.252C775.105 388.899 780.582 390.121 783.32 389.9L874.605 390.278C876.808 390.341 881.215 388.748 881.215 381.874C881.215 374.999 876.808 373.281 874.605 373.281H783.415Z" fill="#023044"/>
<path d="M829.467 416.361C826.697 416.518 821.158 418.684 821.158 425.331C821.158 431.979 826.634 433.201 829.373 432.98L879.71 433.358C881.914 433.421 886.32 431.828 886.32 424.954C886.32 418.079 881.914 416.361 879.71 416.361H829.467Z" fill="#023044"/>
<path d="M858.13 460.303C855.36 460.46 849.82 462.626 849.82 469.273C849.82 475.921 855.297 477.143 858.036 476.922L882.063 477.3C884.267 477.363 888.673 475.77 888.673 468.896C888.673 462.021 884.267 460.303 882.063 460.303H858.13Z" fill="#023044"/>
<path d="M786.63 460.303C783.86 460.46 778.32 462.626 778.32 469.273C778.32 475.921 783.797 477.143 786.536 476.922L831.348 477.3C833.551 477.363 837.958 475.77 837.958 468.896C837.958 462.021 833.551 460.303 831.348 460.303H786.63Z" fill="#023044"/>
<path d="M771.305 525.766C768.535 525.923 762.995 528.089 762.995 534.737C762.995 541.385 768.472 542.606 771.21 542.385H873.71C875.914 542.448 880.32 540.856 880.32 533.981C880.32 527.107 875.914 525.388 873.71 525.388L771.305 525.766Z" fill="#023044"/>
<path d="M778.32 564.396C775.55 564.554 770.011 566.719 770.011 573.367C770.011 580.015 775.487 581.236 778.226 581.016H862.416C864.62 581.079 869.026 579.486 869.026 572.612C869.026 565.737 864.62 564.018 862.416 564.018L778.32 564.396Z" fill="#023044"/>
<path d="M787.32 611.171C784.55 611.328 779.011 613.493 779.011 620.141C779.011 626.789 784.487 628.01 787.226 627.79H846.011C848.214 627.853 852.621 626.26 852.621 619.386C852.621 612.511 848.214 610.793 846.011 610.793L787.32 611.171Z" fill="#023044"/>
</g>
<path opacity="0.8" d="M165.819 719.927C239.027 816.821 355.122 879.427 485.82 879.427C618.976 879.427 736.973 814.445 809.904 714.427" stroke="#023044" stroke-width="9" stroke-linecap="round" stroke-dasharray="46 46"/>
<path opacity="0.8" d="M167.34 233.927C240.629 138.172 356.023 76.4268 485.82 76.4268C629.349 76.4268 755.266 151.928 826.115 265.427" stroke="#023044" stroke-width="9" stroke-linecap="round" stroke-dasharray="46 46"/>
<path d="M410.9 354.704C416.853 367.033 437.411 371.299 444.482 359.576L469.352 318.344L424.312 239.053C413.941 236.565 389.951 236.907 376.949 258.176C368.979 271.214 356.646 293.332 345.834 313.118C339.702 324.341 350.266 335.742 362.782 333.112C374.248 330.703 386.263 330.784 396.916 337.467C402.885 341.212 407.438 347.532 410.9 354.704Z" fill="#606C38"/>
<path d="M451.243 239.053H543.182C554.636 239.519 580.701 245.956 593.331 267.971C605.961 289.985 620.572 316.944 626.299 327.672L658.712 309.123C661.799 307.357 665.484 310.196 664.563 313.631L634.657 425.153L633.353 429.549C631.166 436.925 623.437 441.154 616.046 439.019L606.797 436.347L501.976 407.974C498.592 407.058 497.94 402.54 500.928 400.704L532.502 381.31L451.243 239.053Z" fill="#6F9200"/>
<path d="M593.269 487.177C586.542 475.583 599.181 460.274 612.533 461.453C625.008 462.554 636.987 461.145 644.408 454.538C647.674 451.63 650.488 448.127 652.903 444.281C660.39 432.357 683.601 427.92 690.606 440.133L715.452 483.455C721.333 499.625 728.546 532.149 710.344 532.896C692.142 533.642 642.396 533.207 619.798 532.896L593.269 487.177Z" fill="#606C38"/>
<path d="M695.021 556.217H532.502V538.493V519.262C532.502 515.694 528.185 513.912 525.668 516.44L503.713 538.493L444.742 598.661L442.271 601.143C436.833 606.605 436.833 615.436 442.271 620.898L444.742 623.381L504.642 683.549L526.132 705.135C528.649 707.663 532.967 705.88 532.967 702.313V683.549V665.358H609.118C616.702 665.358 635.214 659.761 648.587 637.373C661.96 614.985 685.115 573.94 695.021 556.217Z" fill="#6F9200"/>
<path d="M423.926 635.99C431.911 646.8 425.154 665.358 411.715 665.358H352.803C336.397 660.383 305.627 647.168 313.799 634.108C321.971 621.049 347.541 576.739 359.304 556.217H413.7C426.929 556.217 433.687 574.059 425.719 584.618C419.019 593.497 413.953 602.884 413.632 611.021C413.327 618.759 417.71 627.576 423.926 635.99Z" fill="#606C38"/>
<path d="M301.262 611.021L382.521 468.53L414.548 487.035C417.635 488.818 421.336 485.978 420.412 482.534L392.737 379.444L389.845 367.212C388.041 359.586 380.33 354.924 372.74 356.873L359.304 360.321L259.4 388.67C256.052 389.62 255.431 394.098 258.394 395.924L289.189 414.892C284.856 421.577 272.659 441.291 258.543 466.664C244.427 492.038 247.399 514.239 250.649 522.168L301.262 611.021Z" fill="#6F9200"/>
<path d="M410.9 354.704C416.853 367.033 437.411 371.299 444.482 359.576L469.352 318.344L424.312 239.053C413.941 236.565 389.951 236.907 376.949 258.176C368.979 271.214 356.646 293.332 345.834 313.118C339.702 324.341 350.266 335.742 362.782 333.112C374.248 330.703 386.263 330.784 396.916 337.467C402.885 341.212 407.438 347.532 410.9 354.704Z" stroke="#023044" stroke-width="16"/>
<path d="M451.243 239.053H543.182C554.636 239.519 580.701 245.956 593.331 267.971C605.961 289.985 620.572 316.944 626.299 327.672L658.712 309.123C661.799 307.357 665.484 310.196 664.563 313.631L634.657 425.153L633.353 429.549C631.166 436.925 623.437 441.154 616.046 439.019L606.797 436.347L501.976 407.974C498.592 407.058 497.94 402.54 500.928 400.704L532.502 381.31L451.243 239.053Z" stroke="#023044" stroke-width="16"/>
<path d="M593.269 487.177C586.542 475.583 599.181 460.274 612.533 461.453C625.008 462.554 636.987 461.145 644.408 454.538C647.674 451.63 650.488 448.127 652.903 444.281C660.39 432.357 683.601 427.92 690.606 440.133L715.452 483.455C721.333 499.625 728.546 532.149 710.344 532.896C692.142 533.642 642.396 533.207 619.798 532.896L593.269 487.177Z" stroke="#023044" stroke-width="16"/>
<path d="M695.021 556.217H532.502V538.493V519.262C532.502 515.694 528.185 513.912 525.668 516.44L503.713 538.493L444.742 598.661L442.271 601.143C436.833 606.605 436.833 615.436 442.271 620.898L444.742 623.381L504.642 683.549L526.132 705.135C528.649 707.663 532.967 705.88 532.967 702.313V683.549V665.358H609.118C616.702 665.358 635.214 659.761 648.587 637.373C661.96 614.985 685.115 573.94 695.021 556.217Z" stroke="#023044" stroke-width="16"/>
<path d="M423.926 635.99C431.911 646.8 425.154 665.358 411.715 665.358H352.803C336.397 660.383 305.627 647.168 313.799 634.108C321.971 621.049 347.541 576.739 359.304 556.217H413.7C426.929 556.217 433.687 574.059 425.719 584.618C419.019 593.497 413.953 602.884 413.632 611.021C413.327 618.759 417.71 627.576 423.926 635.99Z" stroke="#023044" stroke-width="16"/>
<path d="M301.262 611.021L382.521 468.53L414.548 487.035C417.635 488.818 421.336 485.978 420.412 482.534L392.737 379.444L389.845 367.212C388.041 359.586 380.33 354.924 372.74 356.873L359.304 360.321L259.4 388.67C256.052 389.62 255.431 394.098 258.394 395.924L289.189 414.892C284.856 421.577 272.659 441.291 258.543 466.664C244.427 492.038 247.399 514.239 250.649 522.168L301.262 611.021Z" stroke="#023044" stroke-width="16"/>
<defs>
<filter id="filter0_d_73_443" x="0.946289" y="0" width="968.989" height="976.672" filterUnits="userSpaceOnUse" color-interpolation-filters="sRGB">
<feFlood flood-opacity="0" result="BackgroundImageFix"/>
<feColorMatrix in="SourceAlpha" type="matrix" values="0 0 0 0 0 0 0 0 0 0 0 0 0 0 0 0 0 0 127 0" result="hardAlpha"/>
<feOffset dy="25"/>
<feGaussianBlur stdDeviation="2"/>
<feComposite in2="hardAlpha" operator="out"/>
<feColorMatrix type="matrix" values="0 0 0 0 0 0 0 0 0 0 0 0 0 0 0 0 0 0 0.25 0"/>
<feBlend mode="normal" in2="BackgroundImageFix" result="effect1_dropShadow_73_443"/>
<feBlend mode="normal" in="SourceGraphic" in2="effect1_dropShadow_73_443" result="shape"/>
</filter>
</defs>
</svg>
