<svg width="128" height="188" viewBox="0 0 128 188" fill="none" xmlns="http://www.w3.org/2000/svg">
<path d="M173.036 309.108C166.704 298.563 159.329 286.18 151.378 272.698M45.3815 75.6647C42.3833 50.0069 38.0881 33.9398 28.1757 4.17847M45.3815 75.6647C30.6552 67.7694 22.5808 57.7747 20.2786 42.5797C18.4368 30.4238 24.7759 11.9139 28.1757 4.17847M45.3815 75.6647C50.4411 68.32 56.8435 56.1648 52.9709 36.8241C49.0984 17.4834 39.526 11.8225 28.1757 4.17847M45.3815 75.6647C46.4998 80.568 50.1132 89.2105 55.5174 100.47M55.5174 100.47C53.6992 96.6359 52.2802 59.3863 74.8424 51.7888M55.5174 100.47C57.2811 104.145 59.2356 108.099 61.3564 112.292M74.8424 51.7888C79.8307 57.391 88.656 72.0027 84.0515 85.6321C79.447 99.2615 67.0029 109.084 61.3564 112.292M74.8424 51.7888C72.6074 75.2345 69.2202 88.5074 61.3564 112.292M61.3564 112.292C62.2954 114.148 63.267 116.052 64.269 117.999M64.269 117.999C39.5218 108.528 25.9186 102.22 3.09521 85.6321M64.269 117.999C58.8847 120.279 40.0417 120.881 24.5567 115.719C12.1687 111.59 5.08739 93.9406 3.09521 85.6321M64.269 117.999C52.0931 99.9044 45.3815 95.3444 34.6084 88.0094C25.9898 82.1414 10.0085 83.9795 3.09521 85.6321M64.269 117.999C68.8838 126.967 74.1448 136.86 79.8447 147.347M79.8447 147.347C77.1796 132.707 77.1446 100.651 98.3254 89.546M79.8447 147.347C80.9443 149.37 82.0602 151.415 83.1909 153.48M98.3254 89.546C104.004 94.6877 110.318 110.251 106.844 129.605C103.369 148.96 91.3059 159.314 87.7961 161.852M98.3254 89.546C97.6485 118.143 94.5923 133.895 87.7961 161.852M87.7961 161.852C87.3902 161.117 86.9858 160.384 86.5831 159.654M87.7961 161.852C91.9669 169.4 96.3016 177.161 100.732 185.025M83.1909 153.48C80.6706 145.512 65.4153 131.966 24.5567 141.528M83.1909 153.48C84.3076 155.52 85.4388 157.578 86.5831 159.654M24.5567 141.528C25.7339 148.5 32.7067 162.826 51.18 164.348C69.6533 165.869 82.4793 161.852 86.5831 159.654M24.5567 141.528C50.1623 149.148 63.795 153.137 86.5831 159.654M102.016 187.301C99.922 174.398 101.927 144.516 126.703 128.216M102.016 187.301C108.978 183.363 122.942 173.779 126.703 164.348C130.465 154.916 127.971 136.547 126.703 128.216M102.016 187.301C113.919 166.048 119.392 153.145 126.703 128.216M102.016 187.301C101.588 186.541 101.16 185.783 100.732 185.025M102.016 187.301C98.0282 191.143 86.2466 199.039 71.0258 199.885C55.8049 200.73 46.3624 189.103 43.5437 183.184M102.016 187.301C75.3448 188.787 62.8773 187.61 43.5437 183.184M102.016 187.301C106.271 194.841 110.608 202.465 114.968 210.08M100.732 185.025C93.2966 177.717 71.4486 167.118 43.5437 183.184M117.223 214.015C108.941 208.037 86.6694 199.293 63.8382 212.146M117.223 214.015C116.471 212.704 115.719 211.392 114.968 210.08M117.223 214.015C117.654 214.766 118.084 215.515 118.515 216.265M63.8382 212.146C67.7766 222.77 84.7461 239.371 121.116 220.788M63.8382 212.146C86.3947 217.095 98.9355 218.985 121.116 220.788M121.116 220.788C120.249 219.282 119.382 217.774 118.515 216.265M121.116 220.788C124.503 226.67 127.887 232.519 131.239 238.292M114.968 210.08C112.793 198.233 116.054 173.52 146.496 169.443M146.496 169.443C148.418 182.266 145.513 209.582 118.515 216.265M146.496 169.443C130.911 189.06 124.863 198.857 118.515 216.265M131.239 238.292C124.109 233.509 106.758 227.849 94.3888 243.467M131.239 238.292C131.539 238.807 131.838 239.322 132.137 239.836M94.3888 243.467C99.9825 250.547 115.786 260.459 134.248 243.467M94.3888 243.467C111.053 241.269 119.676 241.479 134.248 243.467M134.248 243.467C133.546 242.261 132.842 241.05 132.137 239.836M134.248 243.467C134.741 244.312 135.232 245.155 135.722 245.996M132.137 239.836C130.226 232.353 132.12 215.449 154.984 207.703M154.984 207.703C158.229 218.135 158.918 240.399 135.722 245.996M154.984 207.703C144.621 222.971 139.563 231.448 135.722 245.996M135.722 245.996C138.836 251.339 141.912 256.596 144.926 261.733M144.926 261.733C139.37 257.874 125.41 253.355 114.025 266.143M144.926 261.733C145.319 262.403 145.711 263.07 146.103 263.736M114.025 266.143C118.3 272.365 131.249 281.529 148.851 268.409M114.025 266.143C128.119 264.593 135.803 265.123 148.851 268.409M148.851 268.409C147.941 266.864 147.025 265.306 146.103 263.736M148.851 268.409C149.699 269.85 150.542 271.28 151.378 272.698M146.103 263.736C146.36 257.585 150.13 244.679 163.153 242.262M163.153 242.262C165.641 249.978 166.77 266.868 151.378 272.698M163.153 242.262C155.233 254.064 152.451 260.723 151.378 272.698" stroke="#6F9200" stroke-width="4.81056"/>
</svg>
