<svg width="35" height="53" viewBox="0 0 35 53" fill="none" xmlns="http://www.w3.org/2000/svg">
<path d="M13.4579 19.6008C12.7101 13.2018 11.6389 9.19474 9.1668 1.7724M13.4579 19.6008C9.78518 17.6317 7.77147 15.1391 7.19729 11.3495C6.73795 8.31787 8.3189 3.70158 9.1668 1.7724M13.4579 19.6008C14.7197 17.769 16.3164 14.7376 15.3506 9.91407C14.3848 5.09058 11.9975 3.67879 9.1668 1.7724M13.4579 19.6008C13.7368 20.8236 14.6379 22.979 15.9857 25.7872M15.9857 25.7872C15.5323 24.8309 15.3506 18.3252 23.6239 14.2391M15.9857 25.7872C16.4256 26.7036 16.913 27.6896 17.4419 28.7354M23.6239 14.2391C24.8679 15.6362 27.0882 19.1037 25.5314 22.6795C23.9746 26.2553 18.8501 27.9354 17.4419 28.7354M23.6239 14.2391C23.1962 21.0497 18.5257 22.9957 17.4419 28.7354M17.4419 28.7354C17.6761 29.1984 17.9184 29.6732 18.1683 30.1588M18.1683 30.1588C10.3524 26.1094 6.46037 28.8338 1.30762 23.5705M18.1683 30.1588C16.8255 30.7275 10.5219 32.3614 6.66003 31.0741C3.57052 30.0442 1.80446 25.6426 1.30762 23.5705M18.1683 30.1588C15.1317 25.646 12.3164 23.7741 9.18481 22.9957C6.05323 22.2173 3.03177 23.1583 1.30762 23.5705M18.1683 30.1588C19.3192 32.3953 20.6313 34.8625 22.0529 37.478M22.0529 37.478C21.3882 33.8268 25.698 28.5567 30.9804 25.7872M22.0529 37.478C22.1391 37.6367 22.2258 37.796 22.3129 37.9558M30.9804 25.7872C32.3967 27.0695 35.2615 29.223 33.3155 34.0971C31.3695 38.9713 24.9112 40.4626 24.0359 41.0954M30.9804 25.7872C30.202 34.666 25.5314 35.0611 24.0359 41.0954M24.0359 41.0954C23.9347 40.9122 23.8338 40.7295 23.7334 40.5473M24.0359 41.0954C24.8051 44.6294 24.6301 47.97 23.4763 51.3388M22.8874 39.0076C23.1659 39.5162 23.448 40.0296 23.7334 40.5473M22.8874 39.0076C22.7849 38.6836 22.598 38.3227 22.3129 37.9558M22.8874 39.0076C22.6941 38.6546 22.5026 38.3039 22.3129 37.9558M8.26425 36.0267C8.55784 37.7657 10.0264 42.855 14.6336 43.2344C19.2408 43.6138 22.7099 41.0956 23.7334 40.5473M8.26425 36.0267C13.4579 40.5473 18.0501 38.922 23.7334 40.5473M8.26425 36.0267C16.7931 34.0307 20.8487 36.072 22.3129 37.9558" stroke="#6F9200" stroke-width="1.79208" stroke-linecap="round"/>
</svg>
